<svg width="496" height="80" viewBox="0 0 496 80" fill="none" xmlns="http://www.w3.org/2000/svg">
<path d="M40 1.5H494.5V78.5H40C18.737 78.5 1.5 61.263 1.5 40C1.5 18.737 18.737 1.5 40 1.5Z" stroke="#D65F32" stroke-width="3"/>
<path d="M56.7221 54V20.25H73.5971C83.5872 20.25 90.2922 26.01 90.2922 37.305C90.2922 48.555 83.5872 54 73.5971 54H56.7221ZM72.7871 28.71H67.1621V45.54H72.7871C77.1071 45.54 79.8071 42.75 79.8071 37.035C79.8071 31.32 77.1071 28.71 72.7871 28.71ZM94.6909 54V20.25H123.446V29.25H105.131V33.435H121.916V40.815H105.131V45H123.446V54H94.6909ZM126.82 20.25H137.935L145.63 43.965H146.935L154.63 20.25H165.79L153.55 54H139.06L126.82 20.25ZM158.9 54L171.14 20.25H186.08L198.32 54H187.16L185.405 48.69H171.77L170.015 54H158.9ZM174.47 40.41H182.705L179.33 30.33H177.845L174.47 40.41ZM201.654 54V20.25H216.909L222.894 39.915L228.924 20.25H244.179V54H233.739V34.02L227.844 54H217.944L212.094 34.02V54H201.654ZM262.518 54V20.25H291.273V29.25H272.958V33.435H289.743V40.815H272.958V45H291.273V54H262.518ZM296.312 54V20.25H313.187C323.177 20.25 329.882 26.01 329.882 37.305C329.882 48.555 323.177 54 313.187 54H296.312ZM312.377 28.71H306.752V45.54H312.377C316.697 45.54 319.397 42.75 319.397 37.035C319.397 31.32 316.697 28.71 312.377 28.71ZM334.281 54V20.25H363.036V29.25H344.721V33.435H361.506V40.815H344.721V45H363.036V54H334.281ZM368.075 54V20.25H378.515L391.835 38.205V20.25H402.275V54H391.835L378.515 36.315V54H368.075Z" fill="#4E4F4E"/>
</svg>
