<svg width="300" height="80" viewBox="0 0 300 80" fill="none" xmlns="http://www.w3.org/2000/svg">
<path d="M1.5 1.5H260C281.263 1.5 298.5 18.737 298.5 40C298.5 61.263 281.263 78.5 260 78.5H1.5V1.5Z" stroke="#D65F32" stroke-width="3"/>
<path d="M80.6555 56V22.25H100.095C108.015 22.25 114 26.615 114 35.615C114 44.615 108.015 48.935 100.095 48.935H91.0955V56H80.6555ZM99.0155 31.25H91.0955V39.935H99.0155C101.4 39.935 103.515 38.945 103.515 35.66C103.515 32.42 101.4 31.25 99.0155 31.25ZM118.14 56V22.25H138.255C145.95 22.25 151.8 25.715 151.8 34.445C151.8 40.205 148.74 43.76 144.51 45.515L152.475 56H140.145L134.43 47.72H128.58V56H118.14ZM137.31 31.25H128.58V38.99H137.31C139.83 38.99 141.36 37.82 141.36 35.21C141.36 32.285 139.425 31.25 137.31 31.25ZM155.522 39.125C155.522 27.335 162.902 21.215 174.332 21.215C185.762 21.215 193.142 27.335 193.142 39.125C193.142 50.915 185.762 57.035 174.332 57.035C162.947 57.035 155.522 50.915 155.522 39.125ZM174.332 48.035C179.732 48.035 182.567 44.66 182.567 39.125C182.567 33.455 179.777 30.215 174.332 30.215C168.932 30.215 166.097 33.545 166.097 39.125C166.097 44.66 168.932 48.035 174.332 48.035ZM196.289 42.185H206.729C206.729 45.785 208.394 47.9 212.219 47.9C215.999 47.9 217.439 46.01 217.439 42.41V22.25H227.924V41.825C227.924 51.5 222.524 56.9 211.994 56.9C202.364 56.9 196.514 51.725 196.289 42.185ZM232.969 56V22.25H261.724V31.25H243.409V35.435H260.194V42.815H243.409V47H261.724V56H232.969Z" fill="#4E4F4E"/>
</svg>
