<svg width="700" height="326" viewBox="0 0 700 326" fill="none" xmlns="http://www.w3.org/2000/svg">
<rect y="227" width="138" height="60" fill="white"/>
<g opacity="0.75">
<mask id="path-2-inside-1_520_87679" fill="white">
<path d="M159.28 200V180.88L134.8 140H158.88L169.68 162.56H171.12L182.08 140H206.08L181.68 180.8V200H159.28ZM223.464 130.16C223.464 126.48 226.184 124 230.264 124C234.344 124 237.144 126.48 237.144 130.16C237.144 133.92 234.344 136.4 230.264 136.4C226.184 136.4 223.464 133.92 223.464 130.16ZM241.624 130.16C241.624 126.48 244.424 124 248.504 124C252.584 124 255.304 126.48 255.304 130.16C255.304 133.92 252.584 136.4 248.504 136.4C244.424 136.4 241.624 133.92 241.624 130.16ZM205.384 170C205.384 148.96 218.984 138 239.384 138C259.784 138 273.384 148.96 273.384 170C273.384 191.04 259.784 202 239.384 202C218.984 202 205.384 191.04 205.384 170ZM239.384 182.8C247.064 182.8 250.504 177.84 250.504 170C250.504 162 247.064 157.2 239.384 157.2C231.704 157.2 228.264 162.16 228.264 170C228.264 177.84 231.704 182.8 239.384 182.8ZM278.997 200V140H301.397L320.597 166.4V140H342.997V200H320.597L301.397 174.32V200H278.997ZM367.769 140H391.769L404.009 177.68H405.689L417.929 140H441.849L420.089 200H389.529L367.769 140ZM445.95 200V140H498.35V159.2H468.35V162.8H496.27V177.2H468.35V180.8H498.35V200H445.95ZM504.778 200V140H543.418C556.698 140 567.018 146.64 567.018 161.84C567.018 171.6 561.738 177.76 554.538 181.04L568.298 200H542.298L533.018 185.6H527.178V200H504.778ZM539.818 159.2H527.178V167.2H539.818C542.618 167.2 544.538 166.16 544.538 163.2C544.538 160.32 542.618 159.2 539.818 159.2ZM573.059 200V140H625.459V159.2H595.459V162.8H623.379V177.2H595.459V180.8H625.459V200H573.059ZM631.888 200V140H654.288L673.488 166.4V140H695.888V200H673.488L654.288 174.32V200H631.888Z"/>
</mask>
<path d="M159.28 200H157.28V202H159.28V200ZM159.28 180.88H161.28V180.327L160.996 179.852L159.28 180.88ZM134.8 140V138H131.271L133.084 141.028L134.8 140ZM158.88 140L160.684 139.136L160.14 138H158.88V140ZM169.68 162.56L167.876 163.424L168.42 164.56H169.68V162.56ZM171.12 162.56V164.56H172.372L172.919 163.434L171.12 162.56ZM182.08 140V138H180.828L180.281 139.126L182.08 140ZM206.08 140L207.796 141.027L209.606 138H206.08V140ZM181.68 180.8L179.964 179.773L179.68 180.248V180.8H181.68ZM181.68 200V202H183.68V200H181.68ZM161.28 200V180.88H157.28V200H161.28ZM160.996 179.852L136.516 138.972L133.084 141.028L157.564 181.908L160.996 179.852ZM134.8 142H158.88V138H134.8V142ZM157.076 140.864L167.876 163.424L171.484 161.696L160.684 139.136L157.076 140.864ZM169.68 164.56H171.12V160.56H169.68V164.56ZM172.919 163.434L183.879 140.874L180.281 139.126L169.321 161.686L172.919 163.434ZM182.08 142H206.08V138H182.08V142ZM204.364 138.973L179.964 179.773L183.396 181.827L207.796 141.027L204.364 138.973ZM179.68 180.8V200H183.68V180.8H179.68ZM181.68 198H159.28V202H181.68V198ZM225.464 130.16C225.464 128.839 225.938 127.853 226.678 127.181C227.436 126.494 228.626 126 230.264 126V122C227.822 122 225.613 122.746 223.99 124.219C222.351 125.707 221.464 127.801 221.464 130.16H225.464ZM230.264 126C231.904 126 233.121 126.495 233.903 127.192C234.664 127.872 235.144 128.858 235.144 130.16H239.144C239.144 127.782 238.224 125.688 236.566 124.208C234.927 122.745 232.705 122 230.264 122V126ZM235.144 130.16C235.144 131.514 234.655 132.52 233.896 133.204C233.117 133.905 231.904 134.4 230.264 134.4V138.4C232.705 138.4 234.932 137.655 236.573 136.176C238.234 134.68 239.144 132.566 239.144 130.16H235.144ZM230.264 134.4C228.627 134.4 227.44 133.907 226.685 133.215C225.947 132.539 225.464 131.533 225.464 130.16H221.464C221.464 132.547 222.342 134.661 223.983 136.165C225.609 137.653 227.822 138.4 230.264 138.4V134.4ZM243.624 130.16C243.624 128.858 244.104 127.872 244.866 127.192C245.647 126.495 246.865 126 248.504 126V122C246.064 122 243.841 122.745 242.203 124.208C240.544 125.688 239.624 127.782 239.624 130.16H243.624ZM248.504 126C250.142 126 251.333 126.494 252.09 127.181C252.831 127.853 253.304 128.839 253.304 130.16H257.304C257.304 127.801 256.418 125.707 254.778 124.219C253.156 122.746 250.946 122 248.504 122V126ZM253.304 130.16C253.304 131.533 252.822 132.539 252.083 133.215C251.329 133.907 250.142 134.4 248.504 134.4V138.4C250.947 138.4 253.16 137.653 254.785 136.165C256.427 134.661 257.304 132.547 257.304 130.16H253.304ZM248.504 134.4C246.865 134.4 245.652 133.905 244.873 133.204C244.114 132.52 243.624 131.514 243.624 130.16H239.624C239.624 132.566 240.535 134.68 242.196 136.176C243.837 137.655 246.064 138.4 248.504 138.4V134.4ZM207.384 170C207.384 159.931 210.623 152.514 216.074 147.595C221.556 142.647 229.525 140 239.384 140V136C228.844 136 219.812 138.833 213.394 144.625C206.946 150.446 203.384 159.029 203.384 170H207.384ZM239.384 140C249.244 140 257.212 142.647 262.694 147.595C268.146 152.514 271.384 159.931 271.384 170H275.384C275.384 159.029 271.823 150.446 265.374 144.625C258.956 138.833 249.925 136 239.384 136V140ZM271.384 170C271.384 180.069 268.146 187.486 262.694 192.405C257.212 197.353 249.244 200 239.384 200V204C249.925 204 258.956 201.167 265.374 195.375C271.823 189.554 275.384 180.971 275.384 170H271.384ZM239.384 200C229.525 200 221.556 197.353 216.074 192.405C210.623 187.486 207.384 180.069 207.384 170H203.384C203.384 180.971 206.946 189.554 213.394 195.375C219.812 201.167 228.844 204 239.384 204V200ZM239.384 184.8C243.683 184.8 247.09 183.39 249.371 180.608C251.595 177.895 252.504 174.171 252.504 170H248.504C248.504 173.669 247.694 176.345 246.278 178.072C244.918 179.73 242.765 180.8 239.384 180.8V184.8ZM252.504 170C252.504 165.758 251.599 162.025 249.365 159.325C247.075 156.557 243.663 155.2 239.384 155.2V159.2C242.786 159.2 244.933 160.243 246.283 161.875C247.69 163.575 248.504 166.242 248.504 170H252.504ZM239.384 155.2C235.085 155.2 231.678 156.61 229.398 159.392C227.174 162.105 226.264 165.829 226.264 170H230.264C230.264 166.331 231.075 163.655 232.491 161.928C233.85 160.27 236.003 159.2 239.384 159.2V155.2ZM226.264 170C226.264 174.171 227.174 177.895 229.398 180.608C231.678 183.39 235.085 184.8 239.384 184.8V180.8C236.003 180.8 233.85 179.73 232.491 178.072C231.075 176.345 230.264 173.669 230.264 170H226.264ZM278.997 200H276.997V202H278.997V200ZM278.997 140V138H276.997V140H278.997ZM301.397 140L303.014 138.824L302.415 138H301.397V140ZM320.597 166.4L318.979 167.576L322.597 172.55V166.4H320.597ZM320.597 140V138H318.597V140H320.597ZM342.997 140H344.997V138H342.997V140ZM342.997 200V202H344.997V200H342.997ZM320.597 200L318.995 201.198L319.595 202H320.597V200ZM301.397 174.32L302.999 173.122L299.397 168.305V174.32H301.397ZM301.397 200V202H303.397V200H301.397ZM280.997 200V140H276.997V200H280.997ZM278.997 142H301.397V138H278.997V142ZM299.779 141.176L318.979 167.576L322.214 165.224L303.014 138.824L299.779 141.176ZM322.597 166.4V140H318.597V166.4H322.597ZM320.597 142H342.997V138H320.597V142ZM340.997 140V200H344.997V140H340.997ZM342.997 198H320.597V202H342.997V198ZM322.199 198.802L302.999 173.122L299.795 175.518L318.995 201.198L322.199 198.802ZM299.397 174.32V200H303.397V174.32H299.397ZM301.397 198H278.997V202H301.397V198ZM367.769 140V138H364.916L365.889 140.682L367.769 140ZM391.769 140L393.671 139.382L393.222 138H391.769V140ZM404.009 177.68L402.107 178.298L402.556 179.68H404.009V177.68ZM405.689 177.68V179.68H407.142L407.591 178.298L405.689 177.68ZM417.929 140V138H416.476L416.027 139.382L417.929 140ZM441.849 140L443.729 140.682L444.702 138H441.849V140ZM420.089 200V202H421.491L421.969 200.682L420.089 200ZM389.529 200L387.649 200.682L388.127 202H389.529V200ZM367.769 142H391.769V138H367.769V142ZM389.867 140.618L402.107 178.298L405.911 177.062L393.671 139.382L389.867 140.618ZM404.009 179.68H405.689V175.68H404.009V179.68ZM407.591 178.298L419.831 140.618L416.027 139.382L403.787 177.062L407.591 178.298ZM417.929 142H441.849V138H417.929V142ZM439.969 139.318L418.209 199.318L421.969 200.682L443.729 140.682L439.969 139.318ZM420.089 198H389.529V202H420.089V198ZM391.409 199.318L369.649 139.318L365.889 140.682L387.649 200.682L391.409 199.318ZM445.95 200H443.95V202H445.95V200ZM445.95 140V138H443.95V140H445.95ZM498.35 140H500.35V138H498.35V140ZM498.35 159.2V161.2H500.35V159.2H498.35ZM468.35 159.2V157.2H466.35V159.2H468.35ZM468.35 162.8H466.35V164.8H468.35V162.8ZM496.27 162.8H498.27V160.8H496.27V162.8ZM496.27 177.2V179.2H498.27V177.2H496.27ZM468.35 177.2V175.2H466.35V177.2H468.35ZM468.35 180.8H466.35V182.8H468.35V180.8ZM498.35 180.8H500.35V178.8H498.35V180.8ZM498.35 200V202H500.35V200H498.35ZM447.95 200V140H443.95V200H447.95ZM445.95 142H498.35V138H445.95V142ZM496.35 140V159.2H500.35V140H496.35ZM498.35 157.2H468.35V161.2H498.35V157.2ZM466.35 159.2V162.8H470.35V159.2H466.35ZM468.35 164.8H496.27V160.8H468.35V164.8ZM494.27 162.8V177.2H498.27V162.8H494.27ZM496.27 175.2H468.35V179.2H496.27V175.2ZM466.35 177.2V180.8H470.35V177.2H466.35ZM468.35 182.8H498.35V178.8H468.35V182.8ZM496.35 180.8V200H500.35V180.8H496.35ZM498.35 198H445.95V202H498.35V198ZM504.778 200H502.778V202H504.778V200ZM504.778 140V138H502.778V140H504.778ZM554.538 181.04L553.709 179.22L551.482 180.234L552.919 182.215L554.538 181.04ZM568.298 200V202H572.221L569.917 198.825L568.298 200ZM542.298 200L540.617 201.083L541.208 202H542.298V200ZM533.018 185.6L534.699 184.517L534.109 183.6H533.018V185.6ZM527.178 185.6V183.6H525.178V185.6H527.178ZM527.178 200V202H529.178V200H527.178ZM527.178 159.2V157.2H525.178V159.2H527.178ZM527.178 167.2H525.178V169.2H527.178V167.2ZM506.778 200V140H502.778V200H506.778ZM504.778 142H543.418V138H504.778V142ZM543.418 142C549.754 142 555.142 143.586 558.912 146.752C562.626 149.87 565.018 154.728 565.018 161.84H569.018C569.018 153.752 566.25 147.69 561.484 143.688C556.774 139.734 550.362 138 543.418 138V142ZM565.018 161.84C565.018 170.696 560.313 176.212 553.709 179.22L555.367 182.86C563.164 179.308 569.018 172.504 569.018 161.84H565.018ZM552.919 182.215L566.679 201.175L569.917 198.825L556.157 179.865L552.919 182.215ZM568.298 198H542.298V202H568.298V198ZM543.979 198.917L534.699 184.517L531.337 186.683L540.617 201.083L543.979 198.917ZM533.018 183.6H527.178V187.6H533.018V183.6ZM525.178 185.6V200H529.178V185.6H525.178ZM527.178 198H504.778V202H527.178V198ZM539.818 157.2H527.178V161.2H539.818V157.2ZM525.178 159.2V167.2H529.178V159.2H525.178ZM527.178 169.2H539.818V165.2H527.178V169.2ZM539.818 169.2C541.406 169.2 543.103 168.916 544.437 167.903C545.878 166.809 546.538 165.149 546.538 163.2H542.538C542.538 164.211 542.238 164.551 542.019 164.717C541.693 164.964 541.03 165.2 539.818 165.2V169.2ZM546.538 163.2C546.538 161.275 545.868 159.63 544.449 158.536C543.125 157.515 541.434 157.2 539.818 157.2V161.2C541.003 161.2 541.672 161.445 542.007 161.704C542.248 161.89 542.538 162.245 542.538 163.2H546.538ZM573.059 200H571.059V202H573.059V200ZM573.059 140V138H571.059V140H573.059ZM625.459 140H627.459V138H625.459V140ZM625.459 159.2V161.2H627.459V159.2H625.459ZM595.459 159.2V157.2H593.459V159.2H595.459ZM595.459 162.8H593.459V164.8H595.459V162.8ZM623.379 162.8H625.379V160.8H623.379V162.8ZM623.379 177.2V179.2H625.379V177.2H623.379ZM595.459 177.2V175.2H593.459V177.2H595.459ZM595.459 180.8H593.459V182.8H595.459V180.8ZM625.459 180.8H627.459V178.8H625.459V180.8ZM625.459 200V202H627.459V200H625.459ZM575.059 200V140H571.059V200H575.059ZM573.059 142H625.459V138H573.059V142ZM623.459 140V159.2H627.459V140H623.459ZM625.459 157.2H595.459V161.2H625.459V157.2ZM593.459 159.2V162.8H597.459V159.2H593.459ZM595.459 164.8H623.379V160.8H595.459V164.8ZM621.379 162.8V177.2H625.379V162.8H621.379ZM623.379 175.2H595.459V179.2H623.379V175.2ZM593.459 177.2V180.8H597.459V177.2H593.459ZM595.459 182.8H625.459V178.8H595.459V182.8ZM623.459 180.8V200H627.459V180.8H623.459ZM625.459 198H573.059V202H625.459V198ZM631.888 200H629.888V202H631.888V200ZM631.888 140V138H629.888V140H631.888ZM654.287 140L655.905 138.824L655.306 138H654.287V140ZM673.487 166.4L671.87 167.576L675.487 172.55V166.4H673.487ZM673.487 140V138H671.487V140H673.487ZM695.888 140H697.888V138H695.888V140ZM695.888 200V202H697.888V200H695.888ZM673.487 200L671.886 201.198L672.486 202H673.487V200ZM654.287 174.32L655.889 173.122L652.287 168.305V174.32H654.287ZM654.287 200V202H656.287V200H654.287ZM633.888 200V140H629.888V200H633.888ZM631.888 142H654.287V138H631.888V142ZM652.67 141.176L671.87 167.576L675.105 165.224L655.905 138.824L652.67 141.176ZM675.487 166.4V140H671.487V166.4H675.487ZM673.487 142H695.888V138H673.487V142ZM693.888 140V200H697.888V140H693.888ZM695.888 198H673.487V202H695.888V198ZM675.089 198.802L655.889 173.122L652.686 175.518L671.886 201.198L675.089 198.802ZM652.287 174.32V200H656.287V174.32H652.287ZM654.287 198H631.888V202H654.287V198Z" fill="white" mask="url(#path-2-inside-1_520_87679)"/>
</g>
<g opacity="0.75">
<mask id="path-4-inside-2_520_87679" fill="white">
<path d="M159.28 174V154.88L134.8 114H158.88L169.68 136.56H171.12L182.08 114H206.08L181.68 154.8V174H159.28ZM223.464 104.16C223.464 100.48 226.184 98 230.264 98C234.344 98 237.144 100.48 237.144 104.16C237.144 107.92 234.344 110.4 230.264 110.4C226.184 110.4 223.464 107.92 223.464 104.16ZM241.624 104.16C241.624 100.48 244.424 98 248.504 98C252.584 98 255.304 100.48 255.304 104.16C255.304 107.92 252.584 110.4 248.504 110.4C244.424 110.4 241.624 107.92 241.624 104.16ZM205.384 144C205.384 122.96 218.984 112 239.384 112C259.784 112 273.384 122.96 273.384 144C273.384 165.04 259.784 176 239.384 176C218.984 176 205.384 165.04 205.384 144ZM239.384 156.8C247.064 156.8 250.504 151.84 250.504 144C250.504 136 247.064 131.2 239.384 131.2C231.704 131.2 228.264 136.16 228.264 144C228.264 151.84 231.704 156.8 239.384 156.8ZM278.997 174V114H301.397L320.597 140.4V114H342.997V174H320.597L301.397 148.32V174H278.997ZM367.769 114H391.769L404.009 151.68H405.689L417.929 114H441.849L420.089 174H389.529L367.769 114ZM445.95 174V114H498.35V133.2H468.35V136.8H496.27V151.2H468.35V154.8H498.35V174H445.95ZM504.778 174V114H543.418C556.698 114 567.018 120.64 567.018 135.84C567.018 145.6 561.738 151.76 554.538 155.04L568.298 174H542.298L533.018 159.6H527.178V174H504.778ZM539.818 133.2H527.178V141.2H539.818C542.618 141.2 544.538 140.16 544.538 137.2C544.538 134.32 542.618 133.2 539.818 133.2ZM573.059 174V114H625.459V133.2H595.459V136.8H623.379V151.2H595.459V154.8H625.459V174H573.059ZM631.888 174V114H654.288L673.488 140.4V114H695.888V174H673.488L654.288 148.32V174H631.888Z"/>
</mask>
<path d="M159.28 174H157.28V176H159.28V174ZM159.28 154.88H161.28V154.327L160.996 153.852L159.28 154.88ZM134.8 114V112H131.271L133.084 115.028L134.8 114ZM158.88 114L160.684 113.136L160.14 112H158.88V114ZM169.68 136.56L167.876 137.424L168.42 138.56H169.68V136.56ZM171.12 136.56V138.56H172.372L172.919 137.434L171.12 136.56ZM182.08 114V112H180.828L180.281 113.126L182.08 114ZM206.08 114L207.796 115.027L209.606 112H206.08V114ZM181.68 154.8L179.964 153.773L179.68 154.248V154.8H181.68ZM181.68 174V176H183.68V174H181.68ZM161.28 174V154.88H157.28V174H161.28ZM160.996 153.852L136.516 112.972L133.084 115.028L157.564 155.908L160.996 153.852ZM134.8 116H158.88V112H134.8V116ZM157.076 114.864L167.876 137.424L171.484 135.696L160.684 113.136L157.076 114.864ZM169.68 138.56H171.12V134.56H169.68V138.56ZM172.919 137.434L183.879 114.874L180.281 113.126L169.321 135.686L172.919 137.434ZM182.08 116H206.08V112H182.08V116ZM204.364 112.973L179.964 153.773L183.396 155.827L207.796 115.027L204.364 112.973ZM179.68 154.8V174H183.68V154.8H179.68ZM181.68 172H159.28V176H181.68V172ZM225.464 104.16C225.464 102.839 225.938 101.853 226.678 101.181C227.436 100.494 228.626 100 230.264 100V96C227.822 96 225.613 96.7463 223.99 98.219C222.351 99.7071 221.464 101.801 221.464 104.16H225.464ZM230.264 100C231.904 100 233.121 100.495 233.903 101.192C234.664 101.872 235.144 102.858 235.144 104.16H239.144C239.144 101.782 238.224 99.688 236.566 98.2079C234.927 96.7451 232.705 96 230.264 96V100ZM235.144 104.16C235.144 105.514 234.655 106.52 233.896 107.204C233.117 107.905 231.904 108.4 230.264 108.4V112.4C232.705 112.4 234.932 111.655 236.573 110.176C238.234 108.68 239.144 106.566 239.144 104.16H235.144ZM230.264 108.4C228.627 108.4 227.44 107.907 226.685 107.215C225.947 106.539 225.464 105.533 225.464 104.16H221.464C221.464 106.547 222.342 108.661 223.983 110.165C225.609 111.653 227.822 112.4 230.264 112.4V108.4ZM243.624 104.16C243.624 102.858 244.104 101.872 244.866 101.192C245.647 100.495 246.865 100 248.504 100V96C246.064 96 243.841 96.7451 242.203 98.2079C240.544 99.688 239.624 101.782 239.624 104.16H243.624ZM248.504 100C250.142 100 251.333 100.494 252.09 101.181C252.831 101.853 253.304 102.839 253.304 104.16H257.304C257.304 101.801 256.418 99.7071 254.778 98.219C253.156 96.7463 250.946 96 248.504 96V100ZM253.304 104.16C253.304 105.533 252.822 106.539 252.083 107.215C251.329 107.907 250.142 108.4 248.504 108.4V112.4C250.947 112.4 253.16 111.653 254.785 110.165C256.427 108.661 257.304 106.547 257.304 104.16H253.304ZM248.504 108.4C246.865 108.4 245.652 107.905 244.873 107.204C244.114 106.52 243.624 105.514 243.624 104.16H239.624C239.624 106.566 240.535 108.68 242.196 110.176C243.837 111.655 246.064 112.4 248.504 112.4V108.4ZM207.384 144C207.384 133.931 210.623 126.514 216.074 121.595C221.556 116.647 229.525 114 239.384 114V110C228.844 110 219.812 112.833 213.394 118.625C206.946 124.446 203.384 133.029 203.384 144H207.384ZM239.384 114C249.244 114 257.212 116.647 262.694 121.595C268.146 126.514 271.384 133.931 271.384 144H275.384C275.384 133.029 271.823 124.446 265.374 118.625C258.956 112.833 249.925 110 239.384 110V114ZM271.384 144C271.384 154.069 268.146 161.486 262.694 166.405C257.212 171.353 249.244 174 239.384 174V178C249.925 178 258.956 175.167 265.374 169.375C271.823 163.554 275.384 154.971 275.384 144H271.384ZM239.384 174C229.525 174 221.556 171.353 216.074 166.405C210.623 161.486 207.384 154.069 207.384 144H203.384C203.384 154.971 206.946 163.554 213.394 169.375C219.812 175.167 228.844 178 239.384 178V174ZM239.384 158.8C243.683 158.8 247.09 157.39 249.371 154.608C251.595 151.895 252.504 148.171 252.504 144H248.504C248.504 147.669 247.694 150.345 246.278 152.072C244.918 153.73 242.765 154.8 239.384 154.8V158.8ZM252.504 144C252.504 139.758 251.599 136.025 249.365 133.325C247.075 130.557 243.663 129.2 239.384 129.2V133.2C242.786 133.2 244.933 134.243 246.283 135.875C247.69 137.575 248.504 140.242 248.504 144H252.504ZM239.384 129.2C235.085 129.2 231.678 130.61 229.398 133.392C227.174 136.105 226.264 139.829 226.264 144H230.264C230.264 140.331 231.075 137.655 232.491 135.928C233.85 134.27 236.003 133.2 239.384 133.2V129.2ZM226.264 144C226.264 148.171 227.174 151.895 229.398 154.608C231.678 157.39 235.085 158.8 239.384 158.8V154.8C236.003 154.8 233.85 153.73 232.491 152.072C231.075 150.345 230.264 147.669 230.264 144H226.264ZM278.997 174H276.997V176H278.997V174ZM278.997 114V112H276.997V114H278.997ZM301.397 114L303.014 112.824L302.415 112H301.397V114ZM320.597 140.4L318.979 141.576L322.597 146.55V140.4H320.597ZM320.597 114V112H318.597V114H320.597ZM342.997 114H344.997V112H342.997V114ZM342.997 174V176H344.997V174H342.997ZM320.597 174L318.995 175.198L319.595 176H320.597V174ZM301.397 148.32L302.999 147.122L299.397 142.305V148.32H301.397ZM301.397 174V176H303.397V174H301.397ZM280.997 174V114H276.997V174H280.997ZM278.997 116H301.397V112H278.997V116ZM299.779 115.176L318.979 141.576L322.214 139.224L303.014 112.824L299.779 115.176ZM322.597 140.4V114H318.597V140.4H322.597ZM320.597 116H342.997V112H320.597V116ZM340.997 114V174H344.997V114H340.997ZM342.997 172H320.597V176H342.997V172ZM322.199 172.802L302.999 147.122L299.795 149.518L318.995 175.198L322.199 172.802ZM299.397 148.32V174H303.397V148.32H299.397ZM301.397 172H278.997V176H301.397V172ZM367.769 114V112H364.916L365.889 114.682L367.769 114ZM391.769 114L393.671 113.382L393.222 112H391.769V114ZM404.009 151.68L402.107 152.298L402.556 153.68H404.009V151.68ZM405.689 151.68V153.68H407.142L407.591 152.298L405.689 151.68ZM417.929 114V112H416.476L416.027 113.382L417.929 114ZM441.849 114L443.729 114.682L444.702 112H441.849V114ZM420.089 174V176H421.491L421.969 174.682L420.089 174ZM389.529 174L387.649 174.682L388.127 176H389.529V174ZM367.769 116H391.769V112H367.769V116ZM389.867 114.618L402.107 152.298L405.911 151.062L393.671 113.382L389.867 114.618ZM404.009 153.68H405.689V149.68H404.009V153.68ZM407.591 152.298L419.831 114.618L416.027 113.382L403.787 151.062L407.591 152.298ZM417.929 116H441.849V112H417.929V116ZM439.969 113.318L418.209 173.318L421.969 174.682L443.729 114.682L439.969 113.318ZM420.089 172H389.529V176H420.089V172ZM391.409 173.318L369.649 113.318L365.889 114.682L387.649 174.682L391.409 173.318ZM445.95 174H443.95V176H445.95V174ZM445.95 114V112H443.95V114H445.95ZM498.35 114H500.35V112H498.35V114ZM498.35 133.2V135.2H500.35V133.2H498.35ZM468.35 133.2V131.2H466.35V133.2H468.35ZM468.35 136.8H466.35V138.8H468.35V136.8ZM496.27 136.8H498.27V134.8H496.27V136.8ZM496.27 151.2V153.2H498.27V151.2H496.27ZM468.35 151.2V149.2H466.35V151.2H468.35ZM468.35 154.8H466.35V156.8H468.35V154.8ZM498.35 154.8H500.35V152.8H498.35V154.8ZM498.35 174V176H500.35V174H498.35ZM447.95 174V114H443.95V174H447.95ZM445.95 116H498.35V112H445.95V116ZM496.35 114V133.2H500.35V114H496.35ZM498.35 131.2H468.35V135.2H498.35V131.2ZM466.35 133.2V136.8H470.35V133.2H466.35ZM468.35 138.8H496.27V134.8H468.35V138.8ZM494.27 136.8V151.2H498.27V136.8H494.27ZM496.27 149.2H468.35V153.2H496.27V149.2ZM466.35 151.2V154.8H470.35V151.2H466.35ZM468.35 156.8H498.35V152.8H468.35V156.8ZM496.35 154.8V174H500.35V154.8H496.35ZM498.35 172H445.95V176H498.35V172ZM504.778 174H502.778V176H504.778V174ZM504.778 114V112H502.778V114H504.778ZM554.538 155.04L553.709 153.22L551.482 154.234L552.919 156.215L554.538 155.04ZM568.298 174V176H572.221L569.917 172.825L568.298 174ZM542.298 174L540.617 175.083L541.208 176H542.298V174ZM533.018 159.6L534.699 158.517L534.109 157.6H533.018V159.6ZM527.178 159.6V157.6H525.178V159.6H527.178ZM527.178 174V176H529.178V174H527.178ZM527.178 133.2V131.2H525.178V133.2H527.178ZM527.178 141.2H525.178V143.2H527.178V141.2ZM506.778 174V114H502.778V174H506.778ZM504.778 116H543.418V112H504.778V116ZM543.418 116C549.754 116 555.142 117.586 558.912 120.752C562.626 123.87 565.018 128.728 565.018 135.84H569.018C569.018 127.752 566.25 121.69 561.484 117.688C556.774 113.734 550.362 112 543.418 112V116ZM565.018 135.84C565.018 144.696 560.313 150.212 553.709 153.22L555.367 156.86C563.164 153.308 569.018 146.504 569.018 135.84H565.018ZM552.919 156.215L566.679 175.175L569.917 172.825L556.157 153.865L552.919 156.215ZM568.298 172H542.298V176H568.298V172ZM543.979 172.917L534.699 158.517L531.337 160.683L540.617 175.083L543.979 172.917ZM533.018 157.6H527.178V161.6H533.018V157.6ZM525.178 159.6V174H529.178V159.6H525.178ZM527.178 172H504.778V176H527.178V172ZM539.818 131.2H527.178V135.2H539.818V131.2ZM525.178 133.2V141.2H529.178V133.2H525.178ZM527.178 143.2H539.818V139.2H527.178V143.2ZM539.818 143.2C541.406 143.2 543.103 142.916 544.437 141.903C545.878 140.809 546.538 139.149 546.538 137.2H542.538C542.538 138.211 542.238 138.551 542.019 138.717C541.693 138.964 541.03 139.2 539.818 139.2V143.2ZM546.538 137.2C546.538 135.275 545.868 133.63 544.449 132.536C543.125 131.515 541.434 131.2 539.818 131.2V135.2C541.003 135.2 541.672 135.445 542.007 135.704C542.248 135.89 542.538 136.245 542.538 137.2H546.538ZM573.059 174H571.059V176H573.059V174ZM573.059 114V112H571.059V114H573.059ZM625.459 114H627.459V112H625.459V114ZM625.459 133.2V135.2H627.459V133.2H625.459ZM595.459 133.2V131.2H593.459V133.2H595.459ZM595.459 136.8H593.459V138.8H595.459V136.8ZM623.379 136.8H625.379V134.8H623.379V136.8ZM623.379 151.2V153.2H625.379V151.2H623.379ZM595.459 151.2V149.2H593.459V151.2H595.459ZM595.459 154.8H593.459V156.8H595.459V154.8ZM625.459 154.8H627.459V152.8H625.459V154.8ZM625.459 174V176H627.459V174H625.459ZM575.059 174V114H571.059V174H575.059ZM573.059 116H625.459V112H573.059V116ZM623.459 114V133.2H627.459V114H623.459ZM625.459 131.2H595.459V135.2H625.459V131.2ZM593.459 133.2V136.8H597.459V133.2H593.459ZM595.459 138.8H623.379V134.8H595.459V138.8ZM621.379 136.8V151.2H625.379V136.8H621.379ZM623.379 149.2H595.459V153.2H623.379V149.2ZM593.459 151.2V154.8H597.459V151.2H593.459ZM595.459 156.8H625.459V152.8H595.459V156.8ZM623.459 154.8V174H627.459V154.8H623.459ZM625.459 172H573.059V176H625.459V172ZM631.888 174H629.888V176H631.888V174ZM631.888 114V112H629.888V114H631.888ZM654.287 114L655.905 112.824L655.306 112H654.287V114ZM673.487 140.4L671.87 141.576L675.487 146.55V140.4H673.487ZM673.487 114V112H671.487V114H673.487ZM695.888 114H697.888V112H695.888V114ZM695.888 174V176H697.888V174H695.888ZM673.487 174L671.886 175.198L672.486 176H673.487V174ZM654.287 148.32L655.889 147.122L652.287 142.305V148.32H654.287ZM654.287 174V176H656.287V174H654.287ZM633.888 174V114H629.888V174H633.888ZM631.888 116H654.287V112H631.888V116ZM652.67 115.176L671.87 141.576L675.105 139.224L655.905 112.824L652.67 115.176ZM675.487 140.4V114H671.487V140.4H675.487ZM673.487 116H695.888V112H673.487V116ZM693.888 114V174H697.888V114H693.888ZM695.888 172H673.487V176H695.888V172ZM675.089 172.802L655.889 147.122L652.686 149.518L671.886 175.198L675.089 172.802ZM652.287 148.32V174H656.287V148.32H652.287ZM654.287 172H631.888V176H654.287V172Z" fill="white" mask="url(#path-4-inside-2_520_87679)"/>
</g>
<path d="M168.8 65.88V55H201.6V87H188.72V81.72C183.36 85.96 176.56 88.6 168.56 88.6C149.52 88.6 136.4 77.8 136.4 57C136.4 36.2 149.84 25.4 170 25.4C185.36 25.4 196.8 31.72 201.44 43.88L180.24 51.16C178.72 46.92 176 44.68 170 44.68C161.68 44.68 158.8 49.16 158.8 57C158.8 64.84 161.68 69.32 170 69.32C174.32 69.32 177.12 68.12 178.88 65.88H168.8ZM207.981 87V27H260.381V46.2H230.381V49.8H258.301V64.2H230.381V67.8H260.381V87H207.981ZM266.809 87V27H289.209V67.8H320.249V87H266.809ZM325.013 87V27H377.413V46.2H347.413V49.8H375.333V64.2H347.413V67.8H377.413V87H325.013ZM427.281 61.72L449.281 66.04C445.841 80.92 433.681 88.6 416.641 88.6C396.481 88.6 383.041 77.8 383.041 57C383.041 36.2 396.481 25.4 416.641 25.4C433.921 25.4 446.321 33.4 449.441 48.84L427.441 52.68C426.161 47.48 423.361 44.68 416.641 44.68C408.321 44.68 405.441 49.16 405.441 57C405.441 64.84 408.321 69.32 416.641 69.32C423.121 69.32 425.921 66.6 427.281 61.72ZM455.091 87V27H507.491V46.2H477.491V49.8H505.411V64.2H477.491V67.8H507.491V87H455.091ZM528.319 11H542.719C542.719 11 542.959 14.52 546.239 14.52C549.439 14.52 549.439 11 549.439 11H563.919C563.919 17.16 562.319 23.72 546.239 23.72C530.159 23.72 528.319 17.16 528.319 11ZM545.519 65.88V55H578.319V87H565.439V81.72C560.079 85.96 553.279 88.6 545.279 88.6C526.239 88.6 513.119 77.8 513.119 57C513.119 36.2 526.559 25.4 546.719 25.4C562.079 25.4 573.519 31.72 578.159 43.88L556.959 51.16C555.439 46.92 552.719 44.68 546.719 44.68C538.399 44.68 535.519 49.16 535.519 57C535.519 64.84 538.399 69.32 546.719 69.32C551.039 69.32 553.839 68.12 555.599 65.88H545.519ZM584.7 87V27H637.1V46.2H607.1V49.8H635.02V64.2H607.1V67.8H637.1V87H584.7ZM159.28 187V167.88L134.8 127H158.88L169.68 149.56H171.12L182.08 127H206.08L181.68 167.8V187H159.28ZM223.464 117.16C223.464 113.48 226.184 111 230.264 111C234.344 111 237.144 113.48 237.144 117.16C237.144 120.92 234.344 123.4 230.264 123.4C226.184 123.4 223.464 120.92 223.464 117.16ZM241.624 117.16C241.624 113.48 244.424 111 248.504 111C252.584 111 255.304 113.48 255.304 117.16C255.304 120.92 252.584 123.4 248.504 123.4C244.424 123.4 241.624 120.92 241.624 117.16ZM205.384 157C205.384 135.96 218.984 125 239.384 125C259.784 125 273.384 135.96 273.384 157C273.384 178.04 259.784 189 239.384 189C218.984 189 205.384 178.04 205.384 157ZM239.384 169.8C247.064 169.8 250.504 164.84 250.504 157C250.504 149 247.064 144.2 239.384 144.2C231.704 144.2 228.264 149.16 228.264 157C228.264 164.84 231.704 169.8 239.384 169.8ZM278.997 187V127H301.397L320.597 153.4V127H342.997V187H320.597L301.397 161.32V187H278.997ZM367.769 127H391.769L404.009 164.68H405.689L417.929 127H441.849L420.089 187H389.529L367.769 127ZM445.95 187V127H498.35V146.2H468.35V149.8H496.27V164.2H468.35V167.8H498.35V187H445.95ZM504.778 187V127H543.418C556.698 127 567.018 133.64 567.018 148.84C567.018 158.6 561.738 164.76 554.538 168.04L568.298 187H542.298L533.018 172.6H527.178V187H504.778ZM539.818 146.2H527.178V154.2H539.818C542.618 154.2 544.538 153.16 544.538 150.2C544.538 147.32 542.618 146.2 539.818 146.2ZM573.059 187V127H625.459V146.2H595.459V149.8H623.379V164.2H595.459V167.8H625.459V187H573.059ZM631.888 187V127H654.288L673.488 153.4V127H695.888V187H673.488L654.288 161.32V187H631.888ZM137.28 287L137.2 227H174.24C188.4 227 199.04 235.4 199.04 251.4C199.04 267.4 188.4 276.2 174.24 276.2H159.68V287H137.28ZM170.4 246.2H159.6V257H170.4C174.08 257 176.56 255.4 176.56 251.56C176.56 247.72 174.08 246.2 170.4 246.2ZM203.841 287V227H242.481C255.761 227 266.081 233.64 266.081 248.84C266.081 258.6 260.801 264.76 253.601 268.04L267.361 287H241.361L232.081 272.6H226.241V287H203.841ZM238.881 246.2H226.241V254.2H238.881C241.681 254.2 243.601 253.16 243.601 250.2C243.601 247.32 241.681 246.2 238.881 246.2ZM271.322 257C271.322 235.96 284.922 225 305.322 225C325.722 225 339.322 235.96 339.322 257C339.322 278.04 325.722 289 305.322 289C284.922 289 271.322 278.04 271.322 257ZM305.322 269.8C313.002 269.8 316.442 264.84 316.442 257C316.442 249 313.002 244.2 305.322 244.2C297.642 244.2 294.202 249.16 294.202 257C294.202 264.84 297.642 269.8 305.322 269.8ZM343.334 262.44H365.734C365.734 267.16 368.134 269.4 373.014 269.4C377.734 269.4 380.054 267.16 380.054 262.44V227H402.454V261.4C402.454 279.48 391.334 288.6 372.614 288.6C354.934 288.6 343.814 279.8 343.334 262.44ZM408.841 287V227H461.241V246.2H431.241V249.8H459.161V264.2H431.241V267.8H461.241V287H408.841ZM467.669 287V227H490.069V267.8H521.109V287H467.669ZM525.872 287V227H578.272V246.2H548.272V249.8H576.192V264.2H548.272V267.8H578.272V287H525.872ZM584.7 287V227H623.34C636.62 227 646.94 233.64 646.94 248.84C646.94 258.6 641.66 264.76 634.46 268.04L648.22 287H622.22L612.94 272.6H607.1V287H584.7ZM619.74 246.2H607.1V254.2H619.74C622.54 254.2 624.46 253.16 624.46 250.2C624.46 247.32 622.54 246.2 619.74 246.2Z" fill="white"/>
</svg>
