<svg width="648" height="55" viewBox="0 0 648 55" fill="none" xmlns="http://www.w3.org/2000/svg">
<path d="M155.062 39.0117V29.5717H143.286V39.0117H137.398V15.0117H143.286V24.4517H155.062V15.0117H160.95V39.0117H155.062ZM165.586 39.0117V15.0117H185.49V20.1317H171.474V24.6437H184.146V29.3797H171.474V33.8917H185.49V39.0117H165.586ZM190.085 39.0117V15.0117H195.973V33.8917H209.221V39.0117H190.085ZM213.179 39.0117V15.0117H219.067V24.4837H223.355L229.851 15.0117H236.699L228.315 26.4677L237.371 39.0117H230.171L223.483 29.4757H219.067V39.0117H213.179ZM239.114 39.0117L247.818 15.0117H256.842L265.546 39.0117H259.274L257.802 34.6277H246.826L245.386 39.0117H239.114ZM248.394 29.9237H256.234L253.034 20.3877H251.594L248.394 29.9237ZM279.336 39.0117V15.0117H299.24V20.1317H285.224V24.6437H297.896V29.3797H285.224V33.8917H299.24V39.0117H279.336ZM303.291 36.8357L305.275 31.6837C308.251 33.4437 312.315 34.6277 316.059 34.6277C318.971 34.6277 320.635 33.8597 320.635 32.8037C320.635 29.6997 304.059 30.0837 304.059 21.4757C304.059 17.2837 308.123 14.3077 315.227 14.3077C322.043 14.3077 325.755 17.3797 325.755 17.3797L323.163 21.8597C321.147 20.4837 317.563 19.4277 314.875 19.4277C311.995 19.4277 310.011 20.2917 310.011 21.6677C310.011 25.0277 326.651 24.3237 326.651 32.8677C326.651 36.1637 323.387 39.8437 315.835 39.8437C315.547 39.8437 315.259 39.8117 314.971 39.8117L314.779 40.3237C314.779 40.3237 318.875 40.4837 318.875 43.4917C318.875 45.3477 317.435 46.6277 314.011 46.6277C313.147 46.6277 312.187 46.5317 311.067 46.3717V43.5877C311.739 43.6517 312.347 43.6837 312.859 43.6837C314.395 43.6837 315.163 43.3637 315.163 42.8197C315.163 42.0197 313.787 41.9237 310.971 42.0197V40.8997L312.315 39.6197C306.875 38.9157 303.291 36.8357 303.291 36.8357ZM330.198 36.8357L332.182 31.6837C335.158 33.4117 339.222 34.6277 342.966 34.6277C345.878 34.6277 347.542 33.8597 347.542 32.8037C347.542 29.6997 330.966 30.0837 330.966 21.4757C330.966 17.2837 335.03 14.3077 342.134 14.3077C348.95 14.3077 352.662 17.3797 352.662 17.3797L350.07 21.8597C348.054 20.4837 344.47 19.4277 341.782 19.4277C338.902 19.4277 336.918 20.2917 336.918 21.6677C336.918 25.0277 353.558 24.3237 353.558 32.8677C353.558 36.1637 350.294 39.8437 342.742 39.8437C335.382 39.8437 330.198 36.8357 330.198 36.8357ZM358.576 11.1077C358.576 9.79572 359.536 8.93172 360.944 8.93172C362.32 8.93172 363.28 9.79572 363.28 11.1077C363.28 12.3877 362.32 13.2517 360.944 13.2517C359.536 13.2517 358.576 12.3877 358.576 11.1077ZM357.968 39.0117V15.0117H363.856V39.0117H357.968ZM369.38 20.1317V15.0117H389.796V18.3717L377.124 33.8917H389.796V39.0117H368.804V35.5877L381.54 20.1317H369.38ZM405.055 39.0117V15.0117H424.959V20.1317H410.943V24.6437H423.615V29.3797H410.943V33.8917H424.959V39.0117H405.055ZM428.114 15.0117H434.386L440.402 33.6357H441.586L447.634 15.0117H453.906L445.202 39.0117H436.818L428.114 15.0117ZM457.982 11.1077C457.982 9.79572 458.942 8.93172 460.35 8.93172C461.726 8.93172 462.686 9.79572 462.686 11.1077C462.686 12.3877 461.726 13.2517 460.35 13.2517C458.942 13.2517 457.982 12.3877 457.982 11.1077ZM457.374 39.0117V15.0117H463.262V39.0117H457.374Z" fill="white"/>
<rect x="1" y="1.01172" width="598" height="52" rx="26" stroke="white" stroke-width="2"/>
<path d="M573.498 0.0113954H572C572.506 -0.00395055 573.006 -0.00364562 573.498 0.0113954H821.5V54.0112H573.598C573.009 54.0452 572.473 54.0439 572 54.0112H573.598C579.016 53.6984 588.866 50.3929 595 41.0115C601.8 30.6115 598.5 19.0114 596 14.5114C593.596 10.0238 585.828 0.388406 573.498 0.0113954Z" fill="#F5F5F5"/>
</svg>
