<svg width="503" height="128" viewBox="0 0 503 128" fill="none" xmlns="http://www.w3.org/2000/svg">
<rect y="27" width="169" height="60" fill="white"/>
<g opacity="0.75">
<mask id="path-2-inside-1_435_44547" fill="white">
<path d="M186.76 48.36V105H169V48.36H186.76ZM177.8 43.64C175.88 43.64 174.253 43 172.92 41.72C171.64 40.3867 171 38.76 171 36.84C171 34.8667 171.64 33.2133 172.92 31.88C174.253 30.5467 175.88 29.88 177.8 29.88C179.827 29.88 181.48 30.5467 182.76 31.88C184.093 33.16 184.76 34.8133 184.76 36.84C184.76 38.76 184.093 40.3867 182.76 41.72C181.427 43 179.773 43.64 177.8 43.64ZM212.541 91.56H229.661V105H194.781V48.36H212.541V91.56ZM253.01 62.52V69.48H270.61V82.84H253.01V90.84H273.01V105H235.25V48.36H273.01V62.52H253.01ZM324.183 48.36V62.44H309.143V105H291.383V62.44H276.503V48.36H324.183ZM346.76 48.36V105H329V48.36H346.76ZM337.8 43.64C335.88 43.64 334.253 43 332.92 41.72C331.64 40.3867 331 38.76 331 36.84C331 34.8667 331.64 33.2133 332.92 31.88C334.253 30.5467 335.88 29.88 337.8 29.88C339.827 29.88 341.48 30.5467 342.76 31.88C344.093 33.16 344.76 34.8133 344.76 36.84C344.76 38.76 344.093 40.3867 342.76 41.72C341.427 43 339.773 43.64 337.8 43.64ZM398.541 87.48C398.541 92.12 397.048 96.04 394.061 99.24C391.128 102.44 387.021 104.44 381.741 105.24V107.72C383.235 107.72 384.781 108.013 386.381 108.6C387.981 109.24 389.341 110.28 390.461 111.72C391.581 113.213 392.141 115.133 392.141 117.48C392.141 120.947 390.941 123.427 388.541 124.92C386.141 126.467 383.341 127.24 380.141 127.24H366.301V118.2H378.301C378.941 118.2 379.448 118.067 379.821 117.8C380.195 117.587 380.381 117.293 380.381 116.92C380.381 116.12 379.688 115.72 378.301 115.72H371.501V105.16C366.168 104.36 361.848 102.413 358.541 99.32C355.235 96.2267 353.395 92.0667 353.021 86.84H371.901C372.168 90.0933 373.608 91.72 376.221 91.72C377.181 91.72 377.981 91.5067 378.621 91.08C379.315 90.6 379.661 89.88 379.661 88.92C379.661 87.5867 378.941 86.52 377.501 85.72C376.061 84.8667 373.821 83.9067 370.781 82.84C367.155 81.56 364.141 80.3067 361.741 79.08C359.395 77.8533 357.368 76.0667 355.661 73.72C353.955 71.3733 353.128 68.36 353.181 64.68C353.181 61 354.115 57.88 355.981 55.32C357.901 52.7067 360.488 50.7333 363.741 49.4C367.048 48.0667 370.755 47.4 374.861 47.4C381.795 47.4 387.288 49 391.341 52.2C395.448 55.4 397.608 59.9067 397.821 65.72H378.701C378.648 64.12 378.248 62.9733 377.501 62.28C376.755 61.5867 375.848 61.24 374.781 61.24C374.035 61.24 373.421 61.5067 372.941 62.04C372.461 62.52 372.221 63.2133 372.221 64.12C372.221 65.4 372.915 66.4667 374.301 67.32C375.741 68.12 378.008 69.1067 381.101 70.28C384.675 71.6133 387.608 72.8933 389.901 74.12C392.248 75.3467 394.275 77.0533 395.981 79.24C397.688 81.4267 398.541 84.1733 398.541 87.48ZM422.541 48.36V105H404.781V48.36H422.541ZM413.581 43.64C411.661 43.64 410.035 43 408.701 41.72C407.421 40.3867 406.781 38.76 406.781 36.84C406.781 34.8667 407.421 33.2133 408.701 31.88C410.035 30.5467 411.661 29.88 413.581 29.88C415.608 29.88 417.261 30.5467 418.541 31.88C419.875 33.16 420.541 34.8133 420.541 36.84C420.541 38.76 419.875 40.3867 418.541 41.72C417.208 43 415.555 43.64 413.581 43.64ZM498.643 48.36V105H480.963V76.76L472.243 105H457.043L448.323 76.76V105H430.563V48.36H452.323L464.803 82.36L476.963 48.36H498.643Z"/>
</mask>
<path d="M186.76 48.36H188.76V46.36H186.76V48.36ZM186.76 105V107H188.76V105H186.76ZM169 105H167V107H169V105ZM169 48.36V46.36H167V48.36H169ZM172.92 41.72L171.477 43.1051L171.505 43.1345L171.535 43.1628L172.92 41.72ZM172.92 31.88L171.506 30.4658L171.491 30.4802L171.477 30.4949L172.92 31.88ZM182.76 31.88L181.317 33.2651L181.345 33.2945L181.375 33.3228L182.76 31.88ZM182.76 41.72L184.145 43.1628L184.16 43.1486L184.174 43.1342L182.76 41.72ZM184.76 48.36V105H188.76V48.36H184.76ZM186.76 103H169V107H186.76V103ZM171 105V48.36H167V105H171ZM169 50.36H186.76V46.36H169V50.36ZM177.8 41.64C176.374 41.64 175.25 41.1846 174.305 40.2772L171.535 43.1628C173.256 44.8154 175.386 45.64 177.8 45.64V41.64ZM174.363 40.3349C173.455 39.3898 173 38.2659 173 36.84H169C169 39.2541 169.825 41.3835 171.477 43.1051L174.363 40.3349ZM173 36.84C173 35.3445 173.466 34.1991 174.363 33.2651L171.477 30.4949C169.814 32.2276 169 34.3888 169 36.84H173ZM174.334 33.2942C175.285 32.3436 176.4 31.88 177.8 31.88V27.88C175.36 27.88 173.222 28.7498 171.506 30.4658L174.334 33.2942ZM177.8 31.88C179.34 31.88 180.453 32.3647 181.317 33.2651L184.203 30.4949C182.507 28.7287 180.313 27.88 177.8 27.88V31.88ZM181.375 33.3228C182.275 34.1872 182.76 35.2997 182.76 36.84H186.76C186.76 34.3269 185.911 32.1328 184.145 30.4372L181.375 33.3228ZM182.76 36.84C182.76 38.2404 182.296 39.3551 181.346 40.3058L184.174 43.1342C185.89 41.4182 186.76 39.2796 186.76 36.84H182.76ZM181.375 40.2772C180.441 41.1739 179.295 41.64 177.8 41.64V45.64C180.251 45.64 182.412 44.8261 184.145 43.1628L181.375 40.2772ZM212.541 91.56H210.541V93.56H212.541V91.56ZM229.661 91.56H231.661V89.56H229.661V91.56ZM229.661 105V107H231.661V105H229.661ZM194.781 105H192.781V107H194.781V105ZM194.781 48.36V46.36H192.781V48.36H194.781ZM212.541 48.36H214.541V46.36H212.541V48.36ZM212.541 93.56H229.661V89.56H212.541V93.56ZM227.661 91.56V105H231.661V91.56H227.661ZM229.661 103H194.781V107H229.661V103ZM196.781 105V48.36H192.781V105H196.781ZM194.781 50.36H212.541V46.36H194.781V50.36ZM210.541 48.36V91.56H214.541V48.36H210.541ZM253.01 62.52V60.52H251.01V62.52H253.01ZM253.01 69.48H251.01V71.48H253.01V69.48ZM270.61 69.48H272.61V67.48H270.61V69.48ZM270.61 82.84V84.84H272.61V82.84H270.61ZM253.01 82.84V80.84H251.01V82.84H253.01ZM253.01 90.84H251.01V92.84H253.01V90.84ZM273.01 90.84H275.01V88.84H273.01V90.84ZM273.01 105V107H275.01V105H273.01ZM235.25 105H233.25V107H235.25V105ZM235.25 48.36V46.36H233.25V48.36H235.25ZM273.01 48.36H275.01V46.36H273.01V48.36ZM273.01 62.52V64.52H275.01V62.52H273.01ZM251.01 62.52V69.48H255.01V62.52H251.01ZM253.01 71.48H270.61V67.48H253.01V71.48ZM268.61 69.48V82.84H272.61V69.48H268.61ZM270.61 80.84H253.01V84.84H270.61V80.84ZM251.01 82.84V90.84H255.01V82.84H251.01ZM253.01 92.84H273.01V88.84H253.01V92.84ZM271.01 90.84V105H275.01V90.84H271.01ZM273.01 103H235.25V107H273.01V103ZM237.25 105V48.36H233.25V105H237.25ZM235.25 50.36H273.01V46.36H235.25V50.36ZM271.01 48.36V62.52H275.01V48.36H271.01ZM273.01 60.52H253.01V64.52H273.01V60.52ZM324.183 48.36H326.183V46.36H324.183V48.36ZM324.183 62.44V64.44H326.183V62.44H324.183ZM309.143 62.44V60.44H307.143V62.44H309.143ZM309.143 105V107H311.143V105H309.143ZM291.383 105H289.383V107H291.383V105ZM291.383 62.44H293.383V60.44H291.383V62.44ZM276.503 62.44H274.503V64.44H276.503V62.44ZM276.503 48.36V46.36H274.503V48.36H276.503ZM322.183 48.36V62.44H326.183V48.36H322.183ZM324.183 60.44H309.143V64.44H324.183V60.44ZM307.143 62.44V105H311.143V62.44H307.143ZM309.143 103H291.383V107H309.143V103ZM293.383 105V62.44H289.383V105H293.383ZM291.383 60.44H276.503V64.44H291.383V60.44ZM278.503 62.44V48.36H274.503V62.44H278.503ZM276.503 50.36H324.183V46.36H276.503V50.36ZM346.76 48.36H348.76V46.36H346.76V48.36ZM346.76 105V107H348.76V105H346.76ZM329 105H327V107H329V105ZM329 48.36V46.36H327V48.36H329ZM332.92 41.72L331.477 43.1051L331.505 43.1345L331.535 43.1628L332.92 41.72ZM332.92 31.88L331.506 30.4658L331.491 30.4802L331.477 30.4949L332.92 31.88ZM342.76 31.88L341.317 33.2651L341.345 33.2945L341.375 33.3228L342.76 31.88ZM342.76 41.72L344.145 43.1628L344.16 43.1486L344.174 43.1342L342.76 41.72ZM344.76 48.36V105H348.76V48.36H344.76ZM346.76 103H329V107H346.76V103ZM331 105V48.36H327V105H331ZM329 50.36H346.76V46.36H329V50.36ZM337.8 41.64C336.374 41.64 335.25 41.1846 334.305 40.2772L331.535 43.1628C333.256 44.8154 335.386 45.64 337.8 45.64V41.64ZM334.363 40.3349C333.455 39.3898 333 38.2659 333 36.84H329C329 39.2541 329.825 41.3835 331.477 43.1051L334.363 40.3349ZM333 36.84C333 35.3445 333.466 34.1991 334.363 33.2651L331.477 30.4949C329.814 32.2276 329 34.3888 329 36.84H333ZM334.334 33.2942C335.285 32.3436 336.4 31.88 337.8 31.88V27.88C335.36 27.88 333.222 28.7498 331.506 30.4658L334.334 33.2942ZM337.8 31.88C339.34 31.88 340.453 32.3647 341.317 33.2651L344.203 30.4949C342.507 28.7287 340.313 27.88 337.8 27.88V31.88ZM341.375 33.3228C342.275 34.1872 342.76 35.2997 342.76 36.84H346.76C346.76 34.3269 345.911 32.1328 344.145 30.4372L341.375 33.3228ZM342.76 36.84C342.76 38.2404 342.296 39.3551 341.346 40.3058L344.174 43.1342C345.89 41.4182 346.76 39.2796 346.76 36.84H342.76ZM341.375 40.2772C340.441 41.1739 339.295 41.64 337.8 41.64V45.64C340.251 45.64 342.412 44.8261 344.145 43.1628L341.375 40.2772ZM394.061 99.24L392.599 97.8754L392.593 97.8819L392.587 97.8885L394.061 99.24ZM381.741 105.24L381.442 103.263L379.741 103.52V105.24H381.741ZM381.741 107.72H379.741V109.72H381.741V107.72ZM386.381 108.6L387.124 106.743L387.097 106.732L387.07 106.722L386.381 108.6ZM390.461 111.72L392.061 110.52L392.051 110.506L392.04 110.492L390.461 111.72ZM388.541 124.92L387.485 123.222L387.471 123.23L387.458 123.239L388.541 124.92ZM366.301 127.24H364.301V129.24H366.301V127.24ZM366.301 118.2V116.2H364.301V118.2H366.301ZM379.821 117.8L378.829 116.064L378.741 116.114L378.659 116.173L379.821 117.8ZM371.501 115.72H369.501V117.72H371.501V115.72ZM371.501 105.16H373.501V103.438L371.798 103.182L371.501 105.16ZM358.541 99.32L357.175 100.781L358.541 99.32ZM353.021 86.84V84.84H350.873L351.026 86.9825L353.021 86.84ZM371.901 86.84L373.895 86.6766L373.744 84.84H371.901V86.84ZM378.621 91.08L379.731 92.7441L379.745 92.7344L379.76 92.7244L378.621 91.08ZM377.501 85.72L376.482 87.4406L376.506 87.4548L376.53 87.4683L377.501 85.72ZM370.781 82.84L370.116 84.726L370.119 84.7272L370.781 82.84ZM361.741 79.08L360.815 80.8525L360.823 80.8567L360.831 80.8609L361.741 79.08ZM355.661 73.72L357.279 72.5437L355.661 73.72ZM353.181 64.68L355.181 64.709L355.181 64.6945V64.68H353.181ZM355.981 55.32L354.369 54.1358L354.365 54.1417L355.981 55.32ZM363.741 49.4L362.993 47.5451L362.983 47.5494L363.741 49.4ZM391.341 52.2L390.102 53.7698L390.112 53.7776L391.341 52.2ZM397.821 65.72V67.72H399.896L399.82 65.6467L397.821 65.72ZM378.701 65.72L376.702 65.7866L376.767 67.72H378.701V65.72ZM372.941 62.04L374.355 63.4542L374.393 63.417L374.428 63.3779L372.941 62.04ZM374.301 67.32L373.253 69.0233L373.291 69.0467L373.33 69.0683L374.301 67.32ZM381.101 70.28L380.392 72.15L380.402 72.1538L381.101 70.28ZM389.901 74.12L388.958 75.8836L388.966 75.8881L388.975 75.8925L389.901 74.12ZM395.981 79.24L394.405 80.4705L395.981 79.24ZM396.541 87.48C396.541 91.6468 395.218 95.0694 392.599 97.8754L395.523 100.605C398.878 97.0106 400.541 92.5932 400.541 87.48H396.541ZM392.587 97.8885C390.028 100.68 386.377 102.515 381.442 103.263L382.041 107.217C387.665 106.365 392.228 104.2 395.536 100.591L392.587 97.8885ZM379.741 105.24V107.72H383.741V105.24H379.741ZM381.741 109.72C382.969 109.72 384.283 109.961 385.693 110.478L387.07 106.722C385.28 106.066 383.5 105.72 381.741 105.72V109.72ZM385.638 110.457C386.889 110.957 387.967 111.771 388.883 112.948L392.04 110.492C390.715 108.789 389.073 107.523 387.124 106.743L385.638 110.457ZM388.861 112.92C389.661 113.987 390.141 115.453 390.141 117.48H394.141C394.141 114.813 393.501 112.44 392.061 110.52L388.861 112.92ZM390.141 117.48C390.141 120.436 389.159 122.18 387.485 123.222L389.598 126.618C392.723 124.673 394.141 121.457 394.141 117.48H390.141ZM387.458 123.239C385.419 124.553 383.005 125.24 380.141 125.24V129.24C383.678 129.24 386.864 128.38 389.625 126.601L387.458 123.239ZM380.141 125.24H366.301V129.24H380.141V125.24ZM368.301 127.24V118.2H364.301V127.24H368.301ZM366.301 120.2H378.301V116.2H366.301V120.2ZM378.301 120.2C379.198 120.2 380.161 120.015 380.984 119.427L378.659 116.173C378.735 116.118 378.684 116.2 378.301 116.2V120.2ZM380.814 119.536C381.697 119.032 382.381 118.133 382.381 116.92H378.381C378.381 116.756 378.428 116.544 378.554 116.346C378.672 116.161 378.799 116.08 378.829 116.064L380.814 119.536ZM382.381 116.92C382.381 115.805 381.826 114.845 380.861 114.288C380.062 113.827 379.121 113.72 378.301 113.72V117.72C378.558 117.72 378.729 117.739 378.834 117.759C378.941 117.78 378.932 117.793 378.862 117.752C378.779 117.704 378.634 117.594 378.52 117.396C378.405 117.197 378.381 117.016 378.381 116.92H382.381ZM378.301 113.72H371.501V117.72H378.301V113.72ZM373.501 115.72V105.16H369.501V115.72H373.501ZM371.798 103.182C366.787 102.431 362.865 100.627 359.908 97.8595L357.175 100.781C360.83 104.2 365.549 106.289 371.205 107.138L371.798 103.182ZM359.908 97.8595C357.027 95.1644 355.36 91.5059 355.016 86.6975L351.026 86.9825C351.43 92.6274 353.443 97.2889 357.175 100.781L359.908 97.8595ZM353.021 88.84H371.901V84.84H353.021V88.84ZM369.908 87.0034C370.06 88.8553 370.565 90.5624 371.684 91.8257C372.86 93.1544 374.469 93.72 376.221 93.72V89.72C375.36 89.72 374.943 89.4723 374.679 89.1743C374.357 88.811 374.009 88.0781 373.895 86.6766L369.908 87.0034ZM376.221 93.72C377.478 93.72 378.689 93.4386 379.731 92.7441L377.512 89.4159C377.274 89.5748 376.885 89.72 376.221 89.72V93.72ZM379.76 92.7244C381.074 91.8146 381.661 90.4309 381.661 88.92H377.661C377.661 89.1593 377.619 89.2721 377.599 89.3124C377.585 89.343 377.561 89.3814 377.483 89.4356L379.76 92.7244ZM381.661 88.92C381.661 86.679 380.371 85.0266 378.473 83.9717L376.53 87.4683C377.511 88.0134 377.661 88.4943 377.661 88.92H381.661ZM378.521 83.9994C376.907 83.0429 374.516 82.0309 371.443 80.9528L370.119 84.7272C373.126 85.7824 375.216 86.6904 376.482 87.4406L378.521 83.9994ZM371.447 80.954C367.872 79.6922 364.947 78.4724 362.651 77.2991L360.831 80.8609C363.336 82.141 366.437 83.4278 370.116 84.726L371.447 80.954ZM362.668 77.3075C360.62 76.237 358.822 74.6653 357.279 72.5437L354.044 74.8963C355.914 77.468 358.169 79.4697 360.815 80.8525L362.668 77.3075ZM357.279 72.5437C355.888 70.6311 355.132 68.0737 355.181 64.709L351.181 64.651C351.124 68.6463 352.021 72.1156 354.044 74.8963L357.279 72.5437ZM355.181 64.68C355.181 61.3527 356.019 58.663 357.597 56.4983L354.365 54.1417C352.21 57.097 351.181 60.6473 351.181 64.68H355.181ZM357.593 56.5041C359.277 54.2121 361.557 52.4566 364.5 51.2506L362.983 47.5494C359.419 49.01 356.525 51.2013 354.369 54.1358L357.593 56.5041ZM364.489 51.2549C367.525 50.0308 370.972 49.4 374.861 49.4V45.4C370.537 45.4 366.571 46.1025 362.993 47.5451L364.489 51.2549ZM374.861 49.4C381.498 49.4 386.506 50.9306 390.102 53.7698L392.581 50.6302C388.07 47.0694 382.091 45.4 374.861 45.4V49.4ZM390.112 53.7776C393.694 56.569 395.628 60.4924 395.823 65.7933L399.82 65.6467C399.588 59.3209 397.202 54.231 392.571 50.6224L390.112 53.7776ZM397.821 63.72H378.701V67.72H397.821V63.72ZM380.7 65.6534C380.639 63.816 380.173 62.0314 378.862 60.8144L376.14 63.7456C376.323 63.9153 376.657 64.424 376.702 65.7866L380.7 65.6534ZM378.862 60.8144C377.727 59.7603 376.327 59.24 374.781 59.24V63.24C375.369 63.24 375.782 63.4131 376.14 63.7456L378.862 60.8144ZM374.781 59.24C373.494 59.24 372.331 59.7283 371.455 60.7021L374.428 63.3779C374.511 63.2851 374.575 63.24 374.781 63.24V59.24ZM371.527 60.6258C370.559 61.5934 370.221 62.8667 370.221 64.12H374.221C374.221 63.8389 374.259 63.6675 374.291 63.5742C374.32 63.4901 374.346 63.4632 374.355 63.4542L371.527 60.6258ZM370.221 64.12C370.221 66.2862 371.459 67.9193 373.253 69.0233L375.349 65.6167C374.37 65.0141 374.221 64.5138 374.221 64.12H370.221ZM373.33 69.0683C374.901 69.9414 377.279 70.9693 380.392 72.15L381.811 68.41C378.737 67.244 376.581 66.2986 375.273 65.5717L373.33 69.0683ZM380.402 72.1538C383.926 73.4689 386.771 74.7135 388.958 75.8836L390.845 72.3564C388.445 71.0731 385.423 69.7578 381.8 68.4062L380.402 72.1538ZM388.975 75.8925C391.057 76.9806 392.865 78.4979 394.405 80.4705L397.558 78.0095C395.684 75.6088 393.439 73.7127 390.828 72.3475L388.975 75.8925ZM394.405 80.4705C395.787 82.2416 396.541 84.5305 396.541 87.48H400.541C400.541 83.8161 399.589 80.6117 397.558 78.0095L394.405 80.4705ZM422.541 48.36H424.541V46.36H422.541V48.36ZM422.541 105V107H424.541V105H422.541ZM404.781 105H402.781V107H404.781V105ZM404.781 48.36V46.36H402.781V48.36H404.781ZM408.701 41.72L407.258 43.1051L407.287 43.1345L407.316 43.1628L408.701 41.72ZM408.701 31.88L407.287 30.4658L407.273 30.4802L407.258 30.4949L408.701 31.88ZM418.541 31.88L417.098 33.2651L417.127 33.2945L417.156 33.3228L418.541 31.88ZM418.541 41.72L419.926 43.1628L419.941 43.1486L419.955 43.1342L418.541 41.72ZM420.541 48.36V105H424.541V48.36H420.541ZM422.541 103H404.781V107H422.541V103ZM406.781 105V48.36H402.781V105H406.781ZM404.781 50.36H422.541V46.36H404.781V50.36ZM413.581 41.64C412.155 41.64 411.031 41.1846 410.086 40.2772L407.316 43.1628C409.038 44.8154 411.167 45.64 413.581 45.64V41.64ZM410.144 40.3349C409.237 39.3898 408.781 38.2659 408.781 36.84H404.781C404.781 39.2541 405.606 41.3835 407.258 43.1051L410.144 40.3349ZM408.781 36.84C408.781 35.3445 409.247 34.1991 410.144 33.2651L407.258 30.4949C405.595 32.2276 404.781 34.3888 404.781 36.84H408.781ZM410.115 33.2942C411.066 32.3436 412.181 31.88 413.581 31.88V27.88C411.142 27.88 409.003 28.7498 407.287 30.4658L410.115 33.2942ZM413.581 31.88C415.122 31.88 416.234 32.3647 417.098 33.2651L419.984 30.4949C418.288 28.7287 416.094 27.88 413.581 27.88V31.88ZM417.156 33.3228C418.057 34.1872 418.541 35.2997 418.541 36.84H422.541C422.541 34.3269 421.693 32.1328 419.926 30.4372L417.156 33.3228ZM418.541 36.84C418.541 38.2404 418.078 39.3551 417.127 40.3058L419.955 43.1342C421.671 41.4182 422.541 39.2796 422.541 36.84H418.541ZM417.156 40.2772C416.222 41.1739 415.077 41.64 413.581 41.64V45.64C416.032 45.64 418.194 44.8261 419.926 43.1628L417.156 40.2772ZM498.643 48.36H500.643V46.36H498.643V48.36ZM498.643 105V107H500.643V105H498.643ZM480.962 105H478.962V107H480.962V105ZM480.962 76.76H482.962L479.052 76.1699L480.962 76.76ZM472.242 105V107H473.718L474.153 105.59L472.242 105ZM457.043 105L455.132 105.59L455.567 107H457.043V105ZM448.323 76.76L450.233 76.1699L446.323 76.76H448.323ZM448.323 105V107H450.323V105H448.323ZM430.562 105H428.562V107H430.562V105ZM430.562 48.36V46.36H428.562V48.36H430.562ZM452.323 48.36L454.2 47.6708L453.719 46.36H452.323V48.36ZM464.802 82.36L462.925 83.0492L464.827 88.2307L466.686 83.0335L464.802 82.36ZM476.962 48.36V46.36H475.554L475.079 47.6865L476.962 48.36ZM496.643 48.36V105H500.643V48.36H496.643ZM498.643 103H480.962V107H498.643V103ZM482.962 105V76.76H478.962V105H482.962ZM479.052 76.1699L470.332 104.41L474.153 105.59L482.873 77.3501L479.052 76.1699ZM472.242 103H457.043V107H472.242V103ZM458.953 104.41L450.233 76.1699L446.412 77.3501L455.132 105.59L458.953 104.41ZM446.323 76.76V105H450.323V76.76H446.323ZM448.323 103H430.562V107H448.323V103ZM432.562 105V48.36H428.562V105H432.562ZM430.562 50.36H452.323V46.36H430.562V50.36ZM450.445 49.0492L462.925 83.0492L466.68 81.6708L454.2 47.6708L450.445 49.0492ZM466.686 83.0335L478.846 49.0335L475.079 47.6865L462.919 81.6865L466.686 83.0335ZM476.962 50.36H498.643V46.36H476.962V50.36Z" fill="white" mask="url(#path-2-inside-1_435_44547)"/>
</g>
<g opacity="0.75">
<mask id="path-4-inside-2_435_44547" fill="white">
<path d="M186.76 21.36V78H169V21.36H186.76ZM177.8 16.64C175.88 16.64 174.253 16 172.92 14.72C171.64 13.3867 171 11.76 171 9.84C171 7.86666 171.64 6.21333 172.92 4.88C174.253 3.54666 175.88 2.87999 177.8 2.87999C179.827 2.87999 181.48 3.54666 182.76 4.88C184.093 6.16 184.76 7.81333 184.76 9.84C184.76 11.76 184.093 13.3867 182.76 14.72C181.427 16 179.773 16.64 177.8 16.64ZM212.541 64.56H229.661V78H194.781V21.36H212.541V64.56ZM253.01 35.52V42.48H270.61V55.84H253.01V63.84H273.01V78H235.25V21.36H273.01V35.52H253.01ZM324.183 21.36V35.44H309.143V78H291.383V35.44H276.503V21.36H324.183ZM346.76 21.36V78H329V21.36H346.76ZM337.8 16.64C335.88 16.64 334.253 16 332.92 14.72C331.64 13.3867 331 11.76 331 9.84C331 7.86666 331.64 6.21333 332.92 4.88C334.253 3.54666 335.88 2.87999 337.8 2.87999C339.827 2.87999 341.48 3.54666 342.76 4.88C344.093 6.16 344.76 7.81333 344.76 9.84C344.76 11.76 344.093 13.3867 342.76 14.72C341.427 16 339.773 16.64 337.8 16.64ZM398.541 60.48C398.541 65.12 397.048 69.04 394.061 72.24C391.128 75.44 387.021 77.44 381.741 78.24V80.72C383.235 80.72 384.781 81.0133 386.381 81.6C387.981 82.24 389.341 83.28 390.461 84.72C391.581 86.2133 392.141 88.1333 392.141 90.48C392.141 93.9467 390.941 96.4267 388.541 97.92C386.141 99.4667 383.341 100.24 380.141 100.24H366.301V91.2H378.301C378.941 91.2 379.448 91.0667 379.821 90.8C380.195 90.5867 380.381 90.2933 380.381 89.92C380.381 89.12 379.688 88.72 378.301 88.72H371.501V78.16C366.168 77.36 361.848 75.4133 358.541 72.32C355.235 69.2267 353.395 65.0667 353.021 59.84H371.901C372.168 63.0933 373.608 64.72 376.221 64.72C377.181 64.72 377.981 64.5067 378.621 64.08C379.315 63.6 379.661 62.88 379.661 61.92C379.661 60.5867 378.941 59.52 377.501 58.72C376.061 57.8667 373.821 56.9067 370.781 55.84C367.155 54.56 364.141 53.3067 361.741 52.08C359.395 50.8533 357.368 49.0667 355.661 46.72C353.955 44.3733 353.128 41.36 353.181 37.68C353.181 34 354.115 30.88 355.981 28.32C357.901 25.7067 360.488 23.7333 363.741 22.4C367.048 21.0667 370.755 20.4 374.861 20.4C381.795 20.4 387.288 22 391.341 25.2C395.448 28.4 397.608 32.9067 397.821 38.72H378.701C378.648 37.12 378.248 35.9733 377.501 35.28C376.755 34.5867 375.848 34.24 374.781 34.24C374.035 34.24 373.421 34.5067 372.941 35.04C372.461 35.52 372.221 36.2133 372.221 37.12C372.221 38.4 372.915 39.4667 374.301 40.32C375.741 41.12 378.008 42.1067 381.101 43.28C384.675 44.6133 387.608 45.8933 389.901 47.12C392.248 48.3467 394.275 50.0533 395.981 52.24C397.688 54.4267 398.541 57.1733 398.541 60.48ZM422.541 21.36V78H404.781V21.36H422.541ZM413.581 16.64C411.661 16.64 410.035 16 408.701 14.72C407.421 13.3867 406.781 11.76 406.781 9.84C406.781 7.86666 407.421 6.21333 408.701 4.88C410.035 3.54666 411.661 2.87999 413.581 2.87999C415.608 2.87999 417.261 3.54666 418.541 4.88C419.875 6.16 420.541 7.81333 420.541 9.84C420.541 11.76 419.875 13.3867 418.541 14.72C417.208 16 415.555 16.64 413.581 16.64ZM498.643 21.36V78H480.963V49.76L472.243 78H457.043L448.323 49.76V78H430.563V21.36H452.323L464.803 55.36L476.963 21.36H498.643Z"/>
</mask>
<path d="M186.76 21.36H188.76V19.36H186.76V21.36ZM186.76 78V80H188.76V78H186.76ZM169 78H167V80H169V78ZM169 21.36V19.36H167V21.36H169ZM172.92 14.72L171.477 16.1051L171.505 16.1345L171.535 16.1628L172.92 14.72ZM172.92 4.88L171.506 3.46578L171.491 3.48021L171.477 3.49493L172.92 4.88ZM182.76 4.88L181.317 6.26506L181.345 6.29451L181.375 6.32277L182.76 4.88ZM182.76 14.72L184.145 16.1628L184.16 16.1486L184.174 16.1342L182.76 14.72ZM184.76 21.36V78H188.76V21.36H184.76ZM186.76 76H169V80H186.76V76ZM171 78V21.36H167V78H171ZM169 23.36H186.76V19.36H169V23.36ZM177.8 14.64C176.374 14.64 175.25 14.1846 174.305 13.2772L171.535 16.1628C173.256 17.8154 175.386 18.64 177.8 18.64V14.64ZM174.363 13.3349C173.455 12.3898 173 11.2659 173 9.84H169C169 12.2541 169.825 14.3835 171.477 16.1051L174.363 13.3349ZM173 9.84C173 8.34451 173.466 7.19909 174.363 6.26506L171.477 3.49493C169.814 5.22757 169 7.38881 169 9.84H173ZM174.334 6.29421C175.285 5.34355 176.4 4.87999 177.8 4.87999V0.879994C175.36 0.879994 173.222 1.74977 171.506 3.46578L174.334 6.29421ZM177.8 4.87999C179.34 4.87999 180.453 5.36466 181.317 6.26506L184.203 3.49493C182.507 1.72866 180.313 0.879994 177.8 0.879994V4.87999ZM181.375 6.32277C182.275 7.18715 182.76 8.29975 182.76 9.84H186.76C186.76 7.32691 185.911 5.13284 184.145 3.43722L181.375 6.32277ZM182.76 9.84C182.76 11.2404 182.296 12.3551 181.346 13.3058L184.174 16.1342C185.89 14.4182 186.76 12.2796 186.76 9.84H182.76ZM181.375 13.2772C180.441 14.1739 179.295 14.64 177.8 14.64V18.64C180.251 18.64 182.412 17.8261 184.145 16.1628L181.375 13.2772ZM212.541 64.56H210.541V66.56H212.541V64.56ZM229.661 64.56H231.661V62.56H229.661V64.56ZM229.661 78V80H231.661V78H229.661ZM194.781 78H192.781V80H194.781V78ZM194.781 21.36V19.36H192.781V21.36H194.781ZM212.541 21.36H214.541V19.36H212.541V21.36ZM212.541 66.56H229.661V62.56H212.541V66.56ZM227.661 64.56V78H231.661V64.56H227.661ZM229.661 76H194.781V80H229.661V76ZM196.781 78V21.36H192.781V78H196.781ZM194.781 23.36H212.541V19.36H194.781V23.36ZM210.541 21.36V64.56H214.541V21.36H210.541ZM253.01 35.52V33.52H251.01V35.52H253.01ZM253.01 42.48H251.01V44.48H253.01V42.48ZM270.61 42.48H272.61V40.48H270.61V42.48ZM270.61 55.84V57.84H272.61V55.84H270.61ZM253.01 55.84V53.84H251.01V55.84H253.01ZM253.01 63.84H251.01V65.84H253.01V63.84ZM273.01 63.84H275.01V61.84H273.01V63.84ZM273.01 78V80H275.01V78H273.01ZM235.25 78H233.25V80H235.25V78ZM235.25 21.36V19.36H233.25V21.36H235.25ZM273.01 21.36H275.01V19.36H273.01V21.36ZM273.01 35.52V37.52H275.01V35.52H273.01ZM251.01 35.52V42.48H255.01V35.52H251.01ZM253.01 44.48H270.61V40.48H253.01V44.48ZM268.61 42.48V55.84H272.61V42.48H268.61ZM270.61 53.84H253.01V57.84H270.61V53.84ZM251.01 55.84V63.84H255.01V55.84H251.01ZM253.01 65.84H273.01V61.84H253.01V65.84ZM271.01 63.84V78H275.01V63.84H271.01ZM273.01 76H235.25V80H273.01V76ZM237.25 78V21.36H233.25V78H237.25ZM235.25 23.36H273.01V19.36H235.25V23.36ZM271.01 21.36V35.52H275.01V21.36H271.01ZM273.01 33.52H253.01V37.52H273.01V33.52ZM324.183 21.36H326.183V19.36H324.183V21.36ZM324.183 35.44V37.44H326.183V35.44H324.183ZM309.143 35.44V33.44H307.143V35.44H309.143ZM309.143 78V80H311.143V78H309.143ZM291.383 78H289.383V80H291.383V78ZM291.383 35.44H293.383V33.44H291.383V35.44ZM276.503 35.44H274.503V37.44H276.503V35.44ZM276.503 21.36V19.36H274.503V21.36H276.503ZM322.183 21.36V35.44H326.183V21.36H322.183ZM324.183 33.44H309.143V37.44H324.183V33.44ZM307.143 35.44V78H311.143V35.44H307.143ZM309.143 76H291.383V80H309.143V76ZM293.383 78V35.44H289.383V78H293.383ZM291.383 33.44H276.503V37.44H291.383V33.44ZM278.503 35.44V21.36H274.503V35.44H278.503ZM276.503 23.36H324.183V19.36H276.503V23.36ZM346.76 21.36H348.76V19.36H346.76V21.36ZM346.76 78V80H348.76V78H346.76ZM329 78H327V80H329V78ZM329 21.36V19.36H327V21.36H329ZM332.92 14.72L331.477 16.1051L331.505 16.1345L331.535 16.1628L332.92 14.72ZM332.92 4.88L331.506 3.46578L331.491 3.48021L331.477 3.49493L332.92 4.88ZM342.76 4.88L341.317 6.26506L341.345 6.29451L341.375 6.32277L342.76 4.88ZM342.76 14.72L344.145 16.1628L344.16 16.1486L344.174 16.1342L342.76 14.72ZM344.76 21.36V78H348.76V21.36H344.76ZM346.76 76H329V80H346.76V76ZM331 78V21.36H327V78H331ZM329 23.36H346.76V19.36H329V23.36ZM337.8 14.64C336.374 14.64 335.25 14.1846 334.305 13.2772L331.535 16.1628C333.256 17.8154 335.386 18.64 337.8 18.64V14.64ZM334.363 13.3349C333.455 12.3898 333 11.2659 333 9.84H329C329 12.2541 329.825 14.3835 331.477 16.1051L334.363 13.3349ZM333 9.84C333 8.34451 333.466 7.19909 334.363 6.26506L331.477 3.49493C329.814 5.22757 329 7.38881 329 9.84H333ZM334.334 6.29421C335.285 5.34355 336.4 4.87999 337.8 4.87999V0.879994C335.36 0.879994 333.222 1.74977 331.506 3.46578L334.334 6.29421ZM337.8 4.87999C339.34 4.87999 340.453 5.36466 341.317 6.26506L344.203 3.49493C342.507 1.72866 340.313 0.879994 337.8 0.879994V4.87999ZM341.375 6.32277C342.275 7.18715 342.76 8.29975 342.76 9.84H346.76C346.76 7.32691 345.911 5.13284 344.145 3.43722L341.375 6.32277ZM342.76 9.84C342.76 11.2404 342.296 12.3551 341.346 13.3058L344.174 16.1342C345.89 14.4182 346.76 12.2796 346.76 9.84H342.76ZM341.375 13.2772C340.441 14.1739 339.295 14.64 337.8 14.64V18.64C340.251 18.64 342.412 17.8261 344.145 16.1628L341.375 13.2772ZM394.061 72.24L392.599 70.8754L392.593 70.8819L392.587 70.8885L394.061 72.24ZM381.741 78.24L381.442 76.2626L379.741 76.5202V78.24H381.741ZM381.741 80.72H379.741V82.72H381.741V80.72ZM386.381 81.6L387.124 79.743L387.097 79.7323L387.07 79.7222L386.381 81.6ZM390.461 84.72L392.061 83.52L392.051 83.506L392.04 83.4921L390.461 84.72ZM388.541 97.92L387.485 96.2219L387.471 96.2303L387.458 96.2389L388.541 97.92ZM366.301 100.24H364.301V102.24H366.301V100.24ZM366.301 91.2V89.2H364.301V91.2H366.301ZM379.821 90.8L378.829 89.0635L378.741 89.1137L378.659 89.1725L379.821 90.8ZM371.501 88.72H369.501V90.72H371.501V88.72ZM371.501 78.16H373.501V76.4376L371.798 76.1821L371.501 78.16ZM358.541 72.32L357.175 73.7805L358.541 72.32ZM353.021 59.84V57.84H350.873L351.026 59.9825L353.021 59.84ZM371.901 59.84L373.895 59.6766L373.744 57.84H371.901V59.84ZM378.621 64.08L379.731 65.7441L379.745 65.7344L379.76 65.7244L378.621 64.08ZM377.501 58.72L376.482 60.4406L376.506 60.4548L376.53 60.4683L377.501 58.72ZM370.781 55.84L370.116 57.726L370.119 57.7272L370.781 55.84ZM361.741 52.08L360.815 53.8525L360.823 53.8567L360.831 53.8609L361.741 52.08ZM355.661 46.72L357.279 45.5437L355.661 46.72ZM353.181 37.68L355.181 37.709L355.181 37.6945V37.68H353.181ZM355.981 28.32L354.369 27.1358L354.365 27.1417L355.981 28.32ZM363.741 22.4L362.993 20.5451L362.983 20.5494L363.741 22.4ZM391.341 25.2L390.102 26.7698L390.112 26.7776L391.341 25.2ZM397.821 38.72V40.72H399.896L399.82 38.6467L397.821 38.72ZM378.701 38.72L376.702 38.7866L376.767 40.72H378.701V38.72ZM372.941 35.04L374.355 36.4542L374.393 36.417L374.428 36.3779L372.941 35.04ZM374.301 40.32L373.253 42.0233L373.291 42.0467L373.33 42.0683L374.301 40.32ZM381.101 43.28L380.392 45.15L380.402 45.1538L381.101 43.28ZM389.901 47.12L388.958 48.8836L388.966 48.8881L388.975 48.8925L389.901 47.12ZM395.981 52.24L394.405 53.4705L395.981 52.24ZM396.541 60.48C396.541 64.6468 395.218 68.0694 392.599 70.8754L395.523 73.6046C398.878 70.0106 400.541 65.5932 400.541 60.48H396.541ZM392.587 70.8885C390.028 73.6799 386.377 75.5148 381.442 76.2626L382.041 80.2174C387.665 79.3652 392.228 77.2001 395.536 73.5914L392.587 70.8885ZM379.741 78.24V80.72H383.741V78.24H379.741ZM381.741 82.72C382.969 82.72 384.283 82.9607 385.693 83.4778L387.07 79.7222C385.28 79.066 383.5 78.72 381.741 78.72V82.72ZM385.638 83.457C386.889 83.9573 387.967 84.771 388.883 85.9479L392.04 83.4921C390.715 81.789 389.073 80.5227 387.124 79.743L385.638 83.457ZM388.861 85.92C389.661 86.9867 390.141 88.4533 390.141 90.48H394.141C394.141 87.8133 393.501 85.44 392.061 83.52L388.861 85.92ZM390.141 90.48C390.141 93.4365 389.159 95.1799 387.485 96.2219L389.598 99.6181C392.723 97.6734 394.141 94.4569 394.141 90.48H390.141ZM387.458 96.2389C385.419 97.5529 383.005 98.24 380.141 98.24V102.24C383.678 102.24 386.864 101.38 389.625 99.6011L387.458 96.2389ZM380.141 98.24H366.301V102.24H380.141V98.24ZM368.301 100.24V91.2H364.301V100.24H368.301ZM366.301 93.2H378.301V89.2H366.301V93.2ZM378.301 93.2C379.198 93.2 380.161 93.0152 380.984 92.4275L378.659 89.1725C378.735 89.1181 378.684 89.2 378.301 89.2V93.2ZM380.814 92.5365C381.697 92.0318 382.381 91.1327 382.381 89.92H378.381C378.381 89.7556 378.428 89.5443 378.554 89.3463C378.672 89.1614 378.799 89.0805 378.829 89.0635L380.814 92.5365ZM382.381 89.92C382.381 88.8047 381.826 87.8446 380.861 87.2876C380.062 86.8268 379.121 86.72 378.301 86.72V90.72C378.558 90.72 378.729 90.739 378.834 90.759C378.941 90.7797 378.932 90.7931 378.862 90.7524C378.779 90.7045 378.634 90.594 378.52 90.3956C378.405 90.1971 378.381 90.0163 378.381 89.92H382.381ZM378.301 86.72H371.501V90.72H378.301V86.72ZM373.501 88.72V78.16H369.501V88.72H373.501ZM371.798 76.1821C366.787 75.4305 362.865 73.6265 359.908 70.8595L357.175 73.7805C360.83 77.2002 365.549 79.2895 371.205 80.1379L371.798 76.1821ZM359.908 70.8595C357.027 68.1644 355.36 64.5059 355.016 59.6975L351.026 59.9825C351.43 65.6274 353.443 70.2889 357.175 73.7805L359.908 70.8595ZM353.021 61.84H371.901V57.84H353.021V61.84ZM369.908 60.0034C370.06 61.8553 370.565 63.5624 371.684 64.8257C372.86 66.1544 374.469 66.72 376.221 66.72V62.72C375.36 62.72 374.943 62.4723 374.679 62.1743C374.357 61.811 374.009 61.0781 373.895 59.6766L369.908 60.0034ZM376.221 66.72C377.478 66.72 378.689 66.4386 379.731 65.7441L377.512 62.4159C377.274 62.5748 376.885 62.72 376.221 62.72V66.72ZM379.76 65.7244C381.074 64.8146 381.661 63.4309 381.661 61.92H377.661C377.661 62.1593 377.619 62.2721 377.599 62.3124C377.585 62.343 377.561 62.3814 377.483 62.4356L379.76 65.7244ZM381.661 61.92C381.661 59.679 380.371 58.0266 378.473 56.9717L376.53 60.4683C377.511 61.0134 377.661 61.4943 377.661 61.92H381.661ZM378.521 56.9994C376.907 56.0429 374.516 55.0309 371.443 53.9528L370.119 57.7272C373.126 58.7824 375.216 59.6904 376.482 60.4406L378.521 56.9994ZM371.447 53.954C367.872 52.6922 364.947 51.4724 362.651 50.2991L360.831 53.8609C363.336 55.141 366.437 56.4278 370.116 57.726L371.447 53.954ZM362.668 50.3075C360.62 49.237 358.822 47.6653 357.279 45.5437L354.044 47.8963C355.914 50.468 358.169 52.4697 360.815 53.8525L362.668 50.3075ZM357.279 45.5437C355.888 43.6311 355.132 41.0737 355.181 37.709L351.181 37.651C351.124 41.6463 352.021 45.1156 354.044 47.8963L357.279 45.5437ZM355.181 37.68C355.181 34.3527 356.019 31.663 357.597 29.4983L354.365 27.1417C352.21 30.097 351.181 33.6473 351.181 37.68H355.181ZM357.593 29.5041C359.277 27.2121 361.557 25.4566 364.5 24.2506L362.983 20.5494C359.419 22.01 356.525 24.2013 354.369 27.1358L357.593 29.5041ZM364.489 24.2549C367.525 23.0308 370.972 22.4 374.861 22.4V18.4C370.537 18.4 366.571 19.1025 362.993 20.5451L364.489 24.2549ZM374.861 22.4C381.498 22.4 386.506 23.9306 390.102 26.7698L392.581 23.6302C388.07 20.0694 382.091 18.4 374.861 18.4V22.4ZM390.112 26.7776C393.694 29.569 395.628 33.4924 395.823 38.7933L399.82 38.6467C399.588 32.3209 397.202 27.231 392.571 23.6224L390.112 26.7776ZM397.821 36.72H378.701V40.72H397.821V36.72ZM380.7 38.6534C380.639 36.816 380.173 35.0314 378.862 33.8144L376.14 36.7456C376.323 36.9153 376.657 37.424 376.702 38.7866L380.7 38.6534ZM378.862 33.8144C377.727 32.7603 376.327 32.24 374.781 32.24V36.24C375.369 36.24 375.782 36.4131 376.14 36.7456L378.862 33.8144ZM374.781 32.24C373.494 32.24 372.331 32.7283 371.455 33.7021L374.428 36.3779C374.511 36.2851 374.575 36.24 374.781 36.24V32.24ZM371.527 33.6258C370.559 34.5934 370.221 35.8667 370.221 37.12H374.221C374.221 36.8389 374.259 36.6675 374.291 36.5742C374.32 36.4901 374.346 36.4632 374.355 36.4542L371.527 33.6258ZM370.221 37.12C370.221 39.2862 371.459 40.9193 373.253 42.0233L375.349 38.6167C374.37 38.0141 374.221 37.5138 374.221 37.12H370.221ZM373.33 42.0683C374.901 42.9414 377.279 43.9693 380.392 45.15L381.811 41.41C378.737 40.244 376.581 39.2986 375.273 38.5717L373.33 42.0683ZM380.402 45.1538C383.926 46.4689 386.771 47.7135 388.958 48.8836L390.845 45.3564C388.445 44.0731 385.423 42.7578 381.8 41.4062L380.402 45.1538ZM388.975 48.8925C391.057 49.9806 392.865 51.4979 394.405 53.4705L397.558 51.0095C395.684 48.6088 393.439 46.7127 390.828 45.3475L388.975 48.8925ZM394.405 53.4705C395.787 55.2416 396.541 57.5305 396.541 60.48H400.541C400.541 56.8161 399.589 53.6117 397.558 51.0095L394.405 53.4705ZM422.541 21.36H424.541V19.36H422.541V21.36ZM422.541 78V80H424.541V78H422.541ZM404.781 78H402.781V80H404.781V78ZM404.781 21.36V19.36H402.781V21.36H404.781ZM408.701 14.72L407.258 16.1051L407.287 16.1345L407.316 16.1628L408.701 14.72ZM408.701 4.88L407.287 3.46578L407.273 3.48021L407.258 3.49493L408.701 4.88ZM418.541 4.88L417.098 6.26506L417.127 6.29451L417.156 6.32277L418.541 4.88ZM418.541 14.72L419.926 16.1628L419.941 16.1486L419.955 16.1342L418.541 14.72ZM420.541 21.36V78H424.541V21.36H420.541ZM422.541 76H404.781V80H422.541V76ZM406.781 78V21.36H402.781V78H406.781ZM404.781 23.36H422.541V19.36H404.781V23.36ZM413.581 14.64C412.155 14.64 411.031 14.1846 410.086 13.2772L407.316 16.1628C409.038 17.8154 411.167 18.64 413.581 18.64V14.64ZM410.144 13.3349C409.237 12.3898 408.781 11.2659 408.781 9.84H404.781C404.781 12.2541 405.606 14.3835 407.258 16.1051L410.144 13.3349ZM408.781 9.84C408.781 8.34451 409.247 7.19909 410.144 6.26506L407.258 3.49493C405.595 5.22757 404.781 7.38881 404.781 9.84H408.781ZM410.115 6.29421C411.066 5.34355 412.181 4.87999 413.581 4.87999V0.879994C411.142 0.879994 409.003 1.74977 407.287 3.46578L410.115 6.29421ZM413.581 4.87999C415.122 4.87999 416.234 5.36466 417.098 6.26506L419.984 3.49493C418.288 1.72866 416.094 0.879994 413.581 0.879994V4.87999ZM417.156 6.32277C418.057 7.18715 418.541 8.29975 418.541 9.84H422.541C422.541 7.32691 421.693 5.13284 419.926 3.43722L417.156 6.32277ZM418.541 9.84C418.541 11.2404 418.078 12.3551 417.127 13.3058L419.955 16.1342C421.671 14.4182 422.541 12.2796 422.541 9.84H418.541ZM417.156 13.2772C416.222 14.1739 415.077 14.64 413.581 14.64V18.64C416.032 18.64 418.194 17.8261 419.926 16.1628L417.156 13.2772ZM498.643 21.36H500.643V19.36H498.643V21.36ZM498.643 78V80H500.643V78H498.643ZM480.962 78H478.962V80H480.962V78ZM480.962 49.76H482.962L479.052 49.1699L480.962 49.76ZM472.242 78V80H473.718L474.153 78.5901L472.242 78ZM457.043 78L455.132 78.5901L455.567 80H457.043V78ZM448.323 49.76L450.233 49.1699L446.323 49.76H448.323ZM448.323 78V80H450.323V78H448.323ZM430.562 78H428.562V80H430.562V78ZM430.562 21.36V19.36H428.562V21.36H430.562ZM452.323 21.36L454.2 20.6708L453.719 19.36H452.323V21.36ZM464.802 55.36L462.925 56.0492L464.827 61.2307L466.686 56.0335L464.802 55.36ZM476.962 21.36V19.36H475.554L475.079 20.6865L476.962 21.36ZM496.643 21.36V78H500.643V21.36H496.643ZM498.643 76H480.962V80H498.643V76ZM482.962 78V49.76H478.962V78H482.962ZM479.052 49.1699L470.332 77.4099L474.153 78.5901L482.873 50.3501L479.052 49.1699ZM472.242 76H457.043V80H472.242V76ZM458.953 77.4099L450.233 49.1699L446.412 50.3501L455.132 78.5901L458.953 77.4099ZM446.323 49.76V78H450.323V49.76H446.323ZM448.323 76H430.562V80H448.323V76ZM432.562 78V21.36H428.562V78H432.562ZM430.562 23.36H452.323V19.36H430.562V23.36ZM450.445 22.0492L462.925 56.0492L466.68 54.6708L454.2 20.6708L450.445 22.0492ZM466.686 56.0335L478.846 22.0335L475.079 20.6865L462.919 54.6865L466.686 56.0335ZM476.962 23.36H498.643V19.36H476.962V23.36Z" fill="white" mask="url(#path-4-inside-2_435_44547)"/>
</g>
<path d="M186.76 34.36V91H169V34.36H186.76ZM177.8 29.64C175.88 29.64 174.253 29 172.92 27.72C171.64 26.3867 171 24.76 171 22.84C171 20.8667 171.64 19.2133 172.92 17.88C174.253 16.5467 175.88 15.88 177.8 15.88C179.827 15.88 181.48 16.5467 182.76 17.88C184.093 19.16 184.76 20.8133 184.76 22.84C184.76 24.76 184.093 26.3867 182.76 27.72C181.427 29 179.773 29.64 177.8 29.64ZM212.541 77.56H229.661V91H194.781V34.36H212.541V77.56ZM253.01 48.52V55.48H270.61V68.84H253.01V76.84H273.01V91H235.25V34.36H273.01V48.52H253.01ZM324.183 34.36V48.44H309.143V91H291.383V48.44H276.503V34.36H324.183ZM346.76 34.36V91H329V34.36H346.76ZM337.8 29.64C335.88 29.64 334.253 29 332.92 27.72C331.64 26.3867 331 24.76 331 22.84C331 20.8667 331.64 19.2133 332.92 17.88C334.253 16.5467 335.88 15.88 337.8 15.88C339.827 15.88 341.48 16.5467 342.76 17.88C344.093 19.16 344.76 20.8133 344.76 22.84C344.76 24.76 344.093 26.3867 342.76 27.72C341.427 29 339.773 29.64 337.8 29.64ZM398.541 73.48C398.541 78.12 397.048 82.04 394.061 85.24C391.128 88.44 387.021 90.44 381.741 91.24V93.72C383.235 93.72 384.781 94.0133 386.381 94.6C387.981 95.24 389.341 96.28 390.461 97.72C391.581 99.2133 392.141 101.133 392.141 103.48C392.141 106.947 390.941 109.427 388.541 110.92C386.141 112.467 383.341 113.24 380.141 113.24H366.301V104.2H378.301C378.941 104.2 379.448 104.067 379.821 103.8C380.195 103.587 380.381 103.293 380.381 102.92C380.381 102.12 379.688 101.72 378.301 101.72H371.501V91.16C366.168 90.36 361.848 88.4133 358.541 85.32C355.235 82.2267 353.395 78.0667 353.021 72.84H371.901C372.168 76.0933 373.608 77.72 376.221 77.72C377.181 77.72 377.981 77.5067 378.621 77.08C379.315 76.6 379.661 75.88 379.661 74.92C379.661 73.5867 378.941 72.52 377.501 71.72C376.061 70.8667 373.821 69.9067 370.781 68.84C367.155 67.56 364.141 66.3067 361.741 65.08C359.395 63.8533 357.368 62.0667 355.661 59.72C353.955 57.3733 353.128 54.36 353.181 50.68C353.181 47 354.115 43.88 355.981 41.32C357.901 38.7067 360.488 36.7333 363.741 35.4C367.048 34.0667 370.755 33.4 374.861 33.4C381.795 33.4 387.288 35 391.341 38.2C395.448 41.4 397.608 45.9067 397.821 51.72H378.701C378.648 50.12 378.248 48.9733 377.501 48.28C376.755 47.5867 375.848 47.24 374.781 47.24C374.035 47.24 373.421 47.5067 372.941 48.04C372.461 48.52 372.221 49.2133 372.221 50.12C372.221 51.4 372.915 52.4667 374.301 53.32C375.741 54.12 378.008 55.1067 381.101 56.28C384.675 57.6133 387.608 58.8933 389.901 60.12C392.248 61.3467 394.275 63.0533 395.981 65.24C397.688 67.4267 398.541 70.1733 398.541 73.48ZM422.541 34.36V91H404.781V34.36H422.541ZM413.581 29.64C411.661 29.64 410.035 29 408.701 27.72C407.421 26.3867 406.781 24.76 406.781 22.84C406.781 20.8667 407.421 19.2133 408.701 17.88C410.035 16.5467 411.661 15.88 413.581 15.88C415.608 15.88 417.261 16.5467 418.541 17.88C419.875 19.16 420.541 20.8133 420.541 22.84C420.541 24.76 419.875 26.3867 418.541 27.72C417.208 29 415.555 29.64 413.581 29.64ZM498.643 34.36V91H480.963V62.76L472.243 91H457.043L448.323 62.76V91H430.563V34.36H452.323L464.803 68.36L476.963 34.36H498.643Z" fill="white"/>
</svg>
