<svg width="809" height="128" viewBox="0 0 809 128" fill="none" xmlns="http://www.w3.org/2000/svg">
<rect y="27" width="169" height="60" fill="white"/>
<g opacity="0.75">
<mask id="path-2-inside-1_435_30092" fill="white">
<path d="M186.76 21.36V78H169V21.36H186.76ZM177.8 16.64C175.88 16.64 174.253 16 172.92 14.72C171.64 13.3867 171 11.76 171 9.84C171 7.86666 171.64 6.21333 172.92 4.88C174.253 3.54666 175.88 2.87999 177.8 2.87999C179.827 2.87999 181.48 3.54666 182.76 4.88C184.093 6.16 184.76 7.81333 184.76 9.84C184.76 11.76 184.093 13.3867 182.76 14.72C181.427 16 179.773 16.64 177.8 16.64ZM238.541 60.48C238.541 65.12 237.048 69.04 234.061 72.24C231.128 75.44 227.021 77.44 221.741 78.24V80.72C223.235 80.72 224.781 81.0133 226.381 81.6C227.981 82.24 229.341 83.28 230.461 84.72C231.581 86.2133 232.141 88.1333 232.141 90.48C232.141 93.9467 230.941 96.4267 228.541 97.92C226.141 99.4667 223.341 100.24 220.141 100.24H206.301V91.2H218.301C218.941 91.2 219.448 91.0667 219.821 90.8C220.195 90.5867 220.381 90.2933 220.381 89.92C220.381 89.12 219.688 88.72 218.301 88.72H211.501V78.16C206.168 77.36 201.848 75.4133 198.541 72.32C195.235 69.2267 193.395 65.0667 193.021 59.84H211.901C212.168 63.0933 213.608 64.72 216.221 64.72C217.181 64.72 217.981 64.5067 218.621 64.08C219.315 63.6 219.661 62.88 219.661 61.92C219.661 60.5867 218.941 59.52 217.501 58.72C216.061 57.8667 213.821 56.9067 210.781 55.84C207.155 54.56 204.141 53.3067 201.741 52.08C199.395 50.8533 197.368 49.0667 195.661 46.72C193.955 44.3733 193.128 41.36 193.181 37.68C193.181 34 194.115 30.88 195.981 28.32C197.901 25.7067 200.488 23.7333 203.741 22.4C207.048 21.0667 210.755 20.4 214.861 20.4C221.795 20.4 227.288 22 231.341 25.2C235.448 28.4 237.608 32.9067 237.821 38.72H218.701C218.648 37.12 218.248 35.9733 217.501 35.28C216.755 34.5867 215.848 34.24 214.781 34.24C214.035 34.24 213.421 34.5067 212.941 35.04C212.461 35.52 212.221 36.2133 212.221 37.12C212.221 38.4 212.915 39.4667 214.301 40.32C215.741 41.12 218.008 42.1067 221.101 43.28C224.675 44.6133 227.608 45.8933 229.901 47.12C232.248 48.3467 234.275 50.0533 235.981 52.24C237.688 54.4267 238.541 57.1733 238.541 60.48ZM289.261 21.36V35.44H274.221V78H256.461V35.44H241.581V21.36H289.261ZM311.838 21.36V78H294.078V21.36H311.838ZM302.878 16.64C300.958 16.64 299.331 16 297.998 14.72C296.718 13.3867 296.078 11.76 296.078 9.84C296.078 7.86666 296.718 6.21333 297.998 4.88C299.331 3.54666 300.958 2.87999 302.878 2.87999C304.905 2.87999 306.558 3.54666 307.838 4.88C309.171 6.16 309.838 7.81333 309.838 9.84C309.838 11.76 309.171 13.3867 307.838 14.72C306.505 16 304.851 16.64 302.878 16.64ZM348.339 78L337.699 57.68H337.619V78H319.859V21.36H346.259C350.846 21.36 354.766 22.1867 358.019 23.84C361.273 25.44 363.699 27.6533 365.299 30.48C366.953 33.2533 367.779 36.4 367.779 39.92C367.779 43.7067 366.713 47.0667 364.579 50C362.499 52.9333 359.486 55.04 355.539 56.32L367.859 78H348.339ZM337.619 45.84H344.659C346.366 45.84 347.646 45.4667 348.499 44.72C349.353 43.92 349.779 42.6933 349.779 41.04C349.779 39.5467 349.326 38.3733 348.419 37.52C347.566 36.6667 346.313 36.24 344.659 36.24H337.619V45.84ZM409.773 69.44H390.893L388.093 78H369.453L390.173 21.36H410.653L431.293 78H412.573L409.773 69.44ZM405.453 56.08L400.333 40.32L395.213 56.08H405.453ZM469.568 78L453.088 53.44V78H435.328V21.36H453.088V45.2L469.328 21.36H489.408L469.888 48.48L490.688 78H469.568ZM513.479 64.56H530.599V78H495.719V21.36H513.479V64.56ZM553.948 35.52V42.48H571.548V55.84H553.948V63.84H573.948V78H536.188V21.36H573.948V35.52H553.948ZM609.121 78L598.481 57.68H598.401V78H580.641V21.36H607.041C611.627 21.36 615.547 22.1867 618.801 23.84C622.054 25.44 624.481 27.6533 626.081 30.48C627.734 33.2533 628.561 36.4 628.561 39.92C628.561 43.7067 627.494 47.0667 625.361 50C623.281 52.9333 620.267 55.04 616.321 56.32L628.641 78H609.121ZM598.401 45.84H605.441C607.147 45.84 608.427 45.4667 609.281 44.72C610.134 43.92 610.561 42.6933 610.561 41.04C610.561 39.5467 610.107 38.3733 609.201 37.52C608.347 36.6667 607.094 36.24 605.441 36.24H598.401V45.84ZM651.994 21.36V78H634.234V21.36H651.994ZM643.034 16.64C641.114 16.64 639.488 16 638.154 14.72C636.874 13.3867 636.234 11.76 636.234 9.84C636.234 7.86666 636.874 6.21333 638.154 4.88C639.488 3.54666 641.114 2.87999 643.034 2.87999C645.061 2.87999 646.714 3.54666 647.994 4.88C649.328 6.16 649.994 7.81333 649.994 9.84C649.994 11.76 649.328 13.3867 647.994 14.72C646.661 16 645.008 16.64 643.034 16.64ZM728.096 21.36V78H710.416V49.76L701.696 78H686.496L677.776 49.76V78H660.016V21.36H681.776L694.256 55.36L706.416 21.36H728.096ZM753.869 21.36V78H736.109V21.36H753.869ZM744.909 16.64C742.989 16.64 741.363 16 740.029 14.72C738.749 13.3867 738.109 11.76 738.109 9.84C738.109 7.86666 738.749 6.21333 740.029 4.88C741.363 3.54666 742.989 2.87999 744.909 2.87999C746.936 2.87999 748.589 3.54666 749.869 4.88C751.203 6.16 751.869 7.81333 751.869 9.84C751.869 11.76 751.203 13.3867 749.869 14.72C748.536 16 746.883 16.64 744.909 16.64ZM781.571 63.84H804.291V78H761.891V64.64L784.291 35.44H761.891V21.36H804.291V34.72L781.571 63.84Z"/>
</mask>
<path d="M186.76 21.36H188.76V19.36H186.76V21.36ZM186.76 78V80H188.76V78H186.76ZM169 78H167V80H169V78ZM169 21.36V19.36H167V21.36H169ZM172.92 14.72L171.477 16.1051L171.505 16.1345L171.535 16.1628L172.92 14.72ZM172.92 4.88L171.506 3.46578L171.491 3.48021L171.477 3.49493L172.92 4.88ZM182.76 4.88L181.317 6.26506L181.345 6.2945L181.375 6.32277L182.76 4.88ZM182.76 14.72L184.145 16.1628L184.16 16.1486L184.174 16.1342L182.76 14.72ZM184.76 21.36V78H188.76V21.36H184.76ZM186.76 76H169V80H186.76V76ZM171 78V21.36H167V78H171ZM169 23.36H186.76V19.36H169V23.36ZM177.8 14.64C176.374 14.64 175.25 14.1846 174.305 13.2772L171.535 16.1628C173.256 17.8154 175.386 18.64 177.8 18.64V14.64ZM174.363 13.3349C173.455 12.3898 173 11.2659 173 9.84H169C169 12.2541 169.825 14.3835 171.477 16.1051L174.363 13.3349ZM173 9.84C173 8.34451 173.466 7.19909 174.363 6.26506L171.477 3.49493C169.814 5.22757 169 7.38881 169 9.84H173ZM174.334 6.29421C175.285 5.34355 176.4 4.87999 177.8 4.87999V0.879994C175.36 0.879994 173.222 1.74977 171.506 3.46578L174.334 6.29421ZM177.8 4.87999C179.34 4.87999 180.453 5.36466 181.317 6.26506L184.203 3.49493C182.507 1.72866 180.313 0.879994 177.8 0.879994V4.87999ZM181.375 6.32277C182.275 7.18715 182.76 8.29975 182.76 9.84H186.76C186.76 7.32691 185.911 5.13284 184.145 3.43722L181.375 6.32277ZM182.76 9.84C182.76 11.2404 182.296 12.3551 181.346 13.3058L184.174 16.1342C185.89 14.4182 186.76 12.2796 186.76 9.84H182.76ZM181.375 13.2772C180.441 14.1739 179.295 14.64 177.8 14.64V18.64C180.251 18.64 182.412 17.8261 184.145 16.1628L181.375 13.2772ZM234.061 72.24L232.599 70.8754L232.593 70.8819L232.587 70.8886L234.061 72.24ZM221.741 78.24L221.442 76.2626L219.741 76.5202V78.24H221.741ZM221.741 80.72H219.741V82.72H221.741V80.72ZM226.381 81.6L227.124 79.743L227.097 79.7323L227.07 79.7222L226.381 81.6ZM230.461 84.72L232.061 83.52L232.051 83.506L232.04 83.4921L230.461 84.72ZM228.541 97.92L227.485 96.2219L227.471 96.2303L227.458 96.2389L228.541 97.92ZM206.301 100.24H204.301V102.24H206.301V100.24ZM206.301 91.2V89.2H204.301V91.2H206.301ZM219.821 90.8L218.829 89.0635L218.741 89.1137L218.659 89.1725L219.821 90.8ZM211.501 88.72H209.501V90.72H211.501V88.72ZM211.501 78.16H213.501V76.4376L211.798 76.1821L211.501 78.16ZM198.541 72.32L197.175 73.7805L197.175 73.7805L198.541 72.32ZM193.021 59.84V57.84H190.873L191.026 59.9825L193.021 59.84ZM211.901 59.84L213.895 59.6766L213.744 57.84H211.901V59.84ZM218.621 64.08L219.731 65.7441L219.745 65.7344L219.76 65.7244L218.621 64.08ZM217.501 58.72L216.482 60.4406L216.506 60.4548L216.53 60.4683L217.501 58.72ZM210.781 55.84L210.116 57.726L210.119 57.7272L210.781 55.84ZM201.741 52.08L200.815 53.8525L200.823 53.8567L200.831 53.8609L201.741 52.08ZM195.661 46.72L197.279 45.5437L197.279 45.5437L195.661 46.72ZM193.181 37.68L195.181 37.709L195.181 37.6945V37.68H193.181ZM195.981 28.32L194.369 27.1358L194.365 27.1417L195.981 28.32ZM203.741 22.4L202.993 20.5451L202.983 20.5494L203.741 22.4ZM231.341 25.2L230.102 26.7698L230.112 26.7776L231.341 25.2ZM237.821 38.72V40.72H239.896L239.82 38.6467L237.821 38.72ZM218.701 38.72L216.702 38.7866L216.767 40.72H218.701V38.72ZM212.941 35.04L214.355 36.4542L214.393 36.417L214.428 36.3779L212.941 35.04ZM214.301 40.32L213.253 42.0233L213.291 42.0467L213.33 42.0683L214.301 40.32ZM221.101 43.28L220.392 45.15L220.402 45.1538L221.101 43.28ZM229.901 47.12L228.958 48.8836L228.966 48.888L228.975 48.8925L229.901 47.12ZM235.981 52.24L234.405 53.4705L234.405 53.4705L235.981 52.24ZM236.541 60.48C236.541 64.6468 235.218 68.0694 232.599 70.8754L235.523 73.6046C238.878 70.0106 240.541 65.5932 240.541 60.48H236.541ZM232.587 70.8886C230.028 73.6799 226.377 75.5148 221.442 76.2626L222.041 80.2174C227.665 79.3652 232.228 77.2001 235.536 73.5914L232.587 70.8886ZM219.741 78.24V80.72H223.741V78.24H219.741ZM221.741 82.72C222.969 82.72 224.283 82.9607 225.693 83.4778L227.07 79.7222C225.28 79.066 223.5 78.72 221.741 78.72V82.72ZM225.638 83.457C226.889 83.9573 227.967 84.771 228.883 85.9479L232.04 83.4921C230.715 81.789 229.073 80.5227 227.124 79.743L225.638 83.457ZM228.861 85.92C229.661 86.9867 230.141 88.4533 230.141 90.48H234.141C234.141 87.8133 233.501 85.44 232.061 83.52L228.861 85.92ZM230.141 90.48C230.141 93.4365 229.159 95.1799 227.485 96.2219L229.598 99.6181C232.723 97.6734 234.141 94.4569 234.141 90.48H230.141ZM227.458 96.2389C225.419 97.5529 223.005 98.24 220.141 98.24V102.24C223.678 102.24 226.864 101.38 229.625 99.6011L227.458 96.2389ZM220.141 98.24H206.301V102.24H220.141V98.24ZM208.301 100.24V91.2H204.301V100.24H208.301ZM206.301 93.2H218.301V89.2H206.301V93.2ZM218.301 93.2C219.198 93.2 220.161 93.0152 220.984 92.4275L218.659 89.1725C218.735 89.1181 218.684 89.2 218.301 89.2V93.2ZM220.814 92.5365C221.697 92.0318 222.381 91.1327 222.381 89.92H218.381C218.381 89.7556 218.428 89.5443 218.554 89.3463C218.672 89.1614 218.799 89.0805 218.829 89.0635L220.814 92.5365ZM222.381 89.92C222.381 88.8047 221.826 87.8446 220.861 87.2876C220.062 86.8268 219.121 86.72 218.301 86.72V90.72C218.558 90.72 218.729 90.739 218.834 90.759C218.941 90.7797 218.932 90.7931 218.862 90.7524C218.779 90.7045 218.634 90.594 218.52 90.3956C218.405 90.1971 218.381 90.0163 218.381 89.92H222.381ZM218.301 86.72H211.501V90.72H218.301V86.72ZM213.501 88.72V78.16H209.501V88.72H213.501ZM211.798 76.1821C206.787 75.4305 202.865 73.6265 199.908 70.8595L197.175 73.7805C200.83 77.2002 205.549 79.2895 211.205 80.1379L211.798 76.1821ZM199.908 70.8595C197.027 68.1644 195.36 64.5059 195.016 59.6975L191.026 59.9825C191.43 65.6274 193.443 70.2889 197.175 73.7805L199.908 70.8595ZM193.021 61.84H211.901V57.84H193.021V61.84ZM209.908 60.0034C210.06 61.8553 210.565 63.5624 211.684 64.8257C212.86 66.1544 214.469 66.72 216.221 66.72V62.72C215.36 62.72 214.943 62.4723 214.679 62.1743C214.357 61.811 214.009 61.0781 213.895 59.6766L209.908 60.0034ZM216.221 66.72C217.478 66.72 218.689 66.4386 219.731 65.7441L217.512 62.4159C217.274 62.5748 216.885 62.72 216.221 62.72V66.72ZM219.76 65.7244C221.074 64.8146 221.661 63.4309 221.661 61.92H217.661C217.661 62.1593 217.619 62.2721 217.599 62.3124C217.585 62.343 217.561 62.3814 217.483 62.4356L219.76 65.7244ZM221.661 61.92C221.661 59.679 220.371 58.0266 218.473 56.9717L216.53 60.4683C217.511 61.0134 217.661 61.4943 217.661 61.92H221.661ZM218.521 56.9994C216.907 56.0429 214.516 55.0309 211.443 53.9528L210.119 57.7272C213.126 58.7824 215.216 59.6904 216.482 60.4406L218.521 56.9994ZM211.447 53.954C207.872 52.6922 204.947 51.4724 202.651 50.2991L200.831 53.8609C203.336 55.141 206.437 56.4278 210.116 57.726L211.447 53.954ZM202.668 50.3075C200.62 49.237 198.822 47.6653 197.279 45.5437L194.044 47.8963C195.914 50.468 198.169 52.4697 200.815 53.8525L202.668 50.3075ZM197.279 45.5437C195.888 43.6311 195.132 41.0737 195.181 37.709L191.181 37.651C191.124 41.6463 192.021 45.1156 194.044 47.8963L197.279 45.5437ZM195.181 37.68C195.181 34.3527 196.019 31.663 197.597 29.4983L194.365 27.1417C192.21 30.097 191.181 33.6473 191.181 37.68H195.181ZM197.593 29.5041C199.277 27.2121 201.557 25.4566 204.5 24.2506L202.983 20.5494C199.419 22.01 196.525 24.2013 194.369 27.1358L197.593 29.5041ZM204.489 24.2549C207.525 23.0308 210.972 22.4 214.861 22.4V18.4C210.537 18.4 206.571 19.1025 202.993 20.5451L204.489 24.2549ZM214.861 22.4C221.498 22.4 226.506 23.9306 230.102 26.7698L232.581 23.6302C228.07 20.0694 222.091 18.4 214.861 18.4V22.4ZM230.112 26.7776C233.694 29.569 235.628 33.4924 235.823 38.7933L239.82 38.6467C239.588 32.3209 237.202 27.231 232.571 23.6224L230.112 26.7776ZM237.821 36.72H218.701V40.72H237.821V36.72ZM220.7 38.6534C220.639 36.816 220.173 35.0314 218.862 33.8144L216.14 36.7456C216.323 36.9153 216.657 37.424 216.702 38.7866L220.7 38.6534ZM218.862 33.8144C217.727 32.7602 216.327 32.24 214.781 32.24V36.24C215.369 36.24 215.782 36.4131 216.14 36.7456L218.862 33.8144ZM214.781 32.24C213.494 32.24 212.331 32.7283 211.455 33.7021L214.428 36.3779C214.511 36.2851 214.575 36.24 214.781 36.24V32.24ZM211.527 33.6258C210.559 34.5934 210.221 35.8667 210.221 37.12H214.221C214.221 36.8389 214.259 36.6675 214.291 36.5742C214.32 36.4901 214.346 36.4632 214.355 36.4542L211.527 33.6258ZM210.221 37.12C210.221 39.2862 211.459 40.9192 213.253 42.0233L215.349 38.6167C214.37 38.0141 214.221 37.5138 214.221 37.12H210.221ZM213.33 42.0683C214.901 42.9414 217.279 43.9693 220.392 45.15L221.811 41.41C218.737 40.244 216.581 39.2986 215.273 38.5717L213.33 42.0683ZM220.402 45.1538C223.926 46.4689 226.771 47.7135 228.958 48.8836L230.845 45.3564C228.445 44.0731 225.423 42.7578 221.8 41.4062L220.402 45.1538ZM228.975 48.8925C231.057 49.9806 232.865 51.4979 234.405 53.4705L237.558 51.0095C235.684 48.6088 233.439 46.7127 230.828 45.3475L228.975 48.8925ZM234.405 53.4705C235.787 55.2416 236.541 57.5305 236.541 60.48H240.541C240.541 56.8161 239.589 53.6117 237.558 51.0095L234.405 53.4705ZM289.261 21.36H291.261V19.36H289.261V21.36ZM289.261 35.44V37.44H291.261V35.44H289.261ZM274.221 35.44V33.44H272.221V35.44H274.221ZM274.221 78V80H276.221V78H274.221ZM256.461 78H254.461V80H256.461V78ZM256.461 35.44H258.461V33.44H256.461V35.44ZM241.581 35.44H239.581V37.44H241.581V35.44ZM241.581 21.36V19.36H239.581V21.36H241.581ZM287.261 21.36V35.44H291.261V21.36H287.261ZM289.261 33.44H274.221V37.44H289.261V33.44ZM272.221 35.44V78H276.221V35.44H272.221ZM274.221 76H256.461V80H274.221V76ZM258.461 78V35.44H254.461V78H258.461ZM256.461 33.44H241.581V37.44H256.461V33.44ZM243.581 35.44V21.36H239.581V35.44H243.581ZM241.581 23.36H289.261V19.36H241.581V23.36ZM311.838 21.36H313.838V19.36H311.838V21.36ZM311.838 78V80H313.838V78H311.838ZM294.078 78H292.078V80H294.078V78ZM294.078 21.36V19.36H292.078V21.36H294.078ZM297.998 14.72L296.555 16.1051L296.584 16.1345L296.613 16.1628L297.998 14.72ZM297.998 4.88L296.584 3.46578L296.569 3.48021L296.555 3.49493L297.998 4.88ZM307.838 4.88L306.395 6.26506L306.424 6.2945L306.453 6.32277L307.838 4.88ZM307.838 14.72L309.223 16.1628L309.238 16.1486L309.252 16.1342L307.838 14.72ZM309.838 21.36V78H313.838V21.36H309.838ZM311.838 76H294.078V80H311.838V76ZM296.078 78V21.36H292.078V78H296.078ZM294.078 23.36H311.838V19.36H294.078V23.36ZM302.878 14.64C301.452 14.64 300.328 14.1846 299.383 13.2772L296.613 16.1628C298.335 17.8154 300.464 18.64 302.878 18.64V14.64ZM299.441 13.3349C298.534 12.3898 298.078 11.2659 298.078 9.84H294.078C294.078 12.2541 294.903 14.3835 296.555 16.1051L299.441 13.3349ZM298.078 9.84C298.078 8.34451 298.544 7.19909 299.441 6.26506L296.555 3.49493C294.892 5.22757 294.078 7.38881 294.078 9.84H298.078ZM299.412 6.29421C300.363 5.34355 301.478 4.87999 302.878 4.87999V0.879994C300.439 0.879994 298.3 1.74977 296.584 3.46578L299.412 6.29421ZM302.878 4.87999C304.418 4.87999 305.531 5.36466 306.395 6.26506L309.281 3.49493C307.585 1.72866 305.391 0.879994 302.878 0.879994V4.87999ZM306.453 6.32277C307.353 7.18715 307.838 8.29975 307.838 9.84H311.838C311.838 7.32691 310.989 5.13284 309.223 3.43722L306.453 6.32277ZM307.838 9.84C307.838 11.2404 307.375 12.3551 306.424 13.3058L309.252 16.1342C310.968 14.4182 311.838 12.2796 311.838 9.84H307.838ZM306.453 13.2772C305.519 14.1739 304.374 14.64 302.878 14.64V18.64C305.329 18.64 307.491 17.8261 309.223 16.1628L306.453 13.2772ZM348.339 78L346.568 78.9278L347.129 80H348.339V78ZM337.699 57.68L339.471 56.7522L338.91 55.68H337.699V57.68ZM337.619 57.68V55.68H335.619V57.68H337.619ZM337.619 78V80H339.619V78H337.619ZM319.859 78H317.859V80H319.859V78ZM319.859 21.36V19.36H317.859V21.36H319.859ZM358.019 23.84L357.113 25.623L357.125 25.6289L357.137 25.6347L358.019 23.84ZM365.299 30.48L363.559 31.4652L363.57 31.4848L363.581 31.5041L365.299 30.48ZM364.579 50L362.962 48.8237L362.955 48.8334L362.948 48.8431L364.579 50ZM355.539 56.32L354.922 54.4176L352.588 55.1746L353.801 57.3081L355.539 56.32ZM367.859 78V80H371.296L369.598 77.0119L367.859 78ZM337.619 45.84H335.619V47.84H337.619V45.84ZM348.499 44.72L349.816 46.2252L349.842 46.2025L349.867 46.1791L348.499 44.72ZM348.419 37.52L347.005 38.9342L347.027 38.9556L347.049 38.9764L348.419 37.52ZM337.619 36.24V34.24H335.619V36.24H337.619ZM350.111 77.0722L339.471 56.7522L335.928 58.6078L346.568 78.9278L350.111 77.0722ZM337.699 55.68H337.619V59.68H337.699V55.68ZM335.619 57.68V78H339.619V57.68H335.619ZM337.619 76H319.859V80H337.619V76ZM321.859 78V21.36H317.859V78H321.859ZM319.859 23.36H346.259V19.36H319.859V23.36ZM346.259 23.36C350.61 23.36 354.204 24.1442 357.113 25.623L358.925 22.057C355.329 20.2291 351.082 19.36 346.259 19.36V23.36ZM357.137 25.6347C360.073 27.0787 362.18 29.0285 363.559 31.4652L367.04 29.4948C365.219 26.2782 362.473 23.8013 358.902 22.0453L357.137 25.6347ZM363.581 31.5041C365.034 33.9401 365.779 36.727 365.779 39.92H369.779C369.779 36.073 368.872 32.5665 367.017 29.4559L363.581 31.5041ZM365.779 39.92C365.779 43.3038 364.835 46.2479 362.962 48.8237L366.197 51.1763C368.59 47.8855 369.779 44.1095 369.779 39.92H365.779ZM362.948 48.8431C361.154 51.3729 358.525 53.2491 354.922 54.4176L356.156 58.2224C360.447 56.8309 363.845 54.4938 366.211 51.1569L362.948 48.8431ZM353.801 57.3081L366.121 78.9881L369.598 77.0119L357.278 55.3319L353.801 57.3081ZM367.859 76H348.339V80H367.859V76ZM337.619 47.84H344.659V43.84H337.619V47.84ZM344.659 47.84C346.614 47.84 348.453 47.4183 349.816 46.2252L347.182 43.2148C346.839 43.5151 346.118 43.84 344.659 43.84V47.84ZM349.867 46.1791C351.267 44.8664 351.779 43.0126 351.779 41.04H347.779C347.779 42.374 347.438 42.9736 347.131 43.2609L349.867 46.1791ZM351.779 41.04C351.779 39.1141 351.177 37.3693 349.79 36.0636L347.049 38.9764C347.475 39.3774 347.779 39.9793 347.779 41.04H351.779ZM349.834 36.1058C348.484 34.7559 346.642 34.24 344.659 34.24V38.24C345.983 38.24 346.648 38.5774 347.005 38.9342L349.834 36.1058ZM344.659 34.24H337.619V38.24H344.659V34.24ZM335.619 36.24V45.84H339.619V36.24H335.619ZM409.773 69.44L411.674 68.8182L411.223 67.44H409.773V69.44ZM390.893 69.44V67.44H389.443L388.992 68.8182L390.893 69.44ZM388.093 78V80H389.543L389.994 78.6218L388.093 78ZM369.453 78L367.575 77.3129L366.592 80H369.453V78ZM390.173 21.36V19.36H388.775L388.295 20.6729L390.173 21.36ZM410.653 21.36L412.532 20.6752L412.053 19.36H410.653V21.36ZM431.293 78V80H434.151L433.172 77.3152L431.293 78ZM412.573 78L410.672 78.6218L411.123 80H412.573V78ZM405.453 56.08V58.08H408.206L407.355 55.462L405.453 56.08ZM400.333 40.32L402.235 39.702L400.333 33.847L398.431 39.702L400.333 40.32ZM395.213 56.08L393.311 55.462L392.46 58.08H395.213V56.08ZM409.773 67.44H390.893V71.44H409.773V67.44ZM388.992 68.8182L386.192 77.3782L389.994 78.6218L392.794 70.0618L388.992 68.8182ZM388.093 76H369.453V80H388.093V76ZM371.331 78.6871L392.051 22.0471L388.295 20.6729L367.575 77.3129L371.331 78.6871ZM390.173 23.36H410.653V19.36H390.173V23.36ZM408.774 22.0448L429.414 78.6848L433.172 77.3152L412.532 20.6752L408.774 22.0448ZM431.293 76H412.573V80H431.293V76ZM414.474 77.3782L411.674 68.8182L407.872 70.0618L410.672 78.6218L414.474 77.3782ZM407.355 55.462L402.235 39.702L398.431 40.938L403.551 56.698L407.355 55.462ZM398.431 39.702L393.311 55.462L397.115 56.698L402.235 40.938L398.431 39.702ZM395.213 58.08H405.453V54.08H395.213V58.08ZM469.568 78L467.907 79.1144L468.502 80H469.568V78ZM453.088 53.44L454.749 52.3256L451.088 46.87V53.44H453.088ZM453.088 78V80H455.088V78H453.088ZM435.328 78H433.328V80H435.328V78ZM435.328 21.36V19.36H433.328V21.36H435.328ZM453.088 21.36H455.088V19.36H453.088V21.36ZM453.088 45.2H451.088V51.6884L454.741 46.326L453.088 45.2ZM469.328 21.36V19.36H468.271L467.675 20.234L469.328 21.36ZM489.408 21.36L491.031 22.5284L493.312 19.36H489.408V21.36ZM469.888 48.48L468.265 47.3116L467.433 48.4677L468.253 49.632L469.888 48.48ZM490.688 78V80H494.544L492.323 76.848L490.688 78ZM471.229 76.8856L454.749 52.3256L451.427 54.5544L467.907 79.1144L471.229 76.8856ZM451.088 53.44V78H455.088V53.44H451.088ZM453.088 76H435.328V80H453.088V76ZM437.328 78V21.36H433.328V78H437.328ZM435.328 23.36H453.088V19.36H435.328V23.36ZM451.088 21.36V45.2H455.088V21.36H451.088ZM454.741 46.326L470.981 22.486L467.675 20.234L451.435 44.074L454.741 46.326ZM469.328 23.36H489.408V19.36H469.328V23.36ZM487.785 20.1916L468.265 47.3116L471.511 49.6484L491.031 22.5284L487.785 20.1916ZM468.253 49.632L489.053 79.152L492.323 76.848L471.523 47.328L468.253 49.632ZM490.688 76H469.568V80H490.688V76ZM513.479 64.56H511.479V66.56H513.479V64.56ZM530.599 64.56H532.599V62.56H530.599V64.56ZM530.599 78V80H532.599V78H530.599ZM495.719 78H493.719V80H495.719V78ZM495.719 21.36V19.36H493.719V21.36H495.719ZM513.479 21.36H515.479V19.36H513.479V21.36ZM513.479 66.56H530.599V62.56H513.479V66.56ZM528.599 64.56V78H532.599V64.56H528.599ZM530.599 76H495.719V80H530.599V76ZM497.719 78V21.36H493.719V78H497.719ZM495.719 23.36H513.479V19.36H495.719V23.36ZM511.479 21.36V64.56H515.479V21.36H511.479ZM553.948 35.52V33.52H551.948V35.52H553.948ZM553.948 42.48H551.948V44.48H553.948V42.48ZM571.548 42.48H573.548V40.48H571.548V42.48ZM571.548 55.84V57.84H573.548V55.84H571.548ZM553.948 55.84V53.84H551.948V55.84H553.948ZM553.948 63.84H551.948V65.84H553.948V63.84ZM573.948 63.84H575.948V61.84H573.948V63.84ZM573.948 78V80H575.948V78H573.948ZM536.188 78H534.188V80H536.188V78ZM536.188 21.36V19.36H534.188V21.36H536.188ZM573.948 21.36H575.948V19.36H573.948V21.36ZM573.948 35.52V37.52H575.948V35.52H573.948ZM551.948 35.52V42.48H555.948V35.52H551.948ZM553.948 44.48H571.548V40.48H553.948V44.48ZM569.548 42.48V55.84H573.548V42.48H569.548ZM571.548 53.84H553.948V57.84H571.548V53.84ZM551.948 55.84V63.84H555.948V55.84H551.948ZM553.948 65.84H573.948V61.84H553.948V65.84ZM571.948 63.84V78H575.948V63.84H571.948ZM573.948 76H536.188V80H573.948V76ZM538.188 78V21.36H534.188V78H538.188ZM536.188 23.36H573.948V19.36H536.188V23.36ZM571.948 21.36V35.52H575.948V21.36H571.948ZM573.948 33.52H553.948V37.52H573.948V33.52ZM609.121 78L607.349 78.9278L607.91 80H609.121V78ZM598.481 57.68L600.252 56.7522L599.691 55.68H598.481V57.68ZM598.401 57.68V55.68H596.401V57.68H598.401ZM598.401 78V80H600.401V78H598.401ZM580.641 78H578.641V80H580.641V78ZM580.641 21.36V19.36H578.641V21.36H580.641ZM618.801 23.84L617.895 25.623L617.906 25.6289L617.918 25.6347L618.801 23.84ZM626.081 30.48L624.34 31.4652L624.351 31.4848L624.363 31.5041L626.081 30.48ZM625.361 50L623.743 48.8237L623.736 48.8334L623.729 48.8431L625.361 50ZM616.321 56.32L615.704 54.4176L613.369 55.1746L614.582 57.3081L616.321 56.32ZM628.641 78V80H632.078L630.379 77.0119L628.641 78ZM598.401 45.84H596.401V47.84H598.401V45.84ZM609.281 44.72L610.598 46.2252L610.623 46.2025L610.649 46.1791L609.281 44.72ZM609.201 37.52L607.786 38.9342L607.808 38.9556L607.83 38.9764L609.201 37.52ZM598.401 36.24V34.24H596.401V36.24H598.401ZM610.892 77.0722L600.252 56.7522L596.709 58.6078L607.349 78.9278L610.892 77.0722ZM598.481 55.68H598.401V59.68H598.481V55.68ZM596.401 57.68V78H600.401V57.68H596.401ZM598.401 76H580.641V80H598.401V76ZM582.641 78V21.36H578.641V78H582.641ZM580.641 23.36H607.041V19.36H580.641V23.36ZM607.041 23.36C611.391 23.36 614.985 24.1442 617.895 25.623L619.707 22.057C616.11 20.2291 611.863 19.36 607.041 19.36V23.36ZM617.918 25.6347C620.854 27.0787 622.961 29.0285 624.34 31.4652L627.821 29.4948C626 26.2782 623.254 23.8013 619.683 22.0453L617.918 25.6347ZM624.363 31.5041C625.815 33.9401 626.561 36.727 626.561 39.92H630.561C630.561 36.073 629.653 32.5665 627.799 29.4559L624.363 31.5041ZM626.561 39.92C626.561 43.3038 625.616 46.2479 623.743 48.8237L626.978 51.1763C629.371 47.8855 630.561 44.1095 630.561 39.92H626.561ZM623.729 48.8431C621.935 51.3729 619.306 53.2491 615.704 54.4176L616.938 58.2224C621.228 56.8309 624.626 54.4938 626.992 51.1569L623.729 48.8431ZM614.582 57.3081L626.902 78.9881L630.379 77.0119L618.059 55.3319L614.582 57.3081ZM628.641 76H609.121V80H628.641V76ZM598.401 47.84H605.441V43.84H598.401V47.84ZM605.441 47.84C607.395 47.84 609.234 47.4183 610.598 46.2252L607.964 43.2148C607.621 43.5151 606.9 43.84 605.441 43.84V47.84ZM610.649 46.1791C612.049 44.8664 612.561 43.0126 612.561 41.04H608.561C608.561 42.374 608.219 42.9736 607.913 43.2609L610.649 46.1791ZM612.561 41.04C612.561 39.1141 611.959 37.3693 610.571 36.0636L607.83 38.9764C608.256 39.3774 608.561 39.9793 608.561 41.04H612.561ZM610.615 36.1058C609.265 34.7559 607.424 34.24 605.441 34.24V38.24C606.764 38.24 607.43 38.5774 607.786 38.9342L610.615 36.1058ZM605.441 34.24H598.401V38.24H605.441V34.24ZM596.401 36.24V45.84H600.401V36.24H596.401ZM651.994 21.36H653.994V19.36H651.994V21.36ZM651.994 78V80H653.994V78H651.994ZM634.234 78H632.234V80H634.234V78ZM634.234 21.36V19.36H632.234V21.36H634.234ZM638.154 14.72L636.712 16.1051L636.74 16.1345L636.769 16.1628L638.154 14.72ZM638.154 4.88L636.74 3.46578L636.726 3.48021L636.712 3.49493L638.154 4.88ZM647.994 4.88L646.552 6.26506L646.58 6.2945L646.609 6.32277L647.994 4.88ZM647.994 14.72L649.379 16.1628L649.394 16.1486L649.409 16.1342L647.994 14.72ZM649.994 21.36V78H653.994V21.36H649.994ZM651.994 76H634.234V80H651.994V76ZM636.234 78V21.36H632.234V78H636.234ZM634.234 23.36H651.994V19.36H634.234V23.36ZM643.034 14.64C641.608 14.64 640.485 14.1846 639.539 13.2772L636.769 16.1628C638.491 17.8154 640.62 18.64 643.034 18.64V14.64ZM639.597 13.3349C638.69 12.3898 638.234 11.2659 638.234 9.84H634.234C634.234 12.2541 635.059 14.3835 636.712 16.1051L639.597 13.3349ZM638.234 9.84C638.234 8.34451 638.7 7.19909 639.597 6.26506L636.712 3.49493C635.048 5.22757 634.234 7.38881 634.234 9.84H638.234ZM639.569 6.29421C640.519 5.34355 641.634 4.87999 643.034 4.87999V0.879994C640.595 0.879994 638.456 1.74977 636.74 3.46578L639.569 6.29421ZM643.034 4.87999C644.575 4.87999 645.687 5.36466 646.552 6.26506L649.437 3.49493C647.742 1.72866 645.547 0.879994 643.034 0.879994V4.87999ZM646.609 6.32277C647.51 7.18715 647.994 8.29975 647.994 9.84H651.994C651.994 7.32691 651.146 5.13284 649.379 3.43722L646.609 6.32277ZM647.994 9.84C647.994 11.2404 647.531 12.3551 646.58 13.3058L649.409 16.1342C651.125 14.4182 651.994 12.2796 651.994 9.84H647.994ZM646.609 13.2772C645.675 14.1739 644.53 14.64 643.034 14.64V18.64C645.486 18.64 647.647 17.8261 649.379 16.1628L646.609 13.2772ZM728.096 21.36H730.096V19.36H728.096V21.36ZM728.096 78V80H730.096V78H728.096ZM710.416 78H708.416V80H710.416V78ZM710.416 49.76H712.416L708.505 49.1699L710.416 49.76ZM701.696 78V80H703.171L703.607 78.5901L701.696 78ZM686.496 78L684.585 78.5901L685.02 80H686.496V78ZM677.776 49.76L679.687 49.1699L675.776 49.76H677.776ZM677.776 78V80H679.776V78H677.776ZM660.016 78H658.016V80H660.016V78ZM660.016 21.36V19.36H658.016V21.36H660.016ZM681.776 21.36L683.653 20.6708L683.172 19.36H681.776V21.36ZM694.256 55.36L692.378 56.0492L694.28 61.2307L696.139 56.0335L694.256 55.36ZM706.416 21.36V19.36H705.007L704.532 20.6865L706.416 21.36ZM726.096 21.36V78H730.096V21.36H726.096ZM728.096 76H710.416V80H728.096V76ZM712.416 78V49.76H708.416V78H712.416ZM708.505 49.1699L699.785 77.4099L703.607 78.5901L712.327 50.3501L708.505 49.1699ZM701.696 76H686.496V80H701.696V76ZM688.407 77.4099L679.687 49.1699L675.865 50.3501L684.585 78.5901L688.407 77.4099ZM675.776 49.76V78H679.776V49.76H675.776ZM677.776 76H660.016V80H677.776V76ZM662.016 78V21.36H658.016V78H662.016ZM660.016 23.36H681.776V19.36H660.016V23.36ZM679.898 22.0492L692.378 56.0492L696.133 54.6708L683.653 20.6708L679.898 22.0492ZM696.139 56.0335L708.299 22.0335L704.532 20.6865L692.372 54.6865L696.139 56.0335ZM706.416 23.36H728.096V19.36H706.416V23.36ZM753.869 21.36H755.869V19.36H753.869V21.36ZM753.869 78V80H755.869V78H753.869ZM736.109 78H734.109V80H736.109V78ZM736.109 21.36V19.36H734.109V21.36H736.109ZM740.029 14.72L738.587 16.1051L738.615 16.1345L738.644 16.1628L740.029 14.72ZM740.029 4.88L738.615 3.46578L738.601 3.48021L738.587 3.49493L740.029 4.88ZM749.869 4.88L748.427 6.26506L748.455 6.2945L748.484 6.32277L749.869 4.88ZM749.869 14.72L751.254 16.1628L751.269 16.1486L751.284 16.1342L749.869 14.72ZM751.869 21.36V78H755.869V21.36H751.869ZM753.869 76H736.109V80H753.869V76ZM738.109 78V21.36H734.109V78H738.109ZM736.109 23.36H753.869V19.36H736.109V23.36ZM744.909 14.64C743.483 14.64 742.36 14.1846 741.414 13.2772L738.644 16.1628C740.366 17.8154 742.495 18.64 744.909 18.64V14.64ZM741.472 13.3349C740.565 12.3898 740.109 11.2659 740.109 9.84H736.109C736.109 12.2541 736.934 14.3835 738.587 16.1051L741.472 13.3349ZM740.109 9.84C740.109 8.34451 740.575 7.19909 741.472 6.26506L738.587 3.49493C736.923 5.22757 736.109 7.38881 736.109 9.84H740.109ZM741.444 6.29421C742.394 5.34355 743.509 4.87999 744.909 4.87999V0.879994C742.47 0.879994 740.331 1.74977 738.615 3.46578L741.444 6.29421ZM744.909 4.87999C746.45 4.87999 747.562 5.36466 748.427 6.26506L751.312 3.49493C749.617 1.72866 747.422 0.879994 744.909 0.879994V4.87999ZM748.484 6.32277C749.385 7.18715 749.869 8.29975 749.869 9.84H753.869C753.869 7.32691 753.021 5.13284 751.254 3.43722L748.484 6.32277ZM749.869 9.84C749.869 11.2404 749.406 12.3551 748.455 13.3058L751.284 16.1342C753 14.4182 753.869 12.2796 753.869 9.84H749.869ZM748.484 13.2772C747.55 14.1739 746.405 14.64 744.909 14.64V18.64C747.361 18.64 749.522 17.8261 751.254 16.1628L748.484 13.2772ZM781.571 63.84L779.994 62.6097L777.473 65.84H781.571V63.84ZM804.291 63.84H806.291V61.84H804.291V63.84ZM804.291 78V80H806.291V78H804.291ZM761.891 78H759.891V80H761.891V78ZM761.891 64.64L760.304 63.4227L759.891 63.9612V64.64H761.891ZM784.291 35.44L785.877 36.6573L788.346 33.44H784.291V35.44ZM761.891 35.44H759.891V37.44H761.891V35.44ZM761.891 21.36V19.36H759.891V21.36H761.891ZM804.291 21.36H806.291V19.36H804.291V21.36ZM804.291 34.72L805.867 35.9503L806.291 35.4079V34.72H804.291ZM781.571 65.84H804.291V61.84H781.571V65.84ZM802.291 63.84V78H806.291V63.84H802.291ZM804.291 76H761.891V80H804.291V76ZM763.891 78V64.64H759.891V78H763.891ZM763.477 65.8573L785.877 36.6573L782.704 34.2227L760.304 63.4227L763.477 65.8573ZM784.291 33.44H761.891V37.44H784.291V33.44ZM763.891 35.44V21.36H759.891V35.44H763.891ZM761.891 23.36H804.291V19.36H761.891V23.36ZM802.291 21.36V34.72H806.291V21.36H802.291ZM802.714 33.4897L779.994 62.6097L783.147 65.0703L805.867 35.9503L802.714 33.4897Z" fill="white" mask="url(#path-2-inside-1_435_30092)"/>
</g>
<g opacity="0.75">
<mask id="path-4-inside-2_435_30092" fill="white">
<path d="M186.76 48.36V105H169V48.36H186.76ZM177.8 43.64C175.88 43.64 174.253 43 172.92 41.72C171.64 40.3867 171 38.76 171 36.84C171 34.8667 171.64 33.2133 172.92 31.88C174.253 30.5467 175.88 29.88 177.8 29.88C179.827 29.88 181.48 30.5467 182.76 31.88C184.093 33.16 184.76 34.8133 184.76 36.84C184.76 38.76 184.093 40.3867 182.76 41.72C181.427 43 179.773 43.64 177.8 43.64ZM238.541 87.48C238.541 92.12 237.048 96.04 234.061 99.24C231.128 102.44 227.021 104.44 221.741 105.24V107.72C223.235 107.72 224.781 108.013 226.381 108.6C227.981 109.24 229.341 110.28 230.461 111.72C231.581 113.213 232.141 115.133 232.141 117.48C232.141 120.947 230.941 123.427 228.541 124.92C226.141 126.467 223.341 127.24 220.141 127.24H206.301V118.2H218.301C218.941 118.2 219.448 118.067 219.821 117.8C220.195 117.587 220.381 117.293 220.381 116.92C220.381 116.12 219.688 115.72 218.301 115.72H211.501V105.16C206.168 104.36 201.848 102.413 198.541 99.32C195.235 96.2267 193.395 92.0667 193.021 86.84H211.901C212.168 90.0933 213.608 91.72 216.221 91.72C217.181 91.72 217.981 91.5067 218.621 91.08C219.315 90.6 219.661 89.88 219.661 88.92C219.661 87.5867 218.941 86.52 217.501 85.72C216.061 84.8667 213.821 83.9067 210.781 82.84C207.155 81.56 204.141 80.3067 201.741 79.08C199.395 77.8533 197.368 76.0667 195.661 73.72C193.955 71.3733 193.128 68.36 193.181 64.68C193.181 61 194.115 57.88 195.981 55.32C197.901 52.7067 200.488 50.7333 203.741 49.4C207.048 48.0667 210.755 47.4 214.861 47.4C221.795 47.4 227.288 49 231.341 52.2C235.448 55.4 237.608 59.9067 237.821 65.72H218.701C218.648 64.12 218.248 62.9733 217.501 62.28C216.755 61.5867 215.848 61.24 214.781 61.24C214.035 61.24 213.421 61.5067 212.941 62.04C212.461 62.52 212.221 63.2133 212.221 64.12C212.221 65.4 212.915 66.4667 214.301 67.32C215.741 68.12 218.008 69.1067 221.101 70.28C224.675 71.6133 227.608 72.8933 229.901 74.12C232.248 75.3467 234.275 77.0533 235.981 79.24C237.688 81.4267 238.541 84.1733 238.541 87.48ZM289.261 48.36V62.44H274.221V105H256.461V62.44H241.581V48.36H289.261ZM311.838 48.36V105H294.078V48.36H311.838ZM302.878 43.64C300.958 43.64 299.331 43 297.998 41.72C296.718 40.3867 296.078 38.76 296.078 36.84C296.078 34.8667 296.718 33.2133 297.998 31.88C299.331 30.5467 300.958 29.88 302.878 29.88C304.905 29.88 306.558 30.5467 307.838 31.88C309.171 33.16 309.838 34.8133 309.838 36.84C309.838 38.76 309.171 40.3867 307.838 41.72C306.505 43 304.851 43.64 302.878 43.64ZM348.339 105L337.699 84.68H337.619V105H319.859V48.36H346.259C350.846 48.36 354.766 49.1867 358.019 50.84C361.273 52.44 363.699 54.6533 365.299 57.48C366.953 60.2533 367.779 63.4 367.779 66.92C367.779 70.7067 366.713 74.0667 364.579 77C362.499 79.9333 359.486 82.04 355.539 83.32L367.859 105H348.339ZM337.619 72.84H344.659C346.366 72.84 347.646 72.4667 348.499 71.72C349.353 70.92 349.779 69.6933 349.779 68.04C349.779 66.5467 349.326 65.3733 348.419 64.52C347.566 63.6667 346.313 63.24 344.659 63.24H337.619V72.84ZM409.773 96.44H390.893L388.093 105H369.453L390.173 48.36H410.653L431.293 105H412.573L409.773 96.44ZM405.453 83.08L400.333 67.32L395.213 83.08H405.453ZM469.568 105L453.088 80.44V105H435.328V48.36H453.088V72.2L469.328 48.36H489.408L469.888 75.48L490.688 105H469.568ZM513.479 91.56H530.599V105H495.719V48.36H513.479V91.56ZM553.948 62.52V69.48H571.548V82.84H553.948V90.84H573.948V105H536.188V48.36H573.948V62.52H553.948ZM609.121 105L598.481 84.68H598.401V105H580.641V48.36H607.041C611.627 48.36 615.547 49.1867 618.801 50.84C622.054 52.44 624.481 54.6533 626.081 57.48C627.734 60.2533 628.561 63.4 628.561 66.92C628.561 70.7067 627.494 74.0667 625.361 77C623.281 79.9333 620.267 82.04 616.321 83.32L628.641 105H609.121ZM598.401 72.84H605.441C607.147 72.84 608.427 72.4667 609.281 71.72C610.134 70.92 610.561 69.6933 610.561 68.04C610.561 66.5467 610.107 65.3733 609.201 64.52C608.347 63.6667 607.094 63.24 605.441 63.24H598.401V72.84ZM651.994 48.36V105H634.234V48.36H651.994ZM643.034 43.64C641.114 43.64 639.488 43 638.154 41.72C636.874 40.3867 636.234 38.76 636.234 36.84C636.234 34.8667 636.874 33.2133 638.154 31.88C639.488 30.5467 641.114 29.88 643.034 29.88C645.061 29.88 646.714 30.5467 647.994 31.88C649.328 33.16 649.994 34.8133 649.994 36.84C649.994 38.76 649.328 40.3867 647.994 41.72C646.661 43 645.008 43.64 643.034 43.64ZM728.096 48.36V105H710.416V76.76L701.696 105H686.496L677.776 76.76V105H660.016V48.36H681.776L694.256 82.36L706.416 48.36H728.096ZM753.869 48.36V105H736.109V48.36H753.869ZM744.909 43.64C742.989 43.64 741.363 43 740.029 41.72C738.749 40.3867 738.109 38.76 738.109 36.84C738.109 34.8667 738.749 33.2133 740.029 31.88C741.363 30.5467 742.989 29.88 744.909 29.88C746.936 29.88 748.589 30.5467 749.869 31.88C751.203 33.16 751.869 34.8133 751.869 36.84C751.869 38.76 751.203 40.3867 749.869 41.72C748.536 43 746.883 43.64 744.909 43.64ZM781.571 90.84H804.291V105H761.891V91.64L784.291 62.44H761.891V48.36H804.291V61.72L781.571 90.84Z"/>
</mask>
<path d="M186.76 48.36H188.76V46.36H186.76V48.36ZM186.76 105V107H188.76V105H186.76ZM169 105H167V107H169V105ZM169 48.36V46.36H167V48.36H169ZM172.92 41.72L171.477 43.1051L171.505 43.1345L171.535 43.1628L172.92 41.72ZM172.92 31.88L171.506 30.4658L171.491 30.4802L171.477 30.4949L172.92 31.88ZM182.76 31.88L181.317 33.2651L181.345 33.2945L181.375 33.3228L182.76 31.88ZM182.76 41.72L184.145 43.1628L184.16 43.1486L184.174 43.1342L182.76 41.72ZM184.76 48.36V105H188.76V48.36H184.76ZM186.76 103H169V107H186.76V103ZM171 105V48.36H167V105H171ZM169 50.36H186.76V46.36H169V50.36ZM177.8 41.64C176.374 41.64 175.25 41.1846 174.305 40.2772L171.535 43.1628C173.256 44.8154 175.386 45.64 177.8 45.64V41.64ZM174.363 40.3349C173.455 39.3898 173 38.2659 173 36.84H169C169 39.2541 169.825 41.3835 171.477 43.1051L174.363 40.3349ZM173 36.84C173 35.3445 173.466 34.1991 174.363 33.2651L171.477 30.4949C169.814 32.2276 169 34.3888 169 36.84H173ZM174.334 33.2942C175.285 32.3436 176.4 31.88 177.8 31.88V27.88C175.36 27.88 173.222 28.7498 171.506 30.4658L174.334 33.2942ZM177.8 31.88C179.34 31.88 180.453 32.3647 181.317 33.2651L184.203 30.4949C182.507 28.7287 180.313 27.88 177.8 27.88V31.88ZM181.375 33.3228C182.275 34.1872 182.76 35.2997 182.76 36.84H186.76C186.76 34.3269 185.911 32.1328 184.145 30.4372L181.375 33.3228ZM182.76 36.84C182.76 38.2404 182.296 39.3551 181.346 40.3058L184.174 43.1342C185.89 41.4182 186.76 39.2796 186.76 36.84H182.76ZM181.375 40.2772C180.441 41.1739 179.295 41.64 177.8 41.64V45.64C180.251 45.64 182.412 44.8261 184.145 43.1628L181.375 40.2772ZM234.061 99.24L232.599 97.8754L232.593 97.8819L232.587 97.8886L234.061 99.24ZM221.741 105.24L221.442 103.263L219.741 103.52V105.24H221.741ZM221.741 107.72H219.741V109.72H221.741V107.72ZM226.381 108.6L227.124 106.743L227.097 106.732L227.07 106.722L226.381 108.6ZM230.461 111.72L232.061 110.52L232.051 110.506L232.04 110.492L230.461 111.72ZM228.541 124.92L227.485 123.222L227.471 123.23L227.458 123.239L228.541 124.92ZM206.301 127.24H204.301V129.24H206.301V127.24ZM206.301 118.2V116.2H204.301V118.2H206.301ZM219.821 117.8L218.829 116.064L218.741 116.114L218.659 116.173L219.821 117.8ZM211.501 115.72H209.501V117.72H211.501V115.72ZM211.501 105.16H213.501V103.438L211.798 103.182L211.501 105.16ZM198.541 99.32L197.175 100.781L197.175 100.781L198.541 99.32ZM193.021 86.84V84.84H190.873L191.026 86.9825L193.021 86.84ZM211.901 86.84L213.895 86.6766L213.744 84.84H211.901V86.84ZM218.621 91.08L219.731 92.7441L219.745 92.7344L219.76 92.7244L218.621 91.08ZM217.501 85.72L216.482 87.4406L216.506 87.4548L216.53 87.4683L217.501 85.72ZM210.781 82.84L210.116 84.726L210.119 84.7272L210.781 82.84ZM201.741 79.08L200.815 80.8525L200.823 80.8567L200.831 80.8609L201.741 79.08ZM195.661 73.72L197.279 72.5437L197.279 72.5437L195.661 73.72ZM193.181 64.68L195.181 64.709L195.181 64.6945V64.68H193.181ZM195.981 55.32L194.369 54.1358L194.365 54.1417L195.981 55.32ZM203.741 49.4L202.993 47.5451L202.983 47.5494L203.741 49.4ZM231.341 52.2L230.102 53.7698L230.112 53.7776L231.341 52.2ZM237.821 65.72V67.72H239.896L239.82 65.6467L237.821 65.72ZM218.701 65.72L216.702 65.7866L216.767 67.72H218.701V65.72ZM212.941 62.04L214.355 63.4542L214.393 63.417L214.428 63.3779L212.941 62.04ZM214.301 67.32L213.253 69.0233L213.291 69.0467L213.33 69.0683L214.301 67.32ZM221.101 70.28L220.392 72.15L220.402 72.1538L221.101 70.28ZM229.901 74.12L228.958 75.8836L228.966 75.888L228.975 75.8925L229.901 74.12ZM235.981 79.24L234.405 80.4705L234.405 80.4705L235.981 79.24ZM236.541 87.48C236.541 91.6468 235.218 95.0694 232.599 97.8754L235.523 100.605C238.878 97.0106 240.541 92.5932 240.541 87.48H236.541ZM232.587 97.8886C230.028 100.68 226.377 102.515 221.442 103.263L222.041 107.217C227.665 106.365 232.228 104.2 235.536 100.591L232.587 97.8886ZM219.741 105.24V107.72H223.741V105.24H219.741ZM221.741 109.72C222.969 109.72 224.283 109.961 225.693 110.478L227.07 106.722C225.28 106.066 223.5 105.72 221.741 105.72V109.72ZM225.638 110.457C226.889 110.957 227.967 111.771 228.883 112.948L232.04 110.492C230.715 108.789 229.073 107.523 227.124 106.743L225.638 110.457ZM228.861 112.92C229.661 113.987 230.141 115.453 230.141 117.48H234.141C234.141 114.813 233.501 112.44 232.061 110.52L228.861 112.92ZM230.141 117.48C230.141 120.436 229.159 122.18 227.485 123.222L229.598 126.618C232.723 124.673 234.141 121.457 234.141 117.48H230.141ZM227.458 123.239C225.419 124.553 223.005 125.24 220.141 125.24V129.24C223.678 129.24 226.864 128.38 229.625 126.601L227.458 123.239ZM220.141 125.24H206.301V129.24H220.141V125.24ZM208.301 127.24V118.2H204.301V127.24H208.301ZM206.301 120.2H218.301V116.2H206.301V120.2ZM218.301 120.2C219.198 120.2 220.161 120.015 220.984 119.427L218.659 116.173C218.735 116.118 218.684 116.2 218.301 116.2V120.2ZM220.814 119.536C221.697 119.032 222.381 118.133 222.381 116.92H218.381C218.381 116.756 218.428 116.544 218.554 116.346C218.672 116.161 218.799 116.08 218.829 116.064L220.814 119.536ZM222.381 116.92C222.381 115.805 221.826 114.845 220.861 114.288C220.062 113.827 219.121 113.72 218.301 113.72V117.72C218.558 117.72 218.729 117.739 218.834 117.759C218.941 117.78 218.932 117.793 218.862 117.752C218.779 117.704 218.634 117.594 218.52 117.396C218.405 117.197 218.381 117.016 218.381 116.92H222.381ZM218.301 113.72H211.501V117.72H218.301V113.72ZM213.501 115.72V105.16H209.501V115.72H213.501ZM211.798 103.182C206.787 102.431 202.865 100.627 199.908 97.8595L197.175 100.781C200.83 104.2 205.549 106.289 211.205 107.138L211.798 103.182ZM199.908 97.8595C197.027 95.1644 195.36 91.5059 195.016 86.6975L191.026 86.9825C191.43 92.6274 193.443 97.2889 197.175 100.781L199.908 97.8595ZM193.021 88.84H211.901V84.84H193.021V88.84ZM209.908 87.0034C210.06 88.8553 210.565 90.5624 211.684 91.8257C212.86 93.1544 214.469 93.72 216.221 93.72V89.72C215.36 89.72 214.943 89.4723 214.679 89.1743C214.357 88.811 214.009 88.0781 213.895 86.6766L209.908 87.0034ZM216.221 93.72C217.478 93.72 218.689 93.4386 219.731 92.7441L217.512 89.4159C217.274 89.5748 216.885 89.72 216.221 89.72V93.72ZM219.76 92.7244C221.074 91.8146 221.661 90.4309 221.661 88.92H217.661C217.661 89.1593 217.619 89.2721 217.599 89.3124C217.585 89.343 217.561 89.3814 217.483 89.4356L219.76 92.7244ZM221.661 88.92C221.661 86.679 220.371 85.0266 218.473 83.9717L216.53 87.4683C217.511 88.0134 217.661 88.4943 217.661 88.92H221.661ZM218.521 83.9994C216.907 83.0429 214.516 82.0309 211.443 80.9528L210.119 84.7272C213.126 85.7824 215.216 86.6904 216.482 87.4406L218.521 83.9994ZM211.447 80.954C207.872 79.6922 204.947 78.4724 202.651 77.2991L200.831 80.8609C203.336 82.141 206.437 83.4278 210.116 84.726L211.447 80.954ZM202.668 77.3075C200.62 76.237 198.822 74.6653 197.279 72.5437L194.044 74.8963C195.914 77.468 198.169 79.4697 200.815 80.8525L202.668 77.3075ZM197.279 72.5437C195.888 70.6311 195.132 68.0737 195.181 64.709L191.181 64.651C191.124 68.6463 192.021 72.1156 194.044 74.8963L197.279 72.5437ZM195.181 64.68C195.181 61.3527 196.019 58.663 197.597 56.4983L194.365 54.1417C192.21 57.097 191.181 60.6473 191.181 64.68H195.181ZM197.593 56.5041C199.277 54.2121 201.557 52.4566 204.5 51.2506L202.983 47.5494C199.419 49.01 196.525 51.2013 194.369 54.1358L197.593 56.5041ZM204.489 51.2549C207.525 50.0308 210.972 49.4 214.861 49.4V45.4C210.537 45.4 206.571 46.1025 202.993 47.5451L204.489 51.2549ZM214.861 49.4C221.498 49.4 226.506 50.9306 230.102 53.7698L232.581 50.6302C228.07 47.0694 222.091 45.4 214.861 45.4V49.4ZM230.112 53.7776C233.694 56.569 235.628 60.4924 235.823 65.7933L239.82 65.6467C239.588 59.3209 237.202 54.231 232.571 50.6224L230.112 53.7776ZM237.821 63.72H218.701V67.72H237.821V63.72ZM220.7 65.6534C220.639 63.816 220.173 62.0314 218.862 60.8144L216.14 63.7456C216.323 63.9153 216.657 64.424 216.702 65.7866L220.7 65.6534ZM218.862 60.8144C217.727 59.7602 216.327 59.24 214.781 59.24V63.24C215.369 63.24 215.782 63.4131 216.14 63.7456L218.862 60.8144ZM214.781 59.24C213.494 59.24 212.331 59.7283 211.455 60.7021L214.428 63.3779C214.511 63.2851 214.575 63.24 214.781 63.24V59.24ZM211.527 60.6258C210.559 61.5934 210.221 62.8667 210.221 64.12H214.221C214.221 63.8389 214.259 63.6675 214.291 63.5742C214.32 63.4901 214.346 63.4632 214.355 63.4542L211.527 60.6258ZM210.221 64.12C210.221 66.2862 211.459 67.9192 213.253 69.0233L215.349 65.6167C214.37 65.0141 214.221 64.5138 214.221 64.12H210.221ZM213.33 69.0683C214.901 69.9414 217.279 70.9693 220.392 72.15L221.811 68.41C218.737 67.244 216.581 66.2986 215.273 65.5717L213.33 69.0683ZM220.402 72.1538C223.926 73.4689 226.771 74.7135 228.958 75.8836L230.845 72.3564C228.445 71.0731 225.423 69.7578 221.8 68.4062L220.402 72.1538ZM228.975 75.8925C231.057 76.9806 232.865 78.4979 234.405 80.4705L237.558 78.0095C235.684 75.6088 233.439 73.7127 230.828 72.3475L228.975 75.8925ZM234.405 80.4705C235.787 82.2416 236.541 84.5305 236.541 87.48H240.541C240.541 83.8161 239.589 80.6117 237.558 78.0095L234.405 80.4705ZM289.261 48.36H291.261V46.36H289.261V48.36ZM289.261 62.44V64.44H291.261V62.44H289.261ZM274.221 62.44V60.44H272.221V62.44H274.221ZM274.221 105V107H276.221V105H274.221ZM256.461 105H254.461V107H256.461V105ZM256.461 62.44H258.461V60.44H256.461V62.44ZM241.581 62.44H239.581V64.44H241.581V62.44ZM241.581 48.36V46.36H239.581V48.36H241.581ZM287.261 48.36V62.44H291.261V48.36H287.261ZM289.261 60.44H274.221V64.44H289.261V60.44ZM272.221 62.44V105H276.221V62.44H272.221ZM274.221 103H256.461V107H274.221V103ZM258.461 105V62.44H254.461V105H258.461ZM256.461 60.44H241.581V64.44H256.461V60.44ZM243.581 62.44V48.36H239.581V62.44H243.581ZM241.581 50.36H289.261V46.36H241.581V50.36ZM311.838 48.36H313.838V46.36H311.838V48.36ZM311.838 105V107H313.838V105H311.838ZM294.078 105H292.078V107H294.078V105ZM294.078 48.36V46.36H292.078V48.36H294.078ZM297.998 41.72L296.555 43.1051L296.584 43.1345L296.613 43.1628L297.998 41.72ZM297.998 31.88L296.584 30.4658L296.569 30.4802L296.555 30.4949L297.998 31.88ZM307.838 31.88L306.395 33.2651L306.424 33.2945L306.453 33.3228L307.838 31.88ZM307.838 41.72L309.223 43.1628L309.238 43.1486L309.252 43.1342L307.838 41.72ZM309.838 48.36V105H313.838V48.36H309.838ZM311.838 103H294.078V107H311.838V103ZM296.078 105V48.36H292.078V105H296.078ZM294.078 50.36H311.838V46.36H294.078V50.36ZM302.878 41.64C301.452 41.64 300.328 41.1846 299.383 40.2772L296.613 43.1628C298.335 44.8154 300.464 45.64 302.878 45.64V41.64ZM299.441 40.3349C298.534 39.3898 298.078 38.2659 298.078 36.84H294.078C294.078 39.2541 294.903 41.3835 296.555 43.1051L299.441 40.3349ZM298.078 36.84C298.078 35.3445 298.544 34.1991 299.441 33.2651L296.555 30.4949C294.892 32.2276 294.078 34.3888 294.078 36.84H298.078ZM299.412 33.2942C300.363 32.3436 301.478 31.88 302.878 31.88V27.88C300.439 27.88 298.3 28.7498 296.584 30.4658L299.412 33.2942ZM302.878 31.88C304.418 31.88 305.531 32.3647 306.395 33.2651L309.281 30.4949C307.585 28.7287 305.391 27.88 302.878 27.88V31.88ZM306.453 33.3228C307.353 34.1872 307.838 35.2997 307.838 36.84H311.838C311.838 34.3269 310.989 32.1328 309.223 30.4372L306.453 33.3228ZM307.838 36.84C307.838 38.2404 307.375 39.3551 306.424 40.3058L309.252 43.1342C310.968 41.4182 311.838 39.2796 311.838 36.84H307.838ZM306.453 40.2772C305.519 41.1739 304.374 41.64 302.878 41.64V45.64C305.329 45.64 307.491 44.8261 309.223 43.1628L306.453 40.2772ZM348.339 105L346.568 105.928L347.129 107H348.339V105ZM337.699 84.68L339.471 83.7522L338.91 82.68H337.699V84.68ZM337.619 84.68V82.68H335.619V84.68H337.619ZM337.619 105V107H339.619V105H337.619ZM319.859 105H317.859V107H319.859V105ZM319.859 48.36V46.36H317.859V48.36H319.859ZM358.019 50.84L357.113 52.623L357.125 52.6289L357.137 52.6347L358.019 50.84ZM365.299 57.48L363.559 58.4652L363.57 58.4848L363.581 58.5041L365.299 57.48ZM364.579 77L362.962 75.8237L362.955 75.8334L362.948 75.8431L364.579 77ZM355.539 83.32L354.922 81.4176L352.588 82.1746L353.801 84.3081L355.539 83.32ZM367.859 105V107H371.296L369.598 104.012L367.859 105ZM337.619 72.84H335.619V74.84H337.619V72.84ZM348.499 71.72L349.816 73.2252L349.842 73.2025L349.867 73.1791L348.499 71.72ZM348.419 64.52L347.005 65.9342L347.027 65.9556L347.049 65.9764L348.419 64.52ZM337.619 63.24V61.24H335.619V63.24H337.619ZM350.111 104.072L339.471 83.7522L335.928 85.6078L346.568 105.928L350.111 104.072ZM337.699 82.68H337.619V86.68H337.699V82.68ZM335.619 84.68V105H339.619V84.68H335.619ZM337.619 103H319.859V107H337.619V103ZM321.859 105V48.36H317.859V105H321.859ZM319.859 50.36H346.259V46.36H319.859V50.36ZM346.259 50.36C350.61 50.36 354.204 51.1442 357.113 52.623L358.925 49.057C355.329 47.2291 351.082 46.36 346.259 46.36V50.36ZM357.137 52.6347C360.073 54.0787 362.18 56.0285 363.559 58.4652L367.04 56.4948C365.219 53.2782 362.473 50.8013 358.902 49.0453L357.137 52.6347ZM363.581 58.5041C365.034 60.9401 365.779 63.727 365.779 66.92H369.779C369.779 63.073 368.872 59.5665 367.017 56.4559L363.581 58.5041ZM365.779 66.92C365.779 70.3038 364.835 73.2479 362.962 75.8237L366.197 78.1763C368.59 74.8855 369.779 71.1095 369.779 66.92H365.779ZM362.948 75.8431C361.154 78.3729 358.525 80.2491 354.922 81.4176L356.156 85.2224C360.447 83.8309 363.845 81.4938 366.211 78.1569L362.948 75.8431ZM353.801 84.3081L366.121 105.988L369.598 104.012L357.278 82.3319L353.801 84.3081ZM367.859 103H348.339V107H367.859V103ZM337.619 74.84H344.659V70.84H337.619V74.84ZM344.659 74.84C346.614 74.84 348.453 74.4183 349.816 73.2252L347.182 70.2148C346.839 70.5151 346.118 70.84 344.659 70.84V74.84ZM349.867 73.1791C351.267 71.8664 351.779 70.0126 351.779 68.04H347.779C347.779 69.374 347.438 69.9736 347.131 70.2609L349.867 73.1791ZM351.779 68.04C351.779 66.1141 351.177 64.3693 349.79 63.0636L347.049 65.9764C347.475 66.3774 347.779 66.9793 347.779 68.04H351.779ZM349.834 63.1058C348.484 61.7559 346.642 61.24 344.659 61.24V65.24C345.983 65.24 346.648 65.5774 347.005 65.9342L349.834 63.1058ZM344.659 61.24H337.619V65.24H344.659V61.24ZM335.619 63.24V72.84H339.619V63.24H335.619ZM409.773 96.44L411.674 95.8182L411.223 94.44H409.773V96.44ZM390.893 96.44V94.44H389.443L388.992 95.8182L390.893 96.44ZM388.093 105V107H389.543L389.994 105.622L388.093 105ZM369.453 105L367.575 104.313L366.592 107H369.453V105ZM390.173 48.36V46.36H388.775L388.295 47.6729L390.173 48.36ZM410.653 48.36L412.532 47.6752L412.053 46.36H410.653V48.36ZM431.293 105V107H434.151L433.172 104.315L431.293 105ZM412.573 105L410.672 105.622L411.123 107H412.573V105ZM405.453 83.08V85.08H408.206L407.355 82.462L405.453 83.08ZM400.333 67.32L402.235 66.702L400.333 60.847L398.431 66.702L400.333 67.32ZM395.213 83.08L393.311 82.462L392.46 85.08H395.213V83.08ZM409.773 94.44H390.893V98.44H409.773V94.44ZM388.992 95.8182L386.192 104.378L389.994 105.622L392.794 97.0618L388.992 95.8182ZM388.093 103H369.453V107H388.093V103ZM371.331 105.687L392.051 49.0471L388.295 47.6729L367.575 104.313L371.331 105.687ZM390.173 50.36H410.653V46.36H390.173V50.36ZM408.774 49.0448L429.414 105.685L433.172 104.315L412.532 47.6752L408.774 49.0448ZM431.293 103H412.573V107H431.293V103ZM414.474 104.378L411.674 95.8182L407.872 97.0618L410.672 105.622L414.474 104.378ZM407.355 82.462L402.235 66.702L398.431 67.938L403.551 83.698L407.355 82.462ZM398.431 66.702L393.311 82.462L397.115 83.698L402.235 67.938L398.431 66.702ZM395.213 85.08H405.453V81.08H395.213V85.08ZM469.568 105L467.907 106.114L468.502 107H469.568V105ZM453.088 80.44L454.749 79.3256L451.088 73.87V80.44H453.088ZM453.088 105V107H455.088V105H453.088ZM435.328 105H433.328V107H435.328V105ZM435.328 48.36V46.36H433.328V48.36H435.328ZM453.088 48.36H455.088V46.36H453.088V48.36ZM453.088 72.2H451.088V78.6884L454.741 73.326L453.088 72.2ZM469.328 48.36V46.36H468.271L467.675 47.234L469.328 48.36ZM489.408 48.36L491.031 49.5284L493.312 46.36H489.408V48.36ZM469.888 75.48L468.265 74.3116L467.433 75.4677L468.253 76.632L469.888 75.48ZM490.688 105V107H494.544L492.323 103.848L490.688 105ZM471.229 103.886L454.749 79.3256L451.427 81.5544L467.907 106.114L471.229 103.886ZM451.088 80.44V105H455.088V80.44H451.088ZM453.088 103H435.328V107H453.088V103ZM437.328 105V48.36H433.328V105H437.328ZM435.328 50.36H453.088V46.36H435.328V50.36ZM451.088 48.36V72.2H455.088V48.36H451.088ZM454.741 73.326L470.981 49.486L467.675 47.234L451.435 71.074L454.741 73.326ZM469.328 50.36H489.408V46.36H469.328V50.36ZM487.785 47.1916L468.265 74.3116L471.511 76.6484L491.031 49.5284L487.785 47.1916ZM468.253 76.632L489.053 106.152L492.323 103.848L471.523 74.328L468.253 76.632ZM490.688 103H469.568V107H490.688V103ZM513.479 91.56H511.479V93.56H513.479V91.56ZM530.599 91.56H532.599V89.56H530.599V91.56ZM530.599 105V107H532.599V105H530.599ZM495.719 105H493.719V107H495.719V105ZM495.719 48.36V46.36H493.719V48.36H495.719ZM513.479 48.36H515.479V46.36H513.479V48.36ZM513.479 93.56H530.599V89.56H513.479V93.56ZM528.599 91.56V105H532.599V91.56H528.599ZM530.599 103H495.719V107H530.599V103ZM497.719 105V48.36H493.719V105H497.719ZM495.719 50.36H513.479V46.36H495.719V50.36ZM511.479 48.36V91.56H515.479V48.36H511.479ZM553.948 62.52V60.52H551.948V62.52H553.948ZM553.948 69.48H551.948V71.48H553.948V69.48ZM571.548 69.48H573.548V67.48H571.548V69.48ZM571.548 82.84V84.84H573.548V82.84H571.548ZM553.948 82.84V80.84H551.948V82.84H553.948ZM553.948 90.84H551.948V92.84H553.948V90.84ZM573.948 90.84H575.948V88.84H573.948V90.84ZM573.948 105V107H575.948V105H573.948ZM536.188 105H534.188V107H536.188V105ZM536.188 48.36V46.36H534.188V48.36H536.188ZM573.948 48.36H575.948V46.36H573.948V48.36ZM573.948 62.52V64.52H575.948V62.52H573.948ZM551.948 62.52V69.48H555.948V62.52H551.948ZM553.948 71.48H571.548V67.48H553.948V71.48ZM569.548 69.48V82.84H573.548V69.48H569.548ZM571.548 80.84H553.948V84.84H571.548V80.84ZM551.948 82.84V90.84H555.948V82.84H551.948ZM553.948 92.84H573.948V88.84H553.948V92.84ZM571.948 90.84V105H575.948V90.84H571.948ZM573.948 103H536.188V107H573.948V103ZM538.188 105V48.36H534.188V105H538.188ZM536.188 50.36H573.948V46.36H536.188V50.36ZM571.948 48.36V62.52H575.948V48.36H571.948ZM573.948 60.52H553.948V64.52H573.948V60.52ZM609.121 105L607.349 105.928L607.91 107H609.121V105ZM598.481 84.68L600.252 83.7522L599.691 82.68H598.481V84.68ZM598.401 84.68V82.68H596.401V84.68H598.401ZM598.401 105V107H600.401V105H598.401ZM580.641 105H578.641V107H580.641V105ZM580.641 48.36V46.36H578.641V48.36H580.641ZM618.801 50.84L617.895 52.623L617.906 52.6289L617.918 52.6347L618.801 50.84ZM626.081 57.48L624.34 58.4652L624.351 58.4848L624.363 58.5041L626.081 57.48ZM625.361 77L623.743 75.8237L623.736 75.8334L623.729 75.8431L625.361 77ZM616.321 83.32L615.704 81.4176L613.369 82.1746L614.582 84.3081L616.321 83.32ZM628.641 105V107H632.078L630.379 104.012L628.641 105ZM598.401 72.84H596.401V74.84H598.401V72.84ZM609.281 71.72L610.598 73.2252L610.623 73.2025L610.649 73.1791L609.281 71.72ZM609.201 64.52L607.786 65.9342L607.808 65.9556L607.83 65.9764L609.201 64.52ZM598.401 63.24V61.24H596.401V63.24H598.401ZM610.892 104.072L600.252 83.7522L596.709 85.6078L607.349 105.928L610.892 104.072ZM598.481 82.68H598.401V86.68H598.481V82.68ZM596.401 84.68V105H600.401V84.68H596.401ZM598.401 103H580.641V107H598.401V103ZM582.641 105V48.36H578.641V105H582.641ZM580.641 50.36H607.041V46.36H580.641V50.36ZM607.041 50.36C611.391 50.36 614.985 51.1442 617.895 52.623L619.707 49.057C616.11 47.2291 611.863 46.36 607.041 46.36V50.36ZM617.918 52.6347C620.854 54.0787 622.961 56.0285 624.34 58.4652L627.821 56.4948C626 53.2782 623.254 50.8013 619.683 49.0453L617.918 52.6347ZM624.363 58.5041C625.815 60.9401 626.561 63.727 626.561 66.92H630.561C630.561 63.073 629.653 59.5665 627.799 56.4559L624.363 58.5041ZM626.561 66.92C626.561 70.3038 625.616 73.2479 623.743 75.8237L626.978 78.1763C629.371 74.8855 630.561 71.1095 630.561 66.92H626.561ZM623.729 75.8431C621.935 78.3729 619.306 80.2491 615.704 81.4176L616.938 85.2224C621.228 83.8309 624.626 81.4938 626.992 78.1569L623.729 75.8431ZM614.582 84.3081L626.902 105.988L630.379 104.012L618.059 82.3319L614.582 84.3081ZM628.641 103H609.121V107H628.641V103ZM598.401 74.84H605.441V70.84H598.401V74.84ZM605.441 74.84C607.395 74.84 609.234 74.4183 610.598 73.2252L607.964 70.2148C607.621 70.5151 606.9 70.84 605.441 70.84V74.84ZM610.649 73.1791C612.049 71.8664 612.561 70.0126 612.561 68.04H608.561C608.561 69.374 608.219 69.9736 607.913 70.2609L610.649 73.1791ZM612.561 68.04C612.561 66.1141 611.959 64.3693 610.571 63.0636L607.83 65.9764C608.256 66.3774 608.561 66.9793 608.561 68.04H612.561ZM610.615 63.1058C609.265 61.7559 607.424 61.24 605.441 61.24V65.24C606.764 65.24 607.43 65.5774 607.786 65.9342L610.615 63.1058ZM605.441 61.24H598.401V65.24H605.441V61.24ZM596.401 63.24V72.84H600.401V63.24H596.401ZM651.994 48.36H653.994V46.36H651.994V48.36ZM651.994 105V107H653.994V105H651.994ZM634.234 105H632.234V107H634.234V105ZM634.234 48.36V46.36H632.234V48.36H634.234ZM638.154 41.72L636.712 43.1051L636.74 43.1345L636.769 43.1628L638.154 41.72ZM638.154 31.88L636.74 30.4658L636.726 30.4802L636.712 30.4949L638.154 31.88ZM647.994 31.88L646.552 33.2651L646.58 33.2945L646.609 33.3228L647.994 31.88ZM647.994 41.72L649.379 43.1628L649.394 43.1486L649.409 43.1342L647.994 41.72ZM649.994 48.36V105H653.994V48.36H649.994ZM651.994 103H634.234V107H651.994V103ZM636.234 105V48.36H632.234V105H636.234ZM634.234 50.36H651.994V46.36H634.234V50.36ZM643.034 41.64C641.608 41.64 640.485 41.1846 639.539 40.2772L636.769 43.1628C638.491 44.8154 640.62 45.64 643.034 45.64V41.64ZM639.597 40.3349C638.69 39.3898 638.234 38.2659 638.234 36.84H634.234C634.234 39.2541 635.059 41.3835 636.712 43.1051L639.597 40.3349ZM638.234 36.84C638.234 35.3445 638.7 34.1991 639.597 33.2651L636.712 30.4949C635.048 32.2276 634.234 34.3888 634.234 36.84H638.234ZM639.569 33.2942C640.519 32.3436 641.634 31.88 643.034 31.88V27.88C640.595 27.88 638.456 28.7498 636.74 30.4658L639.569 33.2942ZM643.034 31.88C644.575 31.88 645.687 32.3647 646.552 33.2651L649.437 30.4949C647.742 28.7287 645.547 27.88 643.034 27.88V31.88ZM646.609 33.3228C647.51 34.1872 647.994 35.2997 647.994 36.84H651.994C651.994 34.3269 651.146 32.1328 649.379 30.4372L646.609 33.3228ZM647.994 36.84C647.994 38.2404 647.531 39.3551 646.58 40.3058L649.409 43.1342C651.125 41.4182 651.994 39.2796 651.994 36.84H647.994ZM646.609 40.2772C645.675 41.1739 644.53 41.64 643.034 41.64V45.64C645.486 45.64 647.647 44.8261 649.379 43.1628L646.609 40.2772ZM728.096 48.36H730.096V46.36H728.096V48.36ZM728.096 105V107H730.096V105H728.096ZM710.416 105H708.416V107H710.416V105ZM710.416 76.76H712.416L708.505 76.1699L710.416 76.76ZM701.696 105V107H703.171L703.607 105.59L701.696 105ZM686.496 105L684.585 105.59L685.02 107H686.496V105ZM677.776 76.76L679.687 76.1699L675.776 76.76H677.776ZM677.776 105V107H679.776V105H677.776ZM660.016 105H658.016V107H660.016V105ZM660.016 48.36V46.36H658.016V48.36H660.016ZM681.776 48.36L683.653 47.6708L683.172 46.36H681.776V48.36ZM694.256 82.36L692.378 83.0492L694.28 88.2307L696.139 83.0335L694.256 82.36ZM706.416 48.36V46.36H705.007L704.532 47.6865L706.416 48.36ZM726.096 48.36V105H730.096V48.36H726.096ZM728.096 103H710.416V107H728.096V103ZM712.416 105V76.76H708.416V105H712.416ZM708.505 76.1699L699.785 104.41L703.607 105.59L712.327 77.3501L708.505 76.1699ZM701.696 103H686.496V107H701.696V103ZM688.407 104.41L679.687 76.1699L675.865 77.3501L684.585 105.59L688.407 104.41ZM675.776 76.76V105H679.776V76.76H675.776ZM677.776 103H660.016V107H677.776V103ZM662.016 105V48.36H658.016V105H662.016ZM660.016 50.36H681.776V46.36H660.016V50.36ZM679.898 49.0492L692.378 83.0492L696.133 81.6708L683.653 47.6708L679.898 49.0492ZM696.139 83.0335L708.299 49.0335L704.532 47.6865L692.372 81.6865L696.139 83.0335ZM706.416 50.36H728.096V46.36H706.416V50.36ZM753.869 48.36H755.869V46.36H753.869V48.36ZM753.869 105V107H755.869V105H753.869ZM736.109 105H734.109V107H736.109V105ZM736.109 48.36V46.36H734.109V48.36H736.109ZM740.029 41.72L738.587 43.1051L738.615 43.1345L738.644 43.1628L740.029 41.72ZM740.029 31.88L738.615 30.4658L738.601 30.4802L738.587 30.4949L740.029 31.88ZM749.869 31.88L748.427 33.2651L748.455 33.2945L748.484 33.3228L749.869 31.88ZM749.869 41.72L751.254 43.1628L751.269 43.1486L751.284 43.1342L749.869 41.72ZM751.869 48.36V105H755.869V48.36H751.869ZM753.869 103H736.109V107H753.869V103ZM738.109 105V48.36H734.109V105H738.109ZM736.109 50.36H753.869V46.36H736.109V50.36ZM744.909 41.64C743.483 41.64 742.36 41.1846 741.414 40.2772L738.644 43.1628C740.366 44.8154 742.495 45.64 744.909 45.64V41.64ZM741.472 40.3349C740.565 39.3898 740.109 38.2659 740.109 36.84H736.109C736.109 39.2541 736.934 41.3835 738.587 43.1051L741.472 40.3349ZM740.109 36.84C740.109 35.3445 740.575 34.1991 741.472 33.2651L738.587 30.4949C736.923 32.2276 736.109 34.3888 736.109 36.84H740.109ZM741.444 33.2942C742.394 32.3436 743.509 31.88 744.909 31.88V27.88C742.47 27.88 740.331 28.7498 738.615 30.4658L741.444 33.2942ZM744.909 31.88C746.45 31.88 747.562 32.3647 748.427 33.2651L751.312 30.4949C749.617 28.7287 747.422 27.88 744.909 27.88V31.88ZM748.484 33.3228C749.385 34.1872 749.869 35.2997 749.869 36.84H753.869C753.869 34.3269 753.021 32.1328 751.254 30.4372L748.484 33.3228ZM749.869 36.84C749.869 38.2404 749.406 39.3551 748.455 40.3058L751.284 43.1342C753 41.4182 753.869 39.2796 753.869 36.84H749.869ZM748.484 40.2772C747.55 41.1739 746.405 41.64 744.909 41.64V45.64C747.361 45.64 749.522 44.8261 751.254 43.1628L748.484 40.2772ZM781.571 90.84L779.994 89.6097L777.473 92.84H781.571V90.84ZM804.291 90.84H806.291V88.84H804.291V90.84ZM804.291 105V107H806.291V105H804.291ZM761.891 105H759.891V107H761.891V105ZM761.891 91.64L760.304 90.4227L759.891 90.9612V91.64H761.891ZM784.291 62.44L785.877 63.6573L788.346 60.44H784.291V62.44ZM761.891 62.44H759.891V64.44H761.891V62.44ZM761.891 48.36V46.36H759.891V48.36H761.891ZM804.291 48.36H806.291V46.36H804.291V48.36ZM804.291 61.72L805.867 62.9503L806.291 62.4079V61.72H804.291ZM781.571 92.84H804.291V88.84H781.571V92.84ZM802.291 90.84V105H806.291V90.84H802.291ZM804.291 103H761.891V107H804.291V103ZM763.891 105V91.64H759.891V105H763.891ZM763.477 92.8573L785.877 63.6573L782.704 61.2227L760.304 90.4227L763.477 92.8573ZM784.291 60.44H761.891V64.44H784.291V60.44ZM763.891 62.44V48.36H759.891V62.44H763.891ZM761.891 50.36H804.291V46.36H761.891V50.36ZM802.291 48.36V61.72H806.291V48.36H802.291ZM802.714 60.4897L779.994 89.6097L783.147 92.0703L805.867 62.9503L802.714 60.4897Z" fill="white" mask="url(#path-4-inside-2_435_30092)"/>
</g>
<path d="M186.76 34.36V91H169V34.36H186.76ZM177.8 29.64C175.88 29.64 174.253 29 172.92 27.72C171.64 26.3867 171 24.76 171 22.84C171 20.8667 171.64 19.2133 172.92 17.88C174.253 16.5467 175.88 15.88 177.8 15.88C179.827 15.88 181.48 16.5467 182.76 17.88C184.093 19.16 184.76 20.8133 184.76 22.84C184.76 24.76 184.093 26.3867 182.76 27.72C181.427 29 179.773 29.64 177.8 29.64ZM238.541 73.48C238.541 78.12 237.048 82.04 234.061 85.24C231.128 88.44 227.021 90.44 221.741 91.24V93.72C223.235 93.72 224.781 94.0133 226.381 94.6C227.981 95.24 229.341 96.28 230.461 97.72C231.581 99.2133 232.141 101.133 232.141 103.48C232.141 106.947 230.941 109.427 228.541 110.92C226.141 112.467 223.341 113.24 220.141 113.24H206.301V104.2H218.301C218.941 104.2 219.448 104.067 219.821 103.8C220.195 103.587 220.381 103.293 220.381 102.92C220.381 102.12 219.688 101.72 218.301 101.72H211.501V91.16C206.168 90.36 201.848 88.4133 198.541 85.32C195.235 82.2267 193.395 78.0667 193.021 72.84H211.901C212.168 76.0933 213.608 77.72 216.221 77.72C217.181 77.72 217.981 77.5067 218.621 77.08C219.315 76.6 219.661 75.88 219.661 74.92C219.661 73.5867 218.941 72.52 217.501 71.72C216.061 70.8667 213.821 69.9067 210.781 68.84C207.155 67.56 204.141 66.3067 201.741 65.08C199.395 63.8533 197.368 62.0667 195.661 59.72C193.955 57.3733 193.128 54.36 193.181 50.68C193.181 47 194.115 43.88 195.981 41.32C197.901 38.7067 200.488 36.7333 203.741 35.4C207.048 34.0667 210.755 33.4 214.861 33.4C221.795 33.4 227.288 35 231.341 38.2C235.448 41.4 237.608 45.9067 237.821 51.72H218.701C218.648 50.12 218.248 48.9733 217.501 48.28C216.755 47.5867 215.848 47.24 214.781 47.24C214.035 47.24 213.421 47.5067 212.941 48.04C212.461 48.52 212.221 49.2133 212.221 50.12C212.221 51.4 212.915 52.4667 214.301 53.32C215.741 54.12 218.008 55.1067 221.101 56.28C224.675 57.6133 227.608 58.8933 229.901 60.12C232.248 61.3467 234.275 63.0533 235.981 65.24C237.688 67.4267 238.541 70.1733 238.541 73.48ZM289.261 34.36V48.44H274.221V91H256.461V48.44H241.581V34.36H289.261ZM311.838 34.36V91H294.078V34.36H311.838ZM302.878 29.64C300.958 29.64 299.331 29 297.998 27.72C296.718 26.3867 296.078 24.76 296.078 22.84C296.078 20.8667 296.718 19.2133 297.998 17.88C299.331 16.5467 300.958 15.88 302.878 15.88C304.905 15.88 306.558 16.5467 307.838 17.88C309.171 19.16 309.838 20.8133 309.838 22.84C309.838 24.76 309.171 26.3867 307.838 27.72C306.505 29 304.851 29.64 302.878 29.64ZM348.339 91L337.699 70.68H337.619V91H319.859V34.36H346.259C350.846 34.36 354.766 35.1867 358.019 36.84C361.273 38.44 363.699 40.6533 365.299 43.48C366.953 46.2533 367.779 49.4 367.779 52.92C367.779 56.7067 366.713 60.0667 364.579 63C362.499 65.9333 359.486 68.04 355.539 69.32L367.859 91H348.339ZM337.619 58.84H344.659C346.366 58.84 347.646 58.4667 348.499 57.72C349.353 56.92 349.779 55.6933 349.779 54.04C349.779 52.5467 349.326 51.3733 348.419 50.52C347.566 49.6667 346.313 49.24 344.659 49.24H337.619V58.84ZM409.773 82.44H390.893L388.093 91H369.453L390.173 34.36H410.653L431.293 91H412.573L409.773 82.44ZM405.453 69.08L400.333 53.32L395.213 69.08H405.453ZM469.568 91L453.088 66.44V91H435.328V34.36H453.088V58.2L469.328 34.36H489.408L469.888 61.48L490.688 91H469.568ZM513.479 77.56H530.599V91H495.719V34.36H513.479V77.56ZM553.948 48.52V55.48H571.548V68.84H553.948V76.84H573.948V91H536.188V34.36H573.948V48.52H553.948ZM609.121 91L598.481 70.68H598.401V91H580.641V34.36H607.041C611.627 34.36 615.547 35.1867 618.801 36.84C622.054 38.44 624.481 40.6533 626.081 43.48C627.734 46.2533 628.561 49.4 628.561 52.92C628.561 56.7067 627.494 60.0667 625.361 63C623.281 65.9333 620.267 68.04 616.321 69.32L628.641 91H609.121ZM598.401 58.84H605.441C607.147 58.84 608.427 58.4667 609.281 57.72C610.134 56.92 610.561 55.6933 610.561 54.04C610.561 52.5467 610.107 51.3733 609.201 50.52C608.347 49.6667 607.094 49.24 605.441 49.24H598.401V58.84ZM651.994 34.36V91H634.234V34.36H651.994ZM643.034 29.64C641.114 29.64 639.488 29 638.154 27.72C636.874 26.3867 636.234 24.76 636.234 22.84C636.234 20.8667 636.874 19.2133 638.154 17.88C639.488 16.5467 641.114 15.88 643.034 15.88C645.061 15.88 646.714 16.5467 647.994 17.88C649.328 19.16 649.994 20.8133 649.994 22.84C649.994 24.76 649.328 26.3867 647.994 27.72C646.661 29 645.008 29.64 643.034 29.64ZM728.096 34.36V91H710.416V62.76L701.696 91H686.496L677.776 62.76V91H660.016V34.36H681.776L694.256 68.36L706.416 34.36H728.096ZM753.869 34.36V91H736.109V34.36H753.869ZM744.909 29.64C742.989 29.64 741.363 29 740.029 27.72C738.749 26.3867 738.109 24.76 738.109 22.84C738.109 20.8667 738.749 19.2133 740.029 17.88C741.363 16.5467 742.989 15.88 744.909 15.88C746.936 15.88 748.589 16.5467 749.869 17.88C751.203 19.16 751.869 20.8133 751.869 22.84C751.869 24.76 751.203 26.3867 749.869 27.72C748.536 29 746.883 29.64 744.909 29.64ZM781.571 76.84H804.291V91H761.891V77.64L784.291 48.44H761.891V34.36H804.291V47.72L781.571 76.84Z" fill="white"/>
</svg>
