<svg width="218" height="218" viewBox="0 0 218 218" fill="none" xmlns="http://www.w3.org/2000/svg">
<path d="M152.435 174.974C151.206 174.974 150.386 174.154 149.977 172.925C149.977 171.696 150.386 170.057 152.025 170.057C162.68 167.598 173.334 164.32 183.168 159.812C193.003 155.714 199.559 152.846 204.067 157.354C207.755 161.451 207.755 168.008 203.657 172.105C202.837 172.925 201.198 172.925 199.969 172.105C198.74 171.286 198.74 169.647 199.969 168.417C199.969 168.008 204.067 163.91 200.789 160.632C198.74 158.583 193.413 160.632 185.627 164.32C175.383 168.827 164.728 172.515 153.665 174.974H153.255H152.435Z" fill="white"/>
<path d="M105.313 218C83.1853 218 61.4673 214.722 40.5688 208.576C39.7492 208.576 38.9297 207.346 38.9297 206.117V149.568C38.9297 148.339 40.159 147.109 41.3883 147.109C78.268 146.29 90.5613 154.076 100.806 160.632C110.23 166.779 117.606 171.286 141.373 168.008C150.798 166.779 155.306 172.106 156.125 177.023C156.535 179.482 156.125 182.35 155.306 184.399C169.238 181.121 183.17 176.203 195.873 169.647C204.888 165.549 210.215 162.681 214.313 166.369C216.772 168.008 218.001 170.876 218.001 173.745C218.001 179.482 211.035 183.989 210.625 184.809C176.204 211.034 137.276 218 105.313 218ZM43.847 204.068C56.9598 208.166 140.964 231.113 207.347 180.301C208.576 179.482 212.674 175.794 212.674 173.335C212.674 170.876 212.674 171.696 210.625 170.057C209.396 168.827 204.069 171.286 197.512 174.155C181.121 181.94 163.911 187.677 146.291 191.365C145.061 191.365 143.422 190.955 143.422 189.316C143.422 188.087 144.242 186.448 145.471 186.448C149.159 185.218 151.618 181.531 150.798 177.843C149.979 173.745 146.7 172.106 141.783 172.925C115.967 176.613 107.362 171.286 97.5274 165.14C87.6928 158.993 76.6289 151.617 43.4372 152.437V204.888L43.847 204.068Z" fill="white"/>
<path d="M122.113 193.414C113.097 193.414 104.082 192.185 95.4772 189.726C94.2479 189.316 93.4283 187.677 94.2479 186.448C94.6576 185.218 95.887 184.809 97.1163 184.809C112.688 190.136 135.225 188.087 145.879 186.038C147.109 186.038 148.748 186.857 148.748 188.087C148.748 189.316 147.928 190.955 146.699 190.955C138.504 192.185 129.898 193.004 121.703 193.004L122.113 193.414Z" fill="white"/>
<path d="M37.2895 212.263H6.55639C2.86842 212.263 0 209.395 0 205.707V150.387C0 146.699 2.86842 143.831 6.55639 143.831H37.2895C40.9774 143.831 43.8459 146.699 43.8459 150.387V205.707C43.8459 209.395 40.9774 212.263 37.2895 212.263ZM6.55639 148.339C5.73684 148.339 4.91729 149.158 4.91729 149.978V205.297C4.91729 206.117 5.73684 206.936 6.55639 206.936H37.2895C38.109 206.936 38.9286 206.117 38.9286 205.297V149.978C38.9286 149.158 38.109 148.339 37.2895 148.339H6.55639Z" fill="white"/>
<path d="M27.047 199.151C29.3101 199.151 31.1447 197.316 31.1447 195.053C31.1447 192.79 29.3101 190.955 27.047 190.955C24.7838 190.955 22.9492 192.79 22.9492 195.053C22.9492 197.316 24.7838 199.151 27.047 199.151Z" fill="white"/>
<path d="M202.427 147.519C202.018 147.519 201.608 147.519 201.198 147.519C199.969 146.7 199.559 145.06 200.379 143.831C226.194 100.395 211.852 43.8461 168.006 18.4401C124.161 -7.78545 68.0214 6.96642 42.2056 50.4025C27.8635 74.989 25.4049 104.903 36.059 131.538C36.4688 132.767 36.059 134.406 34.8297 134.816C33.6004 135.226 31.9613 134.816 31.5515 133.587C11.4725 83.5942 35.2395 27.4551 84.8222 6.96642C134.405 -13.5223 190.954 10.6544 211.033 60.2371C222.506 88.5115 220.048 120.064 204.476 146.29C204.067 147.109 203.247 147.519 202.427 147.519Z" fill="white"/>
<path d="M121.295 156.124C120.476 156.124 120.066 156.124 119.246 155.305L50.8139 77.8575C49.9944 76.6282 50.4041 74.9891 51.2237 74.1695C51.2237 74.1695 52.0432 73.7598 52.453 73.7598H190.137C191.367 73.7598 192.596 74.9891 192.596 76.6282C192.596 77.038 192.596 77.4477 192.186 77.8575L123.344 154.895C122.934 155.305 122.115 155.715 121.295 155.715V156.124ZM58.1899 78.6771L121.295 149.568L184.4 78.6771H58.1899Z" fill="white"/>
<path d="M121.291 156.124C120.062 156.124 119.242 155.305 118.833 154.485L90.1484 77.4477C90.1484 76.6282 90.1484 75.8086 90.1484 74.9891C90.5582 74.1695 91.3778 73.7598 92.1973 73.7598H149.976C150.795 73.7598 151.615 73.7598 152.024 74.9891C152.434 75.8086 152.434 76.6282 152.024 77.4477L122.93 154.485C122.93 155.305 121.701 156.124 120.472 156.124H121.291ZM96.2951 78.6771L121.701 145.88L147.107 78.6771H96.7048H96.2951Z" fill="white"/>
<path d="M190.135 78.6773H52.4508C51.6313 78.6773 50.402 78.2676 49.9922 77.0382C49.9922 76.2187 49.9922 74.9894 50.402 74.1698L79.4959 43.4367C79.9057 43.027 80.7253 42.6172 81.5448 42.6172H161.451C162.27 42.6172 162.68 42.6172 163.5 43.4367L192.594 74.1698C193.413 74.9894 193.413 75.8089 193.003 77.0382C192.594 77.8578 191.774 78.6773 190.545 78.6773H190.135ZM58.5975 73.76H184.398L160.222 48.354H82.3644L58.1877 73.76H58.5975Z" fill="white"/>
<path d="M150.389 78.6766H92.2008C91.3813 78.6766 90.152 78.2668 89.7422 77.0374C89.7422 76.2179 89.7422 74.9886 90.152 74.169L119.246 43.436C120.475 42.6164 122.114 42.6164 122.934 43.436L152.028 74.169C152.847 74.9886 152.847 75.8081 152.438 77.0374C152.028 77.857 151.208 78.6766 149.979 78.6766H150.389ZM98.3475 73.7593H144.242L121.295 49.1728L98.3475 73.7593Z" fill="white"/>
<path d="M150.386 78.6769C150.386 78.6769 149.976 78.6769 149.566 78.6769C148.337 78.2671 147.517 76.628 147.927 75.3987L158.991 44.6656C159.401 43.4363 161.04 42.6167 162.269 43.0265C163.498 43.4363 164.318 45.0754 163.908 46.3047L152.844 77.0378C152.434 77.8573 151.615 78.6769 150.386 78.6769Z" fill="white"/>
<path d="M92.1981 78.6771C90.9688 78.6771 90.1492 77.8575 89.7394 77.038L79.0853 46.3049C78.6755 45.0756 79.0853 43.4365 80.7244 43.0267C81.9537 42.6169 83.5928 43.0267 84.0026 44.6658L95.0665 75.3989C95.4763 76.6282 95.0665 78.2673 93.4274 78.6771C93.4274 78.6771 93.0176 78.6771 92.6079 78.6771H92.1981Z" fill="white"/>
</svg>
