<svg width="235" height="200" viewBox="0 0 235 200" fill="none" xmlns="http://www.w3.org/2000/svg">
<path d="M138.235 37.8899C141.171 37.8899 143.551 35.7694 143.551 33.1535C143.551 30.5376 141.171 28.417 138.235 28.417C135.298 28.417 132.918 30.5376 132.918 33.1535C132.918 35.7694 135.298 37.8899 138.235 37.8899Z" fill="white"/>
<path d="M232.342 129.155C221.176 119.21 204.163 117.315 190.871 123.946L168.541 133.418C162.692 135.786 155.781 137.207 148.869 137.68C152.059 133.891 154.186 128.682 154.186 123.472C154.186 118.262 149.4 114 143.552 114H88.2579C74.4344 114 61.1425 119.21 52.1041 128.682L33.4955 147.626C30.3054 144.311 26.052 142.416 21.267 142.416H5.31674C2.1267 142.416 0 144.311 0 147.152C0 149.994 2.1267 151.888 5.31674 151.888H21.267C24.457 151.888 26.5837 153.783 26.5837 156.624V185.041C26.5837 187.882 24.457 189.777 21.267 189.777H5.31674C2.1267 189.777 0 191.671 0 194.513C0 197.355 2.1267 199.249 5.31674 199.249H21.267C30.3054 199.249 37.2172 193.092 37.2172 185.041V158.519L60.6109 134.839C67.5226 127.735 78.1561 123.472 88.7896 123.472H144.084C144.084 131.523 137.172 137.68 128.133 137.68H96.233C93.043 137.68 90.9163 139.575 90.9163 142.416C90.9163 145.258 93.043 147.152 96.233 147.152H147.805C156.844 147.152 165.351 145.258 173.326 141.943L196.188 132.471C203.631 128.682 213.201 128.682 220.645 132.471L176.516 162.308C168.009 167.991 158.439 171.306 147.805 172.253L72.8394 179.831C70.7127 179.831 68.586 179.831 66.4593 179.831H54.2308C51.0407 179.831 48.914 181.726 48.914 184.567C48.914 187.409 51.0407 189.303 54.2308 189.303H66.4593C69.1176 189.303 71.776 189.303 73.9027 189.303L148.869 181.726C161.097 180.305 172.794 176.516 182.896 169.885L232.873 136.733C233.937 135.786 235 134.839 235 133.418C235 131.997 235 130.576 233.405 129.629L232.342 129.155Z" fill="white"/>
<path d="M63.8085 56.8326H74.442V99.4571C74.442 102.299 76.5687 104.193 79.7587 104.193C82.9488 104.193 85.0755 102.299 85.0755 99.4571V52.0966C85.0755 49.2549 82.9488 47.3605 79.7587 47.3605H69.1252C69.1252 45.9397 70.1886 44.5189 71.7836 44.0453L131.331 11.3665C135.585 8.9985 141.433 8.9985 145.686 11.3665L205.234 44.0453C206.829 44.9925 207.361 45.9397 207.892 47.3605H197.259C194.069 47.3605 191.942 49.2549 191.942 52.0966V108.929C191.942 111.771 194.069 113.665 197.259 113.665C200.449 113.665 202.575 111.771 202.575 108.929V56.8326H213.209C216.399 56.8326 218.526 54.9382 218.526 52.0966V47.8341C218.526 42.6245 215.867 38.362 211.082 35.5204L202.575 30.7843V4.73605C202.575 1.89442 200.449 0 197.259 0H175.992C172.802 0 170.675 1.89442 170.675 4.73605V13.7346L151.535 3.31524C144.091 -0.94721 133.99 -0.94721 126.014 3.31524L66.4669 35.994C61.6818 38.8356 59.0234 43.0981 59.0234 48.3077V52.5702C59.0234 55.4118 61.1501 57.3062 64.3402 57.3062L63.8085 56.8326ZM180.777 18.9442V9.47211H191.41V25.5747L180.777 19.8914C180.777 19.8914 180.777 19.8914 180.777 19.4178V18.9442Z" fill="white"/>
<path d="M132.92 104.193C136.11 104.193 138.237 102.298 138.237 99.4565V61.5681C138.237 58.7265 136.11 56.832 132.92 56.832H101.02C97.8298 56.832 95.7031 58.7265 95.7031 61.5681V99.4565C95.7031 102.298 97.8298 104.193 101.02 104.193C104.21 104.193 106.337 102.298 106.337 99.4565V66.3041H127.604V85.2484C124.414 85.2484 122.287 87.1428 122.287 89.9844C122.287 92.826 124.414 94.7205 127.604 94.7205V99.4565C127.604 102.298 129.73 104.193 132.92 104.193Z" fill="white"/>
<path d="M148.868 94.7205H175.451C178.641 94.7205 180.768 92.826 180.768 89.9844V61.5681C180.768 58.7265 178.641 56.832 175.451 56.832H148.868C145.677 56.832 143.551 58.7265 143.551 61.5681V89.9844C143.551 92.826 145.677 94.7205 148.868 94.7205ZM154.184 66.3041H170.134V85.2483H154.184V66.3041Z" fill="white"/>
</svg>
