<svg width="723" height="127" viewBox="0 0 723 127" fill="none" xmlns="http://www.w3.org/2000/svg">
<rect y="27" width="169" height="60" fill="white"/>
<g opacity="0.75">
<mask id="path-2-inside-1_402_14768" fill="white">
<path d="M168.2 101V41H190.6V61.64H193.8L206.36 41H230.76L211.96 69.64L232.44 101H207.16L193.56 79.24H190.6V101H168.2ZM236.403 75.4V41H258.803V76.44C258.803 81.16 262.003 83.4 266.883 83.4C271.603 83.4 274.803 81.16 274.803 76.44V41H297.203V75.4C297.203 93.48 285.203 102.6 266.483 102.6C248.483 102.6 236.403 93.48 236.403 75.4ZM303.591 101V41H342.231C355.511 41 365.831 47.64 365.831 62.84C365.831 72.6 360.551 78.76 353.351 82.04L367.111 101H341.111L331.831 86.6H325.991V101H303.591ZM338.631 60.2H325.991V68.2H338.631C341.431 68.2 343.351 67.16 343.351 64.2C343.351 61.32 341.431 60.2 338.631 60.2ZM371.872 75.4V41H394.272V76.44C394.272 81.16 397.472 83.4 402.352 83.4C407.072 83.4 410.272 81.16 410.272 76.44V41H432.672V75.4C432.672 93.48 420.672 102.6 401.952 102.6C383.952 102.6 371.872 93.48 371.872 75.4ZM439.059 101V41H471.299L478.739 71L486.179 41H518.419V101H496.019V70.84L489.139 101H468.339L461.459 70.92V101H439.059ZM524.121 96.76L531.241 77.72C538.441 81.88 551.321 84.68 558.201 84.68C561.081 84.68 562.841 84.2 562.841 83.16C562.841 78.04 526.361 81.08 526.361 58.2C526.361 47.56 537.081 38.76 555.721 38.76C575.401 38.76 583.801 45.64 583.801 45.64L575.481 61.64C569.161 58.68 559.241 56.92 553.641 56.92C551.001 56.92 549.321 57.32 549.321 58.12C549.321 62.6 585.721 59.56 585.721 83.88C585.721 93.08 577.161 103.24 557.321 103.24C538.041 103.24 524.121 96.76 524.121 96.76ZM589.784 101L611.544 41H642.104L663.864 101H639.944L637.384 93.08H616.344L613.784 101H589.784ZM622.024 75.48H631.704L627.704 63.32H625.944L622.024 75.48ZM667.966 101V41H690.366V81.8H721.406V101H667.966Z"/>
</mask>
<path d="M168.2 101H166.2V103H168.2V101ZM168.2 41V39H166.2V41H168.2ZM190.6 41H192.6V39H190.6V41ZM190.6 61.64H188.6V63.64H190.6V61.64ZM193.8 61.64V63.64H194.924L195.509 62.6797L193.8 61.64ZM206.36 41V39H205.236L204.651 39.9603L206.36 41ZM230.76 41L232.432 42.0975L234.465 39H230.76V41ZM211.96 69.64L210.288 68.5425L209.569 69.6372L210.285 70.7336L211.96 69.64ZM232.44 101V103H236.135L234.115 99.9064L232.44 101ZM207.16 101L205.464 102.06L206.052 103H207.16V101ZM193.56 79.24L195.256 78.18L194.668 77.24H193.56V79.24ZM190.6 79.24V77.24H188.6V79.24H190.6ZM190.6 101V103H192.6V101H190.6ZM170.2 101V41H166.2V101H170.2ZM168.2 43H190.6V39H168.2V43ZM188.6 41V61.64H192.6V41H188.6ZM190.6 63.64H193.8V59.64H190.6V63.64ZM195.509 62.6797L208.069 42.0397L204.651 39.9603L192.091 60.6003L195.509 62.6797ZM206.36 43H230.76V39H206.36V43ZM229.088 39.9025L210.288 68.5425L213.632 70.7375L232.432 42.0975L229.088 39.9025ZM210.285 70.7336L230.765 102.094L234.115 99.9064L213.635 68.5464L210.285 70.7336ZM232.44 99H207.16V103H232.44V99ZM208.856 99.94L195.256 78.18L191.864 80.3L205.464 102.06L208.856 99.94ZM193.56 77.24H190.6V81.24H193.56V77.24ZM188.6 79.24V101H192.6V79.24H188.6ZM190.6 99H168.2V103H190.6V99ZM236.403 41V39H234.403V41H236.403ZM258.803 41H260.803V39H258.803V41ZM274.803 41V39H272.803V41H274.803ZM297.203 41H299.203V39H297.203V41ZM238.403 75.4V41H234.403V75.4H238.403ZM236.403 43H258.803V39H236.403V43ZM256.803 41V76.44H260.803V41H256.803ZM256.803 76.44C256.803 79.2885 257.793 81.6443 259.749 83.2399C261.64 84.7821 264.173 85.4 266.883 85.4V81.4C264.713 81.4 263.206 80.8979 262.277 80.1401C261.414 79.4357 260.803 78.3115 260.803 76.44H256.803ZM266.883 85.4C269.527 85.4 272.021 84.7759 273.888 83.231C275.815 81.6367 276.803 79.2872 276.803 76.44H272.803C272.803 78.3128 272.191 79.4433 271.338 80.149C270.426 80.9041 268.959 81.4 266.883 81.4V85.4ZM276.803 76.44V41H272.803V76.44H276.803ZM274.803 43H297.203V39H274.803V43ZM295.203 41V75.4H299.203V41H295.203ZM295.203 75.4C295.203 83.969 292.38 90.1653 287.568 94.2563C282.705 98.39 275.547 100.6 266.483 100.6V104.6C276.139 104.6 284.341 102.25 290.159 97.3037C296.027 92.3147 299.203 84.911 299.203 75.4H295.203ZM266.483 100.6C257.796 100.6 250.797 98.3983 245.998 94.2647C241.245 90.17 238.403 83.9661 238.403 75.4H234.403C234.403 84.9139 237.601 92.31 243.388 97.2953C249.13 102.242 257.17 104.6 266.483 104.6V100.6ZM303.591 101H301.591V103H303.591V101ZM303.591 41V39H301.591V41H303.591ZM353.351 82.04L352.521 80.22L350.295 81.2344L351.732 83.2147L353.351 82.04ZM367.111 101V103H371.033L368.729 99.8253L367.111 101ZM341.111 101L339.429 102.083L340.02 103H341.111V101ZM331.831 86.6L333.512 85.5166L332.921 84.6H331.831V86.6ZM325.991 86.6V84.6H323.991V86.6H325.991ZM325.991 101V103H327.991V101H325.991ZM325.991 60.2V58.2H323.991V60.2H325.991ZM325.991 68.2H323.991V70.2H325.991V68.2ZM305.591 101V41H301.591V101H305.591ZM303.591 43H342.231V39H303.591V43ZM342.231 43C348.567 43 353.955 44.5864 357.725 47.7517C361.439 50.8703 363.831 55.7283 363.831 62.84H367.831C367.831 54.7517 365.062 48.6897 360.297 44.6883C355.587 40.7336 349.174 39 342.231 39V43ZM363.831 62.84C363.831 71.6956 359.125 77.2117 352.521 80.22L354.18 83.86C361.976 80.3083 367.831 73.5044 367.831 62.84H363.831ZM351.732 83.2147L365.492 102.175L368.729 99.8253L354.969 80.8653L351.732 83.2147ZM367.111 99H341.111V103H367.111V99ZM342.792 99.9166L333.512 85.5166L330.149 87.6834L339.429 102.083L342.792 99.9166ZM331.831 84.6H325.991V88.6H331.831V84.6ZM323.991 86.6V101H327.991V86.6H323.991ZM325.991 99H303.591V103H325.991V99ZM338.631 58.2H325.991V62.2H338.631V58.2ZM323.991 60.2V68.2H327.991V60.2H323.991ZM325.991 70.2H338.631V66.2H325.991V70.2ZM338.631 70.2C340.219 70.2 341.916 69.9157 343.25 68.9031C344.691 67.8094 345.351 66.1491 345.351 64.2H341.351C341.351 65.2109 341.051 65.5505 340.831 65.7169C340.506 65.9643 339.843 66.2 338.631 66.2V70.2ZM345.351 64.2C345.351 62.2749 344.681 60.6303 343.262 59.5362C341.937 58.5147 340.246 58.2 338.631 58.2V62.2C339.815 62.2 340.484 62.4453 340.819 62.7038C341.06 62.8897 341.351 63.2451 341.351 64.2H345.351ZM371.872 41V39H369.872V41H371.872ZM394.272 41H396.272V39H394.272V41ZM410.272 41V39H408.272V41H410.272ZM432.672 41H434.672V39H432.672V41ZM373.872 75.4V41H369.872V75.4H373.872ZM371.872 43H394.272V39H371.872V43ZM392.272 41V76.44H396.272V41H392.272ZM392.272 76.44C392.272 79.2885 393.261 81.6443 395.218 83.2399C397.109 84.7821 399.642 85.4 402.352 85.4V81.4C400.182 81.4 398.675 80.8979 397.746 80.1401C396.882 79.4357 396.272 78.3115 396.272 76.44H392.272ZM402.352 85.4C404.996 85.4 407.489 84.7759 409.357 83.231C411.284 81.6367 412.272 79.2872 412.272 76.44H408.272C408.272 78.3128 407.66 79.4433 406.807 80.149C405.894 80.9041 404.428 81.4 402.352 81.4V85.4ZM412.272 76.44V41H408.272V76.44H412.272ZM410.272 43H432.672V39H410.272V43ZM430.672 41V75.4H434.672V41H430.672ZM430.672 75.4C430.672 83.969 427.848 90.1653 423.036 94.2563C418.174 98.39 411.016 100.6 401.952 100.6V104.6C411.608 104.6 419.81 102.25 425.627 97.3037C431.496 92.3147 434.672 84.911 434.672 75.4H430.672ZM401.952 100.6C393.265 100.6 386.265 98.3983 381.467 94.2647C376.714 90.17 373.872 83.9661 373.872 75.4H369.872C369.872 84.9139 373.07 92.31 378.857 97.2953C384.598 102.242 392.639 104.6 401.952 104.6V100.6ZM439.059 101H437.059V103H439.059V101ZM439.059 41V39H437.059V41H439.059ZM471.299 41L473.241 40.5186L472.864 39H471.299V41ZM478.739 71L476.798 71.4814H480.681L478.739 71ZM486.179 41V39H484.615L484.238 40.5186L486.179 41ZM518.419 41H520.419V39H518.419V41ZM518.419 101V103H520.419V101H518.419ZM496.019 101H494.019V103H496.019V101ZM496.019 70.84H498.019L494.069 70.3952L496.019 70.84ZM489.139 101V103H490.735L491.089 101.445L489.139 101ZM468.339 101L466.39 101.446L466.745 103H468.339V101ZM461.459 70.92L463.409 70.4741L459.459 70.92H461.459ZM461.459 101V103H463.459V101H461.459ZM441.059 101V41H437.059V101H441.059ZM439.059 43H471.299V39H439.059V43ZM469.358 41.4814L476.798 71.4814L480.681 70.5186L473.241 40.5186L469.358 41.4814ZM480.681 71.4814L488.121 41.4814L484.238 40.5186L476.798 70.5186L480.681 71.4814ZM486.179 43H518.419V39H486.179V43ZM516.419 41V101H520.419V41H516.419ZM518.419 99H496.019V103H518.419V99ZM498.019 101V70.84H494.019V101H498.019ZM494.069 70.3952L487.189 100.555L491.089 101.445L497.969 71.2848L494.069 70.3952ZM489.139 99H468.339V103H489.139V99ZM470.289 100.554L463.409 70.4741L459.51 71.3659L466.39 101.446L470.289 100.554ZM459.459 70.92V101H463.459V70.92H459.459ZM461.459 99H439.059V103H461.459V99ZM524.121 96.76L522.247 96.0595L521.599 97.7924L523.277 98.5732L524.121 96.76ZM531.241 77.72L532.241 75.9883L530.195 74.806L529.367 77.0195L531.241 77.72ZM583.801 45.64L585.575 46.5627L586.324 45.1218L585.068 44.0927L583.801 45.64ZM575.481 61.64L574.632 63.4512L576.37 64.265L577.255 62.5627L575.481 61.64ZM525.994 97.4605L533.114 78.4205L529.367 77.0195L522.247 96.0595L525.994 97.4605ZM530.24 79.4517C534.072 81.6657 539.297 83.461 544.365 84.7026C549.438 85.9453 554.546 86.68 558.201 86.68V82.68C554.975 82.68 550.204 82.0147 545.317 80.8174C540.425 79.619 535.609 77.9343 532.241 75.9883L530.24 79.4517ZM558.201 86.68C559.706 86.68 561.106 86.5598 562.197 86.219C563.126 85.9286 564.841 85.1182 564.841 83.16H560.841C560.841 82.775 561.033 82.4863 561.174 82.3576C561.264 82.2757 561.26 82.3211 561.004 82.401C560.495 82.5602 559.575 82.68 558.201 82.68V86.68ZM564.841 83.16C564.841 82.1733 564.379 81.4013 563.838 80.8661C563.33 80.3632 562.696 80.0047 562.098 79.7339C560.901 79.192 559.3 78.765 557.592 78.3691C554.036 77.5451 549.658 76.771 545.176 75.4246C540.719 74.0856 536.483 72.2627 533.383 69.5317C530.358 66.8672 528.361 63.2994 528.361 58.2H524.361C524.361 64.5406 526.924 69.1728 530.739 72.5333C534.478 75.8272 539.362 77.8544 544.025 79.2554C548.664 80.649 553.405 81.5049 556.689 82.2659C558.401 82.6625 559.651 83.0168 560.448 83.3779C560.848 83.5587 560.997 83.6823 561.024 83.7085C561.028 83.7123 560.979 83.6659 560.93 83.562C560.876 83.4495 560.841 83.3089 560.841 83.16H564.841ZM528.361 58.2C528.361 53.6202 530.646 49.3351 535.203 46.1249C539.79 42.8929 546.694 40.76 555.721 40.76V36.76C546.107 36.76 538.332 39.0271 532.899 42.8551C527.435 46.7049 524.361 52.1398 524.361 58.2H528.361ZM555.721 40.76C565.322 40.76 572.103 42.4372 576.435 44.0713C578.603 44.8892 580.165 45.6989 581.166 46.2883C581.666 46.583 582.026 46.823 582.253 46.9816C582.366 47.0609 582.445 47.1199 582.492 47.1553C582.515 47.173 582.53 47.1847 582.537 47.1902C582.54 47.193 582.542 47.1941 582.541 47.1936C582.541 47.1934 582.54 47.1927 582.539 47.1917C582.538 47.1912 582.537 47.1905 582.536 47.1898C582.536 47.1894 582.535 47.1888 582.535 47.1886C582.534 47.1879 582.533 47.1873 583.801 45.64C585.068 44.0927 585.067 44.092 585.066 44.0912C585.066 44.091 585.065 44.0902 585.064 44.0896C585.063 44.0884 585.061 44.0872 585.059 44.0858C585.056 44.0831 585.052 44.0799 585.048 44.0764C585.039 44.0693 585.028 44.0606 585.015 44.0503C584.989 44.0297 584.954 44.0029 584.911 43.9702C584.825 43.9048 584.705 43.816 584.55 43.7072C584.24 43.4895 583.79 43.192 583.196 42.8417C582.006 42.1411 580.238 41.2308 577.846 40.3287C573.059 38.5228 565.799 36.76 555.721 36.76V40.76ZM582.026 44.7173L573.706 60.7173L577.255 62.5627L585.575 46.5627L582.026 44.7173ZM576.329 59.8288C569.701 56.7247 559.483 54.92 553.641 54.92V58.92C558.998 58.92 568.62 60.6353 574.632 63.4512L576.329 59.8288ZM553.641 54.92C552.257 54.92 550.974 55.0212 549.975 55.2875C549.487 55.4179 548.913 55.6265 548.42 55.9986C547.888 56.3996 547.321 57.1082 547.321 58.12H551.321C551.321 58.7318 550.963 59.0904 550.829 59.1914C550.734 59.2635 550.745 59.2221 551.006 59.1525C551.507 59.0188 552.384 58.92 553.641 58.92V54.92ZM547.321 58.12C547.321 59.1696 547.882 59.9282 548.424 60.3954C548.938 60.839 549.569 61.1464 550.15 61.3758C551.322 61.8387 552.9 62.2118 554.592 62.5713C558.093 63.315 562.492 64.0858 566.925 65.4692C571.352 66.8508 575.571 68.7776 578.664 71.6828C581.69 74.5251 583.721 78.3741 583.721 83.88H587.721C587.721 77.2259 585.201 72.3349 581.402 68.7672C577.671 65.2624 572.789 63.1092 568.116 61.6508C563.449 60.1942 558.748 59.365 555.424 58.6587C553.704 58.2932 552.438 57.9788 551.619 57.6555C551.426 57.5791 551.282 57.5115 551.179 57.455C551.073 57.3972 551.034 57.3644 551.035 57.3654C551.044 57.3731 551.321 57.6304 551.321 58.12H547.321ZM583.721 83.88C583.721 91.5794 576.499 101.24 557.321 101.24V105.24C577.822 105.24 587.721 94.5806 587.721 83.88H583.721ZM557.321 101.24C547.9 101.24 539.782 99.6561 534.021 98.0716C531.143 97.28 528.86 96.49 527.304 95.9018C526.527 95.6078 525.932 95.3645 525.537 95.1969C525.339 95.1131 525.191 95.0482 525.095 95.0055C525.047 94.9841 525.012 94.9683 524.99 94.9584C524.979 94.9534 524.971 94.95 524.967 94.948C524.965 94.9471 524.964 94.9465 524.963 94.9463C524.963 94.9462 524.963 94.9462 524.963 94.9463C524.964 94.9463 524.964 94.9464 524.964 94.9465C524.964 94.9466 524.965 94.9468 524.121 96.76C523.277 98.5732 523.277 98.5734 523.278 98.5737C523.278 98.5738 523.279 98.5741 523.279 98.5743C523.28 98.5748 523.281 98.5754 523.283 98.5761C523.286 98.5775 523.29 98.5792 523.294 98.5814C523.304 98.5856 523.316 98.5915 523.332 98.5988C523.364 98.6134 523.41 98.6339 523.469 98.66C523.586 98.7122 523.756 98.7866 523.976 98.88C524.417 99.0668 525.06 99.3297 525.889 99.6432C527.547 100.27 529.949 101.1 532.96 101.928C538.979 103.584 547.461 105.24 557.321 105.24V101.24ZM589.784 101L587.904 100.318L586.932 103H589.784V101ZM611.544 41V39H610.142L609.664 40.3181L611.544 41ZM642.104 41L643.985 40.3181L643.507 39H642.104V41ZM663.864 101V103H666.717L665.745 100.318L663.864 101ZM639.944 101L638.041 101.615L638.489 103H639.944V101ZM637.384 93.08L639.287 92.4649L638.84 91.08H637.384V93.08ZM616.344 93.08V91.08H614.889L614.441 92.4649L616.344 93.08ZM613.784 101V103H615.24L615.687 101.615L613.784 101ZM622.024 75.48L620.121 74.8664L619.278 77.48H622.024V75.48ZM631.704 75.48V77.48H634.468L633.604 74.855L631.704 75.48ZM627.704 63.32L629.604 62.695L629.152 61.32H627.704V63.32ZM625.944 63.32V61.32H624.488L624.041 62.7064L625.944 63.32ZM591.665 101.682L613.425 41.6819L609.664 40.3181L587.904 100.318L591.665 101.682ZM611.544 43H642.104V39H611.544V43ZM640.224 41.6819L661.984 101.682L665.745 100.318L643.985 40.3181L640.224 41.6819ZM663.864 99H639.944V103H663.864V99ZM641.847 100.385L639.287 92.4649L635.481 93.6951L638.041 101.615L641.847 100.385ZM637.384 91.08H616.344V95.08H637.384V91.08ZM614.441 92.4649L611.881 100.385L615.687 101.615L618.247 93.6951L614.441 92.4649ZM613.784 99H589.784V103H613.784V99ZM622.024 77.48H631.704V73.48H622.024V77.48ZM633.604 74.855L629.604 62.695L625.805 63.945L629.805 76.1049L633.604 74.855ZM627.704 61.32H625.944V65.32H627.704V61.32ZM624.041 62.7064L620.121 74.8664L623.928 76.0936L627.848 63.9336L624.041 62.7064ZM667.966 101H665.966V103H667.966V101ZM667.966 41V39H665.966V41H667.966ZM690.366 41H692.366V39H690.366V41ZM690.366 81.8H688.366V83.8H690.366V81.8ZM721.406 81.8H723.406V79.8H721.406V81.8ZM721.406 101V103H723.406V101H721.406ZM669.966 101V41H665.966V101H669.966ZM667.966 43H690.366V39H667.966V43ZM688.366 41V81.8H692.366V41H688.366ZM690.366 83.8H721.406V79.8H690.366V83.8ZM719.406 81.8V101H723.406V81.8H719.406ZM721.406 99H667.966V103H721.406V99Z" fill="white" mask="url(#path-2-inside-1_402_14768)"/>
</g>
<g opacity="0.75">
<mask id="path-4-inside-2_402_14768" fill="white">
<path d="M168.2 74V14H190.6V34.64H193.8L206.36 14H230.76L211.96 42.64L232.44 74H207.16L193.56 52.24H190.6V74H168.2ZM236.403 48.4V14H258.803V49.44C258.803 54.16 262.003 56.4 266.883 56.4C271.603 56.4 274.803 54.16 274.803 49.44V14H297.203V48.4C297.203 66.48 285.203 75.6 266.483 75.6C248.483 75.6 236.403 66.48 236.403 48.4ZM303.591 74V14H342.231C355.511 14 365.831 20.64 365.831 35.84C365.831 45.6 360.551 51.76 353.351 55.04L367.111 74H341.111L331.831 59.6H325.991V74H303.591ZM338.631 33.2H325.991V41.2H338.631C341.431 41.2 343.351 40.16 343.351 37.2C343.351 34.32 341.431 33.2 338.631 33.2ZM371.872 48.4V14H394.272V49.44C394.272 54.16 397.472 56.4 402.352 56.4C407.072 56.4 410.272 54.16 410.272 49.44V14H432.672V48.4C432.672 66.48 420.672 75.6 401.952 75.6C383.952 75.6 371.872 66.48 371.872 48.4ZM439.059 74V14H471.299L478.739 44L486.179 14H518.419V74H496.019V43.84L489.139 74H468.339L461.459 43.92V74H439.059ZM524.121 69.76L531.241 50.72C538.441 54.88 551.321 57.68 558.201 57.68C561.081 57.68 562.841 57.2 562.841 56.16C562.841 51.04 526.361 54.08 526.361 31.2C526.361 20.56 537.081 11.76 555.721 11.76C575.401 11.76 583.801 18.64 583.801 18.64L575.481 34.64C569.161 31.68 559.241 29.92 553.641 29.92C551.001 29.92 549.321 30.32 549.321 31.12C549.321 35.6 585.721 32.56 585.721 56.88C585.721 66.08 577.161 76.24 557.321 76.24C538.041 76.24 524.121 69.76 524.121 69.76ZM589.784 74L611.544 14H642.104L663.864 74H639.944L637.384 66.08H616.344L613.784 74H589.784ZM622.024 48.48H631.704L627.704 36.32H625.944L622.024 48.48ZM667.966 74V14H690.366V54.8H721.406V74H667.966Z"/>
</mask>
<path d="M168.2 74H166.2V76H168.2V74ZM168.2 14V12H166.2V14H168.2ZM190.6 14H192.6V12H190.6V14ZM190.6 34.64H188.6V36.64H190.6V34.64ZM193.8 34.64V36.64H194.924L195.509 35.6797L193.8 34.64ZM206.36 14V12H205.236L204.651 12.9603L206.36 14ZM230.76 14L232.432 15.0975L234.465 12H230.76V14ZM211.96 42.64L210.288 41.5425L209.569 42.6372L210.285 43.7336L211.96 42.64ZM232.44 74V76H236.135L234.115 72.9064L232.44 74ZM207.16 74L205.464 75.06L206.052 76H207.16V74ZM193.56 52.24L195.256 51.18L194.668 50.24H193.56V52.24ZM190.6 52.24V50.24H188.6V52.24H190.6ZM190.6 74V76H192.6V74H190.6ZM170.2 74V14H166.2V74H170.2ZM168.2 16H190.6V12H168.2V16ZM188.6 14V34.64H192.6V14H188.6ZM190.6 36.64H193.8V32.64H190.6V36.64ZM195.509 35.6797L208.069 15.0397L204.651 12.9603L192.091 33.6003L195.509 35.6797ZM206.36 16H230.76V12H206.36V16ZM229.088 12.9025L210.288 41.5425L213.632 43.7375L232.432 15.0975L229.088 12.9025ZM210.285 43.7336L230.765 75.0936L234.115 72.9064L213.635 41.5464L210.285 43.7336ZM232.44 72H207.16V76H232.44V72ZM208.856 72.94L195.256 51.18L191.864 53.3L205.464 75.06L208.856 72.94ZM193.56 50.24H190.6V54.24H193.56V50.24ZM188.6 52.24V74H192.6V52.24H188.6ZM190.6 72H168.2V76H190.6V72ZM236.403 14V12H234.403V14H236.403ZM258.803 14H260.803V12H258.803V14ZM274.803 14V12H272.803V14H274.803ZM297.203 14H299.203V12H297.203V14ZM238.403 48.4V14H234.403V48.4H238.403ZM236.403 16H258.803V12H236.403V16ZM256.803 14V49.44H260.803V14H256.803ZM256.803 49.44C256.803 52.2885 257.793 54.6443 259.749 56.2399C261.64 57.7821 264.173 58.4 266.883 58.4V54.4C264.713 54.4 263.206 53.8979 262.277 53.1401C261.414 52.4357 260.803 51.3115 260.803 49.44H256.803ZM266.883 58.4C269.527 58.4 272.021 57.7759 273.888 56.231C275.815 54.6367 276.803 52.2872 276.803 49.44H272.803C272.803 51.3128 272.191 52.4433 271.338 53.149C270.426 53.9041 268.959 54.4 266.883 54.4V58.4ZM276.803 49.44V14H272.803V49.44H276.803ZM274.803 16H297.203V12H274.803V16ZM295.203 14V48.4H299.203V14H295.203ZM295.203 48.4C295.203 56.969 292.38 63.1653 287.568 67.2563C282.705 71.39 275.547 73.6 266.483 73.6V77.6C276.139 77.6 284.341 75.25 290.159 70.3037C296.027 65.3147 299.203 57.911 299.203 48.4H295.203ZM266.483 73.6C257.796 73.6 250.797 71.3983 245.998 67.2647C241.245 63.17 238.403 56.9661 238.403 48.4H234.403C234.403 57.9139 237.601 65.31 243.388 70.2953C249.13 75.2417 257.17 77.6 266.483 77.6V73.6ZM303.591 74H301.591V76H303.591V74ZM303.591 14V12H301.591V14H303.591ZM353.351 55.04L352.521 53.22L350.295 54.2344L351.732 56.2147L353.351 55.04ZM367.111 74V76H371.033L368.729 72.8253L367.111 74ZM341.111 74L339.429 75.0834L340.02 76H341.111V74ZM331.831 59.6L333.512 58.5166L332.921 57.6H331.831V59.6ZM325.991 59.6V57.6H323.991V59.6H325.991ZM325.991 74V76H327.991V74H325.991ZM325.991 33.2V31.2H323.991V33.2H325.991ZM325.991 41.2H323.991V43.2H325.991V41.2ZM305.591 74V14H301.591V74H305.591ZM303.591 16H342.231V12H303.591V16ZM342.231 16C348.567 16 353.955 17.5864 357.725 20.7517C361.439 23.8703 363.831 28.7283 363.831 35.84H367.831C367.831 27.7517 365.062 21.6897 360.297 17.6883C355.587 13.7336 349.174 12 342.231 12V16ZM363.831 35.84C363.831 44.6956 359.125 50.2117 352.521 53.22L354.18 56.86C361.976 53.3083 367.831 46.5044 367.831 35.84H363.831ZM351.732 56.2147L365.492 75.1747L368.729 72.8253L354.969 53.8653L351.732 56.2147ZM367.111 72H341.111V76H367.111V72ZM342.792 72.9166L333.512 58.5166L330.149 60.6834L339.429 75.0834L342.792 72.9166ZM331.831 57.6H325.991V61.6H331.831V57.6ZM323.991 59.6V74H327.991V59.6H323.991ZM325.991 72H303.591V76H325.991V72ZM338.631 31.2H325.991V35.2H338.631V31.2ZM323.991 33.2V41.2H327.991V33.2H323.991ZM325.991 43.2H338.631V39.2H325.991V43.2ZM338.631 43.2C340.219 43.2 341.916 42.9157 343.25 41.9031C344.691 40.8094 345.351 39.1491 345.351 37.2H341.351C341.351 38.2109 341.051 38.5505 340.831 38.7169C340.506 38.9643 339.843 39.2 338.631 39.2V43.2ZM345.351 37.2C345.351 35.2749 344.681 33.6303 343.262 32.5362C341.937 31.5147 340.246 31.2 338.631 31.2V35.2C339.815 35.2 340.484 35.4453 340.819 35.7038C341.06 35.8897 341.351 36.2451 341.351 37.2H345.351ZM371.872 14V12H369.872V14H371.872ZM394.272 14H396.272V12H394.272V14ZM410.272 14V12H408.272V14H410.272ZM432.672 14H434.672V12H432.672V14ZM373.872 48.4V14H369.872V48.4H373.872ZM371.872 16H394.272V12H371.872V16ZM392.272 14V49.44H396.272V14H392.272ZM392.272 49.44C392.272 52.2885 393.261 54.6443 395.218 56.2399C397.109 57.7821 399.642 58.4 402.352 58.4V54.4C400.182 54.4 398.675 53.8979 397.746 53.1401C396.882 52.4357 396.272 51.3115 396.272 49.44H392.272ZM402.352 58.4C404.996 58.4 407.489 57.7759 409.357 56.231C411.284 54.6367 412.272 52.2872 412.272 49.44H408.272C408.272 51.3128 407.66 52.4433 406.807 53.149C405.894 53.9041 404.428 54.4 402.352 54.4V58.4ZM412.272 49.44V14H408.272V49.44H412.272ZM410.272 16H432.672V12H410.272V16ZM430.672 14V48.4H434.672V14H430.672ZM430.672 48.4C430.672 56.969 427.848 63.1653 423.036 67.2563C418.174 71.39 411.016 73.6 401.952 73.6V77.6C411.608 77.6 419.81 75.25 425.627 70.3037C431.496 65.3147 434.672 57.911 434.672 48.4H430.672ZM401.952 73.6C393.265 73.6 386.265 71.3983 381.467 67.2647C376.714 63.17 373.872 56.9661 373.872 48.4H369.872C369.872 57.9139 373.07 65.31 378.857 70.2953C384.598 75.2417 392.639 77.6 401.952 77.6V73.6ZM439.059 74H437.059V76H439.059V74ZM439.059 14V12H437.059V14H439.059ZM471.299 14L473.241 13.5186L472.864 12H471.299V14ZM478.739 44L476.798 44.4814H480.681L478.739 44ZM486.179 14V12H484.615L484.238 13.5186L486.179 14ZM518.419 14H520.419V12H518.419V14ZM518.419 74V76H520.419V74H518.419ZM496.019 74H494.019V76H496.019V74ZM496.019 43.84H498.019L494.069 43.3952L496.019 43.84ZM489.139 74V76H490.735L491.089 74.4448L489.139 74ZM468.339 74L466.39 74.4459L466.745 76H468.339V74ZM461.459 43.92L463.409 43.4741L459.459 43.92H461.459ZM461.459 74V76H463.459V74H461.459ZM441.059 74V14H437.059V74H441.059ZM439.059 16H471.299V12H439.059V16ZM469.358 14.4814L476.798 44.4814L480.681 43.5186L473.241 13.5186L469.358 14.4814ZM480.681 44.4814L488.121 14.4814L484.238 13.5186L476.798 43.5186L480.681 44.4814ZM486.179 16H518.419V12H486.179V16ZM516.419 14V74H520.419V14H516.419ZM518.419 72H496.019V76H518.419V72ZM498.019 74V43.84H494.019V74H498.019ZM494.069 43.3952L487.189 73.5552L491.089 74.4448L497.969 44.2848L494.069 43.3952ZM489.139 72H468.339V76H489.139V72ZM470.289 73.5541L463.409 43.4741L459.51 44.3659L466.39 74.4459L470.289 73.5541ZM459.459 43.92V74H463.459V43.92H459.459ZM461.459 72H439.059V76H461.459V72ZM524.121 69.76L522.247 69.0595L521.599 70.7924L523.277 71.5732L524.121 69.76ZM531.241 50.72L532.241 48.9883L530.195 47.806L529.367 50.0195L531.241 50.72ZM583.801 18.64L585.575 19.5627L586.324 18.1218L585.068 17.0927L583.801 18.64ZM575.481 34.64L574.632 36.4512L576.37 37.265L577.255 35.5627L575.481 34.64ZM525.994 70.4605L533.114 51.4205L529.367 50.0195L522.247 69.0595L525.994 70.4605ZM530.24 52.4517C534.072 54.6657 539.297 56.461 544.365 57.7026C549.438 58.9453 554.546 59.68 558.201 59.68V55.68C554.975 55.68 550.204 55.0147 545.317 53.8174C540.425 52.619 535.609 50.9343 532.241 48.9883L530.24 52.4517ZM558.201 59.68C559.706 59.68 561.106 59.5598 562.197 59.219C563.126 58.9286 564.841 58.1182 564.841 56.16H560.841C560.841 55.775 561.033 55.4863 561.174 55.3576C561.264 55.2757 561.26 55.3211 561.004 55.401C560.495 55.5602 559.575 55.68 558.201 55.68V59.68ZM564.841 56.16C564.841 55.1733 564.379 54.4013 563.838 53.8661C563.33 53.3632 562.696 53.0047 562.098 52.7339C560.901 52.192 559.3 51.765 557.592 51.3691C554.036 50.5451 549.658 49.771 545.176 48.4246C540.719 47.0856 536.483 45.2627 533.383 42.5317C530.358 39.8672 528.361 36.2994 528.361 31.2H524.361C524.361 37.5406 526.924 42.1728 530.739 45.5333C534.478 48.8272 539.362 50.8544 544.025 52.2554C548.664 53.649 553.405 54.5049 556.689 55.2659C558.401 55.6625 559.651 56.0168 560.448 56.3779C560.848 56.5587 560.997 56.6823 561.024 56.7085C561.028 56.7123 560.979 56.6659 560.93 56.562C560.876 56.4495 560.841 56.3089 560.841 56.16H564.841ZM528.361 31.2C528.361 26.6202 530.646 22.3351 535.203 19.1249C539.79 15.8929 546.694 13.76 555.721 13.76V9.76C546.107 9.76 538.332 12.0271 532.899 15.8551C527.435 19.7049 524.361 25.1398 524.361 31.2H528.361ZM555.721 13.76C565.322 13.76 572.103 15.4372 576.435 17.0713C578.603 17.8892 580.165 18.6989 581.166 19.2883C581.666 19.583 582.026 19.823 582.253 19.9816C582.366 20.0609 582.445 20.1199 582.492 20.1553C582.515 20.173 582.53 20.1847 582.537 20.1902C582.54 20.193 582.542 20.1941 582.541 20.1936C582.541 20.1934 582.54 20.1927 582.539 20.1917C582.538 20.1912 582.537 20.1905 582.536 20.1898C582.536 20.1894 582.535 20.1888 582.535 20.1886C582.534 20.1879 582.533 20.1873 583.801 18.64C585.068 17.0927 585.067 17.092 585.066 17.0912C585.066 17.091 585.065 17.0902 585.064 17.0896C585.063 17.0884 585.061 17.0872 585.059 17.0858C585.056 17.0831 585.052 17.0799 585.048 17.0764C585.039 17.0693 585.028 17.0606 585.015 17.0503C584.989 17.0297 584.954 17.0029 584.911 16.9702C584.825 16.9048 584.705 16.816 584.55 16.7072C584.24 16.4895 583.79 16.192 583.196 15.8417C582.006 15.1411 580.238 14.2308 577.846 13.3287C573.059 11.5228 565.799 9.76 555.721 9.76V13.76ZM582.026 17.7173L573.706 33.7173L577.255 35.5627L585.575 19.5627L582.026 17.7173ZM576.329 32.8288C569.701 29.7247 559.483 27.92 553.641 27.92V31.92C558.998 31.92 568.62 33.6353 574.632 36.4512L576.329 32.8288ZM553.641 27.92C552.257 27.92 550.974 28.0212 549.975 28.2875C549.487 28.4179 548.913 28.6265 548.42 28.9986C547.888 29.3996 547.321 30.1082 547.321 31.12H551.321C551.321 31.7318 550.963 32.0904 550.829 32.1914C550.734 32.2635 550.745 32.2221 551.006 32.1525C551.507 32.0188 552.384 31.92 553.641 31.92V27.92ZM547.321 31.12C547.321 32.1696 547.882 32.9282 548.424 33.3954C548.938 33.839 549.569 34.1464 550.15 34.3758C551.322 34.8387 552.9 35.2118 554.592 35.5713C558.093 36.315 562.492 37.0858 566.925 38.4692C571.352 39.8508 575.571 41.7776 578.664 44.6828C581.69 47.5251 583.721 51.3741 583.721 56.88H587.721C587.721 50.2259 585.201 45.3349 581.402 41.7672C577.671 38.2624 572.789 36.1092 568.116 34.6508C563.449 33.1942 558.748 32.365 555.424 31.6587C553.704 31.2932 552.438 30.9788 551.619 30.6555C551.426 30.5791 551.282 30.5115 551.179 30.455C551.073 30.3972 551.034 30.3644 551.035 30.3654C551.044 30.3731 551.321 30.6304 551.321 31.12H547.321ZM583.721 56.88C583.721 64.5794 576.499 74.24 557.321 74.24V78.24C577.822 78.24 587.721 67.5806 587.721 56.88H583.721ZM557.321 74.24C547.9 74.24 539.782 72.6561 534.021 71.0716C531.143 70.28 528.86 69.49 527.304 68.9018C526.527 68.6078 525.932 68.3645 525.537 68.1969C525.339 68.1131 525.191 68.0482 525.095 68.0055C525.047 67.9841 525.012 67.9683 524.99 67.9584C524.979 67.9534 524.971 67.95 524.967 67.948C524.965 67.9471 524.964 67.9465 524.963 67.9463C524.963 67.9462 524.963 67.9462 524.963 67.9463C524.964 67.9463 524.964 67.9464 524.964 67.9465C524.964 67.9466 524.965 67.9468 524.121 69.76C523.277 71.5732 523.277 71.5734 523.278 71.5737C523.278 71.5738 523.279 71.5741 523.279 71.5743C523.28 71.5748 523.281 71.5754 523.283 71.5761C523.286 71.5775 523.29 71.5792 523.294 71.5814C523.304 71.5856 523.316 71.5915 523.332 71.5988C523.364 71.6134 523.41 71.6339 523.469 71.66C523.586 71.7122 523.756 71.7866 523.976 71.88C524.417 72.0668 525.06 72.3297 525.889 72.6432C527.547 73.27 529.949 74.1 532.96 74.9284C538.979 76.5839 547.461 78.24 557.321 78.24V74.24ZM589.784 74L587.904 73.3181L586.932 76H589.784V74ZM611.544 14V12H610.142L609.664 13.3181L611.544 14ZM642.104 14L643.985 13.3181L643.507 12H642.104V14ZM663.864 74V76H666.717L665.745 73.3181L663.864 74ZM639.944 74L638.041 74.6151L638.489 76H639.944V74ZM637.384 66.08L639.287 65.4649L638.84 64.08H637.384V66.08ZM616.344 66.08V64.08H614.889L614.441 65.4649L616.344 66.08ZM613.784 74V76H615.24L615.687 74.6151L613.784 74ZM622.024 48.48L620.121 47.8664L619.278 50.48H622.024V48.48ZM631.704 48.48V50.48H634.468L633.604 47.855L631.704 48.48ZM627.704 36.32L629.604 35.695L629.152 34.32H627.704V36.32ZM625.944 36.32V34.32H624.488L624.041 35.7064L625.944 36.32ZM591.665 74.6819L613.425 14.6819L609.664 13.3181L587.904 73.3181L591.665 74.6819ZM611.544 16H642.104V12H611.544V16ZM640.224 14.6819L661.984 74.6819L665.745 73.3181L643.985 13.3181L640.224 14.6819ZM663.864 72H639.944V76H663.864V72ZM641.847 73.3849L639.287 65.4649L635.481 66.6951L638.041 74.6151L641.847 73.3849ZM637.384 64.08H616.344V68.08H637.384V64.08ZM614.441 65.4649L611.881 73.3849L615.687 74.6151L618.247 66.6951L614.441 65.4649ZM613.784 72H589.784V76H613.784V72ZM622.024 50.48H631.704V46.48H622.024V50.48ZM633.604 47.855L629.604 35.695L625.805 36.945L629.805 49.1049L633.604 47.855ZM627.704 34.32H625.944V38.32H627.704V34.32ZM624.041 35.7064L620.121 47.8664L623.928 49.0936L627.848 36.9336L624.041 35.7064ZM667.966 74H665.966V76H667.966V74ZM667.966 14V12H665.966V14H667.966ZM690.366 14H692.366V12H690.366V14ZM690.366 54.8H688.366V56.8H690.366V54.8ZM721.406 54.8H723.406V52.8H721.406V54.8ZM721.406 74V76H723.406V74H721.406ZM669.966 74V14H665.966V74H669.966ZM667.966 16H690.366V12H667.966V16ZM688.366 14V54.8H692.366V14H688.366ZM690.366 56.8H721.406V52.8H690.366V56.8ZM719.406 54.8V74H723.406V54.8H719.406ZM721.406 72H667.966V76H721.406V72Z" fill="white" mask="url(#path-4-inside-2_402_14768)"/>
</g>
<path d="M168.2 87V27H190.6V47.64H193.8L206.36 27H230.76L211.96 55.64L232.44 87H207.16L193.56 65.24H190.6V87H168.2ZM236.403 61.4V27H258.803V62.44C258.803 67.16 262.003 69.4 266.883 69.4C271.603 69.4 274.803 67.16 274.803 62.44V27H297.203V61.4C297.203 79.48 285.203 88.6 266.483 88.6C248.483 88.6 236.403 79.48 236.403 61.4ZM303.591 87V27H342.231C355.511 27 365.831 33.64 365.831 48.84C365.831 58.6 360.551 64.76 353.351 68.04L367.111 87H341.111L331.831 72.6H325.991V87H303.591ZM338.631 46.2H325.991V54.2H338.631C341.431 54.2 343.351 53.16 343.351 50.2C343.351 47.32 341.431 46.2 338.631 46.2ZM371.872 61.4V27H394.272V62.44C394.272 67.16 397.472 69.4 402.352 69.4C407.072 69.4 410.272 67.16 410.272 62.44V27H432.672V61.4C432.672 79.48 420.672 88.6 401.952 88.6C383.952 88.6 371.872 79.48 371.872 61.4ZM439.059 87V27H471.299L478.739 57L486.179 27H518.419V87H496.019V56.84L489.139 87H468.339L461.459 56.92V87H439.059ZM524.121 82.76L531.241 63.72C538.441 67.88 551.321 70.68 558.201 70.68C561.081 70.68 562.841 70.2 562.841 69.16C562.841 64.04 526.361 67.08 526.361 44.2C526.361 33.56 537.081 24.76 555.721 24.76C575.401 24.76 583.801 31.64 583.801 31.64L575.481 47.64C569.161 44.68 559.241 42.92 553.641 42.92C551.001 42.92 549.321 43.32 549.321 44.12C549.321 48.6 585.721 45.56 585.721 69.88C585.721 79.08 577.161 89.24 557.321 89.24C538.041 89.24 524.121 82.76 524.121 82.76ZM589.784 87L611.544 27H642.104L663.864 87H639.944L637.384 79.08H616.344L613.784 87H589.784ZM622.024 61.48H631.704L627.704 49.32H625.944L622.024 61.48ZM667.966 87V27H690.366V67.8H721.406V87H667.966Z" fill="white"/>
</svg>
