<svg width="564" height="127" viewBox="0 0 564 127" fill="none" xmlns="http://www.w3.org/2000/svg">
<rect y="27" width="169" height="60" fill="white"/>
<g opacity="0.75">
<mask id="path-2-inside-1_433_24142" fill="white">
<path d="M215.32 67.8C215.32 71.3733 214.493 74.6267 212.84 77.56C211.187 80.44 208.733 82.7333 205.48 84.44C202.28 86.1467 198.387 87 193.8 87H186.76V105H169V48.36H193.8C200.733 48.36 206.04 50.12 209.72 53.64C213.453 57.16 215.32 61.88 215.32 67.8ZM191.8 73C195.48 73 197.32 71.2667 197.32 67.8C197.32 64.3333 195.48 62.6 191.8 62.6H186.76V73H191.8ZM249.433 105L238.793 84.68H238.713V105H220.953V48.36H247.353C251.94 48.36 255.86 49.1867 259.113 50.84C262.366 52.44 264.793 54.6533 266.393 57.48C268.046 60.2533 268.873 63.4 268.873 66.92C268.873 70.7067 267.806 74.0667 265.673 77C263.593 79.9333 260.58 82.04 256.633 83.32L268.953 105H249.433ZM238.713 72.84H245.753C247.46 72.84 248.74 72.4667 249.593 71.72C250.446 70.92 250.873 69.6933 250.873 68.04C250.873 66.5467 250.42 65.3733 249.513 64.52C248.66 63.6667 247.406 63.24 245.753 63.24H238.713V72.84ZM302.147 105.56C296.814 105.56 291.907 104.307 287.427 101.8C283 99.2933 279.48 95.8267 276.867 91.4C274.254 86.9733 272.947 81.9867 272.947 76.44C272.947 70.8933 274.254 65.9067 276.867 61.48C279.48 57.0533 283 53.6133 287.427 51.16C291.907 48.6533 296.814 47.4 302.147 47.4C307.48 47.4 312.36 48.6533 316.787 51.16C321.214 53.6133 324.707 57.0533 327.267 61.48C329.88 65.9067 331.187 70.8933 331.187 76.44C331.187 81.9867 329.88 86.9733 327.267 91.4C324.707 95.8267 321.187 99.2933 316.707 101.8C312.28 104.307 307.427 105.56 302.147 105.56ZM302.147 89C305.667 89 308.387 87.88 310.307 85.64C312.227 83.3467 313.187 80.28 313.187 76.44C313.187 72.5467 312.227 69.48 310.307 67.24C308.387 64.9467 305.667 63.8 302.147 63.8C298.574 63.8 295.827 64.9467 293.907 67.24C291.987 69.48 291.027 72.5467 291.027 76.44C291.027 80.28 291.987 83.3467 293.907 85.64C295.827 87.88 298.574 89 302.147 89ZM377.114 48.36V84.92C377.114 91.6933 375.327 96.84 371.754 100.36C368.234 103.827 363.274 105.56 356.874 105.56C349.994 105.56 344.527 103.667 340.474 99.88C336.42 96.0933 334.394 90.5733 334.394 83.32H351.914C351.914 85.6133 352.287 87.24 353.034 88.2C353.78 89.1067 354.794 89.56 356.074 89.56C357.14 89.56 357.967 89.2133 358.554 88.52C359.14 87.8267 359.434 86.6267 359.434 84.92V48.36H377.114ZM402.541 62.52V69.48H420.141V82.84H402.541V90.84H422.541V105H384.781V48.36H422.541V62.52H402.541ZM446.994 91.56H464.114V105H429.234V48.36H446.994V91.56ZM487.463 62.52V69.48H505.063V82.84H487.463V90.84H507.463V105H469.703V48.36H507.463V62.52H487.463ZM542.636 105L531.996 84.68H531.916V105H514.156V48.36H540.556C545.143 48.36 549.063 49.1867 552.316 50.84C555.57 52.44 557.996 54.6533 559.596 57.48C561.25 60.2533 562.076 63.4 562.076 66.92C562.076 70.7067 561.01 74.0667 558.876 77C556.796 79.9333 553.783 82.04 549.836 83.32L562.156 105H542.636ZM531.916 72.84H538.956C540.663 72.84 541.943 72.4667 542.796 71.72C543.65 70.92 544.076 69.6933 544.076 68.04C544.076 66.5467 543.623 65.3733 542.716 64.52C541.863 63.6667 540.61 63.24 538.956 63.24H531.916V72.84Z"/>
</mask>
<path d="M212.84 77.56L214.575 78.5557L214.578 78.5489L214.582 78.542L212.84 77.56ZM205.48 84.44L204.551 82.6689L204.539 82.6753L205.48 84.44ZM186.76 87V85H184.76V87H186.76ZM186.76 105V107H188.76V105H186.76ZM169 105H167V107H169V105ZM169 48.36V46.36H167V48.36H169ZM209.72 53.64L208.338 55.0853L208.343 55.0902L208.348 55.0952L209.72 53.64ZM186.76 62.6V60.6H184.76V62.6H186.76ZM186.76 73H184.76V75H186.76V73ZM213.32 67.8C213.32 71.0511 212.572 73.9628 211.098 76.578L214.582 78.542C216.415 75.2905 217.32 71.6956 217.32 67.8H213.32ZM211.105 76.5643C209.661 79.08 207.505 81.1194 204.551 82.6689L206.409 86.2111C209.962 84.3472 212.712 81.8 214.575 78.5557L211.105 76.5643ZM204.539 82.6753C201.695 84.1919 198.143 85 193.8 85V89C198.63 89 202.865 88.1014 206.421 86.2047L204.539 82.6753ZM193.8 85H186.76V89H193.8V85ZM184.76 87V105H188.76V87H184.76ZM186.76 103H169V107H186.76V103ZM171 105V48.36H167V105H171ZM169 50.36H193.8V46.36H169V50.36ZM193.8 50.36C200.408 50.36 205.147 52.0338 208.338 55.0853L211.102 52.1947C206.933 48.2062 201.059 46.36 193.8 46.36V50.36ZM208.348 55.0952C211.618 58.1781 213.32 62.3382 213.32 67.8H217.32C217.32 61.4218 215.289 56.1419 211.092 52.1848L208.348 55.0952ZM191.8 75C193.92 75 195.881 74.5031 197.311 73.1558C198.764 71.7873 199.32 69.8732 199.32 67.8H195.32C195.32 69.1935 194.956 69.8793 194.569 70.2442C194.159 70.6302 193.36 71 191.8 71V75ZM199.32 67.8C199.32 65.7268 198.764 63.8127 197.311 62.4442C195.881 61.0969 193.92 60.6 191.8 60.6V64.6C193.36 64.6 194.159 64.9698 194.569 65.3558C194.956 65.7207 195.32 66.4065 195.32 67.8H199.32ZM191.8 60.6H186.76V64.6H191.8V60.6ZM184.76 62.6V73H188.76V62.6H184.76ZM186.76 75H191.8V71H186.76V75ZM249.433 105L247.661 105.928L248.223 107H249.433V105ZM238.793 84.68L240.565 83.7522L240.003 82.68H238.793V84.68ZM238.713 84.68V82.68H236.713V84.68H238.713ZM238.713 105V107H240.713V105H238.713ZM220.953 105H218.953V107H220.953V105ZM220.953 48.36V46.36H218.953V48.36H220.953ZM259.113 50.84L258.207 52.623L258.219 52.6289L258.23 52.6347L259.113 50.84ZM266.393 57.48L264.653 58.4652L264.664 58.4848L264.675 58.5041L266.393 57.48ZM265.673 77L264.056 75.8237L264.049 75.8334L264.042 75.8431L265.673 77ZM256.633 83.32L256.016 81.4176L253.682 82.1746L254.894 84.3081L256.633 83.32ZM268.953 105V107H272.39L270.692 104.012L268.953 105ZM238.713 72.84H236.713V74.84H238.713V72.84ZM249.593 71.72L250.91 73.2252L250.936 73.2025L250.961 73.1791L249.593 71.72ZM249.513 64.52L248.099 65.9342L248.12 65.9556L248.142 65.9764L249.513 64.52ZM238.713 63.24V61.24H236.713V63.24H238.713ZM251.205 104.072L240.565 83.7522L237.021 85.6078L247.661 105.928L251.205 104.072ZM238.793 82.68H238.713V86.68H238.793V82.68ZM236.713 84.68V105H240.713V84.68H236.713ZM238.713 103H220.953V107H238.713V103ZM222.953 105V48.36H218.953V105H222.953ZM220.953 50.36H247.353V46.36H220.953V50.36ZM247.353 50.36C251.704 50.36 255.297 51.1442 258.207 52.623L260.019 49.057C256.422 47.2291 252.176 46.36 247.353 46.36V50.36ZM258.23 52.6347C261.167 54.0787 263.273 56.0285 264.653 58.4652L268.134 56.4948C266.313 53.2782 263.566 50.8013 259.996 49.0453L258.23 52.6347ZM264.675 58.5041C266.127 60.9401 266.873 63.727 266.873 66.92H270.873C270.873 63.073 269.965 59.5665 268.111 56.4559L264.675 58.5041ZM266.873 66.92C266.873 70.3038 265.929 73.2479 264.056 75.8237L267.291 78.1763C269.684 74.8855 270.873 71.1095 270.873 66.92H266.873ZM264.042 75.8431C262.248 78.3729 259.619 80.2491 256.016 81.4176L257.25 85.2224C261.541 83.8309 264.938 81.4938 267.305 78.1569L264.042 75.8431ZM254.894 84.3081L267.214 105.988L270.692 104.012L258.372 82.3319L254.894 84.3081ZM268.953 103H249.433V107H268.953V103ZM238.713 74.84H245.753V70.84H238.713V74.84ZM245.753 74.84C247.707 74.84 249.547 74.4183 250.91 73.2252L248.276 70.2148C247.933 70.515 247.212 70.84 245.753 70.84V74.84ZM250.961 73.1791C252.361 71.8664 252.873 70.0126 252.873 68.04H248.873C248.873 69.374 248.532 69.9736 248.225 70.2609L250.961 73.1791ZM252.873 68.04C252.873 66.1141 252.271 64.3693 250.884 63.0636L248.142 65.9764C248.568 66.3774 248.873 66.9793 248.873 68.04H252.873ZM250.927 63.1058C249.577 61.7559 247.736 61.24 245.753 61.24V65.24C247.077 65.24 247.742 65.5774 248.099 65.9342L250.927 63.1058ZM245.753 61.24H238.713V65.24H245.753V61.24ZM236.713 63.24V72.84H240.713V63.24H236.713ZM287.427 101.8L286.441 103.54L286.45 103.545L287.427 101.8ZM276.867 91.4L275.145 92.4168L276.867 91.4ZM287.427 51.16L288.396 52.9093L288.403 52.9054L287.427 51.16ZM316.787 51.16L315.801 52.9003L315.809 52.9049L315.817 52.9093L316.787 51.16ZM327.267 61.48L325.536 62.4812L325.54 62.489L325.545 62.4968L327.267 61.48ZM327.267 91.4L325.545 90.3832L325.54 90.391L325.536 90.3988L327.267 91.4ZM316.707 101.8L315.73 100.055L315.721 100.06L316.707 101.8ZM310.307 85.64L311.825 86.9416L311.833 86.9328L311.84 86.9239L310.307 85.64ZM310.307 67.24L308.773 68.5239L308.781 68.5328L308.788 68.5416L310.307 67.24ZM293.907 67.24L295.425 68.5416L295.433 68.5328L295.44 68.5239L293.907 67.24ZM293.907 85.64L292.373 86.9239L292.381 86.9328L292.388 86.9416L293.907 85.64ZM302.147 103.56C297.142 103.56 292.573 102.388 288.403 100.055L286.45 103.545C291.241 106.226 296.485 107.56 302.147 107.56V103.56ZM288.412 100.06C284.294 97.7274 281.026 94.5117 278.589 90.3832L275.145 92.4168C277.934 97.1416 281.707 100.859 286.441 103.54L288.412 100.06ZM278.589 90.3832C276.172 86.2888 274.947 81.6582 274.947 76.44H270.947C270.947 82.3151 272.335 87.6579 275.145 92.4168L278.589 90.3832ZM274.947 76.44C274.947 71.2217 276.172 66.5912 278.589 62.4968L275.145 60.4632C272.335 65.2221 270.947 70.5649 270.947 76.44H274.947ZM278.589 62.4968C281.024 58.3719 284.287 55.1871 288.396 52.9093L286.457 49.4107C281.714 52.0396 277.936 55.7347 275.145 60.4632L278.589 62.4968ZM288.403 52.9054C292.573 50.5723 297.142 49.4 302.147 49.4V45.4C296.485 45.4 291.241 46.7344 286.45 49.4146L288.403 52.9054ZM302.147 49.4C307.152 49.4 311.69 50.5722 315.801 52.9003L317.772 49.4197C313.03 46.7344 307.808 45.4 302.147 45.4V49.4ZM315.817 52.9093C319.924 55.185 323.155 58.3649 325.536 62.4812L328.998 60.4787C326.259 55.7417 322.504 52.0416 317.756 49.4107L315.817 52.9093ZM325.545 62.4968C327.962 66.5912 329.187 71.2217 329.187 76.44H333.187C333.187 70.5649 331.799 65.2221 328.989 60.4632L325.545 62.4968ZM329.187 76.44C329.187 81.6582 327.962 86.2888 325.545 90.3832L328.989 92.4168C331.799 87.6579 333.187 82.3151 333.187 76.44H329.187ZM325.536 90.3988C323.156 94.5127 319.898 97.7229 315.73 100.055L317.683 103.545C322.476 100.864 326.257 97.1406 328.998 92.4013L325.536 90.3988ZM315.721 100.06C311.607 102.39 307.095 103.56 302.147 103.56V107.56C307.759 107.56 312.953 106.224 317.692 103.54L315.721 100.06ZM302.147 91C306.127 91 309.452 89.7111 311.825 86.9416L308.788 84.3384C307.322 86.0489 305.207 87 302.147 87V91ZM311.84 86.9239C314.139 84.1785 315.187 80.6135 315.187 76.44H311.187C311.187 79.9465 310.315 82.5148 308.773 84.3561L311.84 86.9239ZM315.187 76.44C315.187 72.224 314.144 68.6432 311.825 65.9384L308.788 68.5416C310.31 70.3168 311.187 72.8694 311.187 76.44H315.187ZM311.84 65.9561C309.472 63.1268 306.143 61.8 302.147 61.8V65.8C305.191 65.8 307.302 66.7665 308.773 68.5239L311.84 65.9561ZM302.147 61.8C298.109 61.8 294.748 63.1196 292.373 65.9561L295.44 68.5239C296.906 66.7737 299.038 65.8 302.147 65.8V61.8ZM292.388 65.9384C290.07 68.6432 289.027 72.224 289.027 76.44H293.027C293.027 72.8694 293.904 70.3168 295.425 68.5416L292.388 65.9384ZM289.027 76.44C289.027 80.6135 290.075 84.1785 292.373 86.9239L295.44 84.3561C293.899 82.5148 293.027 79.9465 293.027 76.44H289.027ZM292.388 86.9416C294.768 89.718 298.125 91 302.147 91V87C299.022 87 296.886 86.042 295.425 84.3384L292.388 86.9416ZM377.114 48.36H379.114V46.36H377.114V48.36ZM371.754 100.36L373.157 101.785L373.157 101.785L371.754 100.36ZM340.474 99.88L341.839 98.4185L340.474 99.88ZM334.394 83.32V81.32H332.394V83.32H334.394ZM351.914 83.32H353.914V81.32H351.914V83.32ZM353.034 88.2L351.455 89.4279L351.472 89.4499L351.49 89.4714L353.034 88.2ZM358.554 88.52L357.027 87.2281L358.554 88.52ZM359.434 48.36V46.36H357.434V48.36H359.434ZM375.114 48.36V84.92H379.114V48.36H375.114ZM375.114 84.92C375.114 91.3512 373.423 95.908 370.35 98.9352L373.157 101.785C377.231 97.772 379.114 92.0355 379.114 84.92H375.114ZM370.35 98.935C367.306 101.934 362.91 103.56 356.874 103.56V107.56C363.637 107.56 369.162 105.72 373.157 101.785L370.35 98.935ZM356.874 103.56C350.373 103.56 345.438 101.781 341.839 98.4185L339.108 101.341C343.616 105.552 349.615 107.56 356.874 107.56V103.56ZM341.839 98.4185C338.305 95.1171 336.394 90.1985 336.394 83.32H332.394C332.394 90.9481 334.536 97.0695 339.108 101.341L341.839 98.4185ZM334.394 85.32H351.914V81.32H334.394V85.32ZM349.914 83.32C349.914 85.7176 350.282 87.9194 351.455 89.4279L354.612 86.9721C354.292 86.5606 353.914 85.509 353.914 83.32H349.914ZM351.49 89.4714C352.654 90.8846 354.257 91.56 356.074 91.56V87.56C355.33 87.56 354.907 87.3288 354.578 86.9286L351.49 89.4714ZM356.074 91.56C357.615 91.56 359.046 91.0344 360.081 89.8119L357.027 87.2281C356.888 87.3923 356.666 87.56 356.074 87.56V91.56ZM360.081 89.8119C361.146 88.5531 361.434 86.736 361.434 84.92H357.434C357.434 86.5173 357.135 87.1002 357.027 87.2281L360.081 89.8119ZM361.434 84.92V48.36H357.434V84.92H361.434ZM359.434 50.36H377.114V46.36H359.434V50.36ZM402.541 62.52V60.52H400.541V62.52H402.541ZM402.541 69.48H400.541V71.48H402.541V69.48ZM420.141 69.48H422.141V67.48H420.141V69.48ZM420.141 82.84V84.84H422.141V82.84H420.141ZM402.541 82.84V80.84H400.541V82.84H402.541ZM402.541 90.84H400.541V92.84H402.541V90.84ZM422.541 90.84H424.541V88.84H422.541V90.84ZM422.541 105V107H424.541V105H422.541ZM384.781 105H382.781V107H384.781V105ZM384.781 48.36V46.36H382.781V48.36H384.781ZM422.541 48.36H424.541V46.36H422.541V48.36ZM422.541 62.52V64.52H424.541V62.52H422.541ZM400.541 62.52V69.48H404.541V62.52H400.541ZM402.541 71.48H420.141V67.48H402.541V71.48ZM418.141 69.48V82.84H422.141V69.48H418.141ZM420.141 80.84H402.541V84.84H420.141V80.84ZM400.541 82.84V90.84H404.541V82.84H400.541ZM402.541 92.84H422.541V88.84H402.541V92.84ZM420.541 90.84V105H424.541V90.84H420.541ZM422.541 103H384.781V107H422.541V103ZM386.781 105V48.36H382.781V105H386.781ZM384.781 50.36H422.541V46.36H384.781V50.36ZM420.541 48.36V62.52H424.541V48.36H420.541ZM422.541 60.52H402.541V64.52H422.541V60.52ZM446.994 91.56H444.994V93.56H446.994V91.56ZM464.114 91.56H466.114V89.56H464.114V91.56ZM464.114 105V107H466.114V105H464.114ZM429.234 105H427.234V107H429.234V105ZM429.234 48.36V46.36H427.234V48.36H429.234ZM446.994 48.36H448.994V46.36H446.994V48.36ZM446.994 93.56H464.114V89.56H446.994V93.56ZM462.114 91.56V105H466.114V91.56H462.114ZM464.114 103H429.234V107H464.114V103ZM431.234 105V48.36H427.234V105H431.234ZM429.234 50.36H446.994V46.36H429.234V50.36ZM444.994 48.36V91.56H448.994V48.36H444.994ZM487.463 62.52V60.52H485.463V62.52H487.463ZM487.463 69.48H485.463V71.48H487.463V69.48ZM505.063 69.48H507.063V67.48H505.063V69.48ZM505.063 82.84V84.84H507.063V82.84H505.063ZM487.463 82.84V80.84H485.463V82.84H487.463ZM487.463 90.84H485.463V92.84H487.463V90.84ZM507.463 90.84H509.463V88.84H507.463V90.84ZM507.463 105V107H509.463V105H507.463ZM469.703 105H467.703V107H469.703V105ZM469.703 48.36V46.36H467.703V48.36H469.703ZM507.463 48.36H509.463V46.36H507.463V48.36ZM507.463 62.52V64.52H509.463V62.52H507.463ZM485.463 62.52V69.48H489.463V62.52H485.463ZM487.463 71.48H505.063V67.48H487.463V71.48ZM503.063 69.48V82.84H507.063V69.48H503.063ZM505.063 80.84H487.463V84.84H505.063V80.84ZM485.463 82.84V90.84H489.463V82.84H485.463ZM487.463 92.84H507.463V88.84H487.463V92.84ZM505.463 90.84V105H509.463V90.84H505.463ZM507.463 103H469.703V107H507.463V103ZM471.703 105V48.36H467.703V105H471.703ZM469.703 50.36H507.463V46.36H469.703V50.36ZM505.463 48.36V62.52H509.463V48.36H505.463ZM507.463 60.52H487.463V64.52H507.463V60.52ZM542.636 105L540.864 105.928L541.426 107H542.636V105ZM531.996 84.68L533.768 83.7522L533.207 82.68H531.996V84.68ZM531.916 84.68V82.68H529.916V84.68H531.916ZM531.916 105V107H533.916V105H531.916ZM514.156 105H512.156V107H514.156V105ZM514.156 48.36V46.36H512.156V48.36H514.156ZM552.316 50.84L551.41 52.623L551.422 52.6289L551.434 52.6347L552.316 50.84ZM559.596 57.48L557.856 58.4652L557.867 58.4848L557.878 58.5041L559.596 57.48ZM558.876 77L557.259 75.8237L557.252 75.8334L557.245 75.8431L558.876 77ZM549.836 83.32L549.219 81.4176L546.885 82.1746L548.097 84.3081L549.836 83.32ZM562.156 105V107H565.593L563.895 104.012L562.156 105ZM531.916 72.84H529.916V74.84H531.916V72.84ZM542.796 71.72L544.113 73.2252L544.139 73.2025L544.164 73.1791L542.796 71.72ZM542.716 64.52L541.302 65.9342L541.323 65.9556L541.346 65.9764L542.716 64.52ZM531.916 63.24V61.24H529.916V63.24H531.916ZM544.408 104.072L533.768 83.7522L530.224 85.6078L540.864 105.928L544.408 104.072ZM531.996 82.68H531.916V86.68H531.996V82.68ZM529.916 84.68V105H533.916V84.68H529.916ZM531.916 103H514.156V107H531.916V103ZM516.156 105V48.36H512.156V105H516.156ZM514.156 50.36H540.556V46.36H514.156V50.36ZM540.556 50.36C544.907 50.36 548.5 51.1442 551.41 52.623L553.222 49.057C549.625 47.2291 545.379 46.36 540.556 46.36V50.36ZM551.434 52.6347C554.37 54.0787 556.476 56.0285 557.856 58.4652L561.337 56.4948C559.516 53.2782 556.769 50.8013 553.199 49.0453L551.434 52.6347ZM557.878 58.5041C559.331 60.9401 560.076 63.727 560.076 66.92H564.076C564.076 63.073 563.169 59.5665 561.314 56.4559L557.878 58.5041ZM560.076 66.92C560.076 70.3038 559.132 73.2479 557.259 75.8237L560.494 78.1763C562.887 74.8855 564.076 71.1095 564.076 66.92H560.076ZM557.245 75.8431C555.451 78.3729 552.822 80.2491 549.219 81.4176L550.453 85.2224C554.744 83.8309 558.142 81.4938 560.508 78.1569L557.245 75.8431ZM548.097 84.3081L560.417 105.988L563.895 104.012L551.575 82.3319L548.097 84.3081ZM562.156 103H542.636V107H562.156V103ZM531.916 74.84H538.956V70.84H531.916V74.84ZM538.956 74.84C540.91 74.84 542.75 74.4183 544.113 73.2252L541.479 70.2148C541.136 70.515 540.415 70.84 538.956 70.84V74.84ZM544.164 73.1791C545.564 71.8664 546.076 70.0126 546.076 68.04H542.076C542.076 69.374 541.735 69.9736 541.428 70.2609L544.164 73.1791ZM546.076 68.04C546.076 66.1141 545.474 64.3693 544.087 63.0636L541.346 65.9764C541.772 66.3774 542.076 66.9793 542.076 68.04H546.076ZM544.13 63.1058C542.781 61.7559 540.939 61.24 538.956 61.24V65.24C540.28 65.24 540.945 65.5774 541.302 65.9342L544.13 63.1058ZM538.956 61.24H531.916V65.24H538.956V61.24ZM529.916 63.24V72.84H533.916V63.24H529.916Z" fill="white" mask="url(#path-2-inside-1_433_24142)"/>
</g>
<g opacity="0.75">
<mask id="path-4-inside-2_433_24142" fill="white">
<path d="M215.32 40.8C215.32 44.3733 214.493 47.6267 212.84 50.56C211.187 53.44 208.733 55.7333 205.48 57.44C202.28 59.1467 198.387 60 193.8 60H186.76V78H169V21.36H193.8C200.733 21.36 206.04 23.12 209.72 26.64C213.453 30.16 215.32 34.88 215.32 40.8ZM191.8 46C195.48 46 197.32 44.2667 197.32 40.8C197.32 37.3333 195.48 35.6 191.8 35.6H186.76V46H191.8ZM249.433 78L238.793 57.68H238.713V78H220.953V21.36H247.353C251.94 21.36 255.86 22.1867 259.113 23.84C262.366 25.44 264.793 27.6533 266.393 30.48C268.046 33.2533 268.873 36.4 268.873 39.92C268.873 43.7067 267.806 47.0667 265.673 50C263.593 52.9333 260.58 55.04 256.633 56.32L268.953 78H249.433ZM238.713 45.84H245.753C247.46 45.84 248.74 45.4667 249.593 44.72C250.446 43.92 250.873 42.6933 250.873 41.04C250.873 39.5467 250.42 38.3733 249.513 37.52C248.66 36.6667 247.406 36.24 245.753 36.24H238.713V45.84ZM302.147 78.56C296.814 78.56 291.907 77.3067 287.427 74.8C283 72.2933 279.48 68.8267 276.867 64.4C274.254 59.9733 272.947 54.9867 272.947 49.44C272.947 43.8933 274.254 38.9067 276.867 34.48C279.48 30.0533 283 26.6133 287.427 24.16C291.907 21.6533 296.814 20.4 302.147 20.4C307.48 20.4 312.36 21.6533 316.787 24.16C321.214 26.6133 324.707 30.0533 327.267 34.48C329.88 38.9067 331.187 43.8933 331.187 49.44C331.187 54.9867 329.88 59.9733 327.267 64.4C324.707 68.8267 321.187 72.2933 316.707 74.8C312.28 77.3067 307.427 78.56 302.147 78.56ZM302.147 62C305.667 62 308.387 60.88 310.307 58.64C312.227 56.3467 313.187 53.28 313.187 49.44C313.187 45.5467 312.227 42.48 310.307 40.24C308.387 37.9467 305.667 36.8 302.147 36.8C298.574 36.8 295.827 37.9467 293.907 40.24C291.987 42.48 291.027 45.5467 291.027 49.44C291.027 53.28 291.987 56.3467 293.907 58.64C295.827 60.88 298.574 62 302.147 62ZM377.114 21.36V57.92C377.114 64.6933 375.327 69.84 371.754 73.36C368.234 76.8267 363.274 78.56 356.874 78.56C349.994 78.56 344.527 76.6667 340.474 72.88C336.42 69.0933 334.394 63.5733 334.394 56.32H351.914C351.914 58.6133 352.287 60.24 353.034 61.2C353.78 62.1067 354.794 62.56 356.074 62.56C357.14 62.56 357.967 62.2133 358.554 61.52C359.14 60.8267 359.434 59.6267 359.434 57.92V21.36H377.114ZM402.541 35.52V42.48H420.141V55.84H402.541V63.84H422.541V78H384.781V21.36H422.541V35.52H402.541ZM446.994 64.56H464.114V78H429.234V21.36H446.994V64.56ZM487.463 35.52V42.48H505.063V55.84H487.463V63.84H507.463V78H469.703V21.36H507.463V35.52H487.463ZM542.636 78L531.996 57.68H531.916V78H514.156V21.36H540.556C545.143 21.36 549.063 22.1867 552.316 23.84C555.57 25.44 557.996 27.6533 559.596 30.48C561.25 33.2533 562.076 36.4 562.076 39.92C562.076 43.7067 561.01 47.0667 558.876 50C556.796 52.9333 553.783 55.04 549.836 56.32L562.156 78H542.636ZM531.916 45.84H538.956C540.663 45.84 541.943 45.4667 542.796 44.72C543.65 43.92 544.076 42.6933 544.076 41.04C544.076 39.5467 543.623 38.3733 542.716 37.52C541.863 36.6667 540.61 36.24 538.956 36.24H531.916V45.84Z"/>
</mask>
<path d="M212.84 50.56L214.575 51.5557L214.578 51.5489L214.582 51.542L212.84 50.56ZM205.48 57.44L204.551 55.6689L204.539 55.6753L205.48 57.44ZM186.76 60V58H184.76V60H186.76ZM186.76 78V80H188.76V78H186.76ZM169 78H167V80H169V78ZM169 21.36V19.36H167V21.36H169ZM209.72 26.64L208.338 28.0853L208.343 28.0902L208.348 28.0952L209.72 26.64ZM186.76 35.6V33.6H184.76V35.6H186.76ZM186.76 46H184.76V48H186.76V46ZM213.32 40.8C213.32 44.0511 212.572 46.9628 211.098 49.578L214.582 51.542C216.415 48.2905 217.32 44.6956 217.32 40.8H213.32ZM211.105 49.5643C209.661 52.08 207.505 54.1194 204.551 55.6689L206.409 59.2111C209.962 57.3472 212.712 54.8 214.575 51.5557L211.105 49.5643ZM204.539 55.6753C201.695 57.1919 198.143 58 193.8 58V62C198.63 62 202.865 61.1014 206.421 59.2047L204.539 55.6753ZM193.8 58H186.76V62H193.8V58ZM184.76 60V78H188.76V60H184.76ZM186.76 76H169V80H186.76V76ZM171 78V21.36H167V78H171ZM169 23.36H193.8V19.36H169V23.36ZM193.8 23.36C200.408 23.36 205.147 25.0338 208.338 28.0853L211.102 25.1947C206.933 21.2062 201.059 19.36 193.8 19.36V23.36ZM208.348 28.0952C211.618 31.1781 213.32 35.3382 213.32 40.8H217.32C217.32 34.4218 215.289 29.1419 211.092 25.1848L208.348 28.0952ZM191.8 48C193.92 48 195.881 47.5031 197.311 46.1558C198.764 44.7873 199.32 42.8732 199.32 40.8H195.32C195.32 42.1935 194.956 42.8793 194.569 43.2442C194.159 43.6302 193.36 44 191.8 44V48ZM199.32 40.8C199.32 38.7268 198.764 36.8127 197.311 35.4442C195.881 34.0969 193.92 33.6 191.8 33.6V37.6C193.36 37.6 194.159 37.9698 194.569 38.3558C194.956 38.7207 195.32 39.4065 195.32 40.8H199.32ZM191.8 33.6H186.76V37.6H191.8V33.6ZM184.76 35.6V46H188.76V35.6H184.76ZM186.76 48H191.8V44H186.76V48ZM249.433 78L247.661 78.9277L248.223 80H249.433V78ZM238.793 57.68L240.565 56.7522L240.003 55.68H238.793V57.68ZM238.713 57.68V55.68H236.713V57.68H238.713ZM238.713 78V80H240.713V78H238.713ZM220.953 78H218.953V80H220.953V78ZM220.953 21.36V19.36H218.953V21.36H220.953ZM259.113 23.84L258.207 25.623L258.219 25.6289L258.23 25.6347L259.113 23.84ZM266.393 30.48L264.653 31.4652L264.664 31.4848L264.675 31.5041L266.393 30.48ZM265.673 50L264.056 48.8237L264.049 48.8334L264.042 48.8431L265.673 50ZM256.633 56.32L256.016 54.4176L253.682 55.1746L254.894 57.3081L256.633 56.32ZM268.953 78V80H272.39L270.692 77.0119L268.953 78ZM238.713 45.84H236.713V47.84H238.713V45.84ZM249.593 44.72L250.91 46.2252L250.936 46.2025L250.961 46.1791L249.593 44.72ZM249.513 37.52L248.099 38.9342L248.12 38.9556L248.142 38.9764L249.513 37.52ZM238.713 36.24V34.24H236.713V36.24H238.713ZM251.205 77.0723L240.565 56.7522L237.021 58.6078L247.661 78.9277L251.205 77.0723ZM238.793 55.68H238.713V59.68H238.793V55.68ZM236.713 57.68V78H240.713V57.68H236.713ZM238.713 76H220.953V80H238.713V76ZM222.953 78V21.36H218.953V78H222.953ZM220.953 23.36H247.353V19.36H220.953V23.36ZM247.353 23.36C251.704 23.36 255.297 24.1442 258.207 25.623L260.019 22.057C256.422 20.2291 252.176 19.36 247.353 19.36V23.36ZM258.23 25.6347C261.167 27.0787 263.273 29.0285 264.653 31.4652L268.134 29.4948C266.313 26.2782 263.566 23.8013 259.996 22.0453L258.23 25.6347ZM264.675 31.5041C266.127 33.9401 266.873 36.727 266.873 39.92H270.873C270.873 36.073 269.965 32.5665 268.111 29.4559L264.675 31.5041ZM266.873 39.92C266.873 43.3038 265.929 46.2479 264.056 48.8237L267.291 51.1763C269.684 47.8855 270.873 44.1095 270.873 39.92H266.873ZM264.042 48.8431C262.248 51.3729 259.619 53.2491 256.016 54.4176L257.25 58.2224C261.541 56.8309 264.938 54.4938 267.305 51.1569L264.042 48.8431ZM254.894 57.3081L267.214 78.9881L270.692 77.0119L258.372 55.3319L254.894 57.3081ZM268.953 76H249.433V80H268.953V76ZM238.713 47.84H245.753V43.84H238.713V47.84ZM245.753 47.84C247.707 47.84 249.547 47.4183 250.91 46.2252L248.276 43.2148C247.933 43.515 247.212 43.84 245.753 43.84V47.84ZM250.961 46.1791C252.361 44.8664 252.873 43.0126 252.873 41.04H248.873C248.873 42.374 248.532 42.9736 248.225 43.2609L250.961 46.1791ZM252.873 41.04C252.873 39.1141 252.271 37.3693 250.884 36.0636L248.142 38.9764C248.568 39.3774 248.873 39.9793 248.873 41.04H252.873ZM250.927 36.1058C249.577 34.7559 247.736 34.24 245.753 34.24V38.24C247.077 38.24 247.742 38.5774 248.099 38.9342L250.927 36.1058ZM245.753 34.24H238.713V38.24H245.753V34.24ZM236.713 36.24V45.84H240.713V36.24H236.713ZM287.427 74.8L286.441 76.5404L286.45 76.5454L287.427 74.8ZM276.867 64.4L275.145 65.4168L276.867 64.4ZM287.427 24.16L288.396 25.9093L288.403 25.9054L287.427 24.16ZM316.787 24.16L315.801 25.9003L315.809 25.9049L315.817 25.9093L316.787 24.16ZM327.267 34.48L325.536 35.4812L325.54 35.489L325.545 35.4968L327.267 34.48ZM327.267 64.4L325.545 63.3832L325.54 63.391L325.536 63.3988L327.267 64.4ZM316.707 74.8L315.73 73.0546L315.721 73.0597L316.707 74.8ZM310.307 58.64L311.825 59.9416L311.833 59.9328L311.84 59.9239L310.307 58.64ZM310.307 40.24L308.773 41.5239L308.781 41.5328L308.788 41.5416L310.307 40.24ZM293.907 40.24L295.425 41.5416L295.433 41.5328L295.44 41.5239L293.907 40.24ZM293.907 58.64L292.373 59.9239L292.381 59.9328L292.388 59.9416L293.907 58.64ZM302.147 76.56C297.142 76.56 292.573 75.3877 288.403 73.0546L286.45 76.5454C291.241 79.2256 296.485 80.56 302.147 80.56V76.56ZM288.412 73.0597C284.294 70.7274 281.026 67.5117 278.589 63.3832L275.145 65.4168C277.934 70.1416 281.707 73.8592 286.441 76.5403L288.412 73.0597ZM278.589 63.3832C276.172 59.2888 274.947 54.6582 274.947 49.44H270.947C270.947 55.3151 272.335 60.6579 275.145 65.4168L278.589 63.3832ZM274.947 49.44C274.947 44.2217 276.172 39.5912 278.589 35.4968L275.145 33.4632C272.335 38.2221 270.947 43.5649 270.947 49.44H274.947ZM278.589 35.4968C281.024 31.3719 284.287 28.1871 288.396 25.9093L286.457 22.4107C281.714 25.0396 277.936 28.7347 275.145 33.4632L278.589 35.4968ZM288.403 25.9054C292.573 23.5723 297.142 22.4 302.147 22.4V18.4C296.485 18.4 291.241 19.7344 286.45 22.4146L288.403 25.9054ZM302.147 22.4C307.152 22.4 311.69 23.5722 315.801 25.9003L317.772 22.4197C313.03 19.7344 307.808 18.4 302.147 18.4V22.4ZM315.817 25.9093C319.924 28.185 323.155 31.3649 325.536 35.4812L328.998 33.4787C326.259 28.7417 322.504 25.0416 317.756 22.4107L315.817 25.9093ZM325.545 35.4968C327.962 39.5912 329.187 44.2217 329.187 49.44H333.187C333.187 43.5649 331.799 38.2221 328.989 33.4632L325.545 35.4968ZM329.187 49.44C329.187 54.6582 327.962 59.2888 325.545 63.3832L328.989 65.4168C331.799 60.6579 333.187 55.3151 333.187 49.44H329.187ZM325.536 63.3988C323.156 67.5127 319.898 70.7229 315.73 73.0546L317.683 76.5454C322.476 73.8638 326.257 70.1406 328.998 65.4013L325.536 63.3988ZM315.721 73.0597C311.607 75.3895 307.095 76.56 302.147 76.56V80.56C307.759 80.56 312.953 79.2238 317.692 76.5403L315.721 73.0597ZM302.147 64C306.127 64 309.452 62.7111 311.825 59.9416L308.788 57.3384C307.322 59.0489 305.207 60 302.147 60V64ZM311.84 59.9239C314.139 57.1785 315.187 53.6135 315.187 49.44H311.187C311.187 52.9465 310.315 55.5148 308.773 57.3561L311.84 59.9239ZM315.187 49.44C315.187 45.224 314.144 41.6432 311.825 38.9384L308.788 41.5416C310.31 43.3168 311.187 45.8694 311.187 49.44H315.187ZM311.84 38.9561C309.472 36.1268 306.143 34.8 302.147 34.8V38.8C305.191 38.8 307.302 39.7665 308.773 41.5239L311.84 38.9561ZM302.147 34.8C298.109 34.8 294.748 36.1196 292.373 38.9561L295.44 41.5239C296.906 39.7737 299.038 38.8 302.147 38.8V34.8ZM292.388 38.9384C290.07 41.6432 289.027 45.224 289.027 49.44H293.027C293.027 45.8694 293.904 43.3168 295.425 41.5416L292.388 38.9384ZM289.027 49.44C289.027 53.6135 290.075 57.1785 292.373 59.9239L295.44 57.3561C293.899 55.5148 293.027 52.9465 293.027 49.44H289.027ZM292.388 59.9416C294.768 62.718 298.125 64 302.147 64V60C299.022 60 296.886 59.042 295.425 57.3384L292.388 59.9416ZM377.114 21.36H379.114V19.36H377.114V21.36ZM371.754 73.36L373.157 74.785L373.157 74.7848L371.754 73.36ZM340.474 72.88L341.839 71.4185L340.474 72.88ZM334.394 56.32V54.32H332.394V56.32H334.394ZM351.914 56.32H353.914V54.32H351.914V56.32ZM353.034 61.2L351.455 62.4279L351.472 62.4499L351.49 62.4714L353.034 61.2ZM358.554 61.52L357.027 60.2281L358.554 61.52ZM359.434 21.36V19.36H357.434V21.36H359.434ZM375.114 21.36V57.92H379.114V21.36H375.114ZM375.114 57.92C375.114 64.3512 373.423 68.908 370.35 71.9352L373.157 74.7848C377.231 70.772 379.114 65.0355 379.114 57.92H375.114ZM370.35 71.935C367.306 74.9336 362.91 76.56 356.874 76.56V80.56C363.637 80.56 369.162 78.7198 373.157 74.785L370.35 71.935ZM356.874 76.56C350.373 76.56 345.438 74.7809 341.839 71.4185L339.108 74.3415C343.616 78.5525 349.615 80.56 356.874 80.56V76.56ZM341.839 71.4185C338.305 68.1171 336.394 63.1985 336.394 56.32H332.394C332.394 63.9481 334.536 70.0695 339.108 74.3415L341.839 71.4185ZM334.394 58.32H351.914V54.32H334.394V58.32ZM349.914 56.32C349.914 58.7176 350.282 60.9194 351.455 62.4279L354.612 59.9721C354.292 59.5606 353.914 58.509 353.914 56.32H349.914ZM351.49 62.4714C352.654 63.8846 354.257 64.56 356.074 64.56V60.56C355.33 60.56 354.907 60.3288 354.578 59.9286L351.49 62.4714ZM356.074 64.56C357.615 64.56 359.046 64.0344 360.081 62.8119L357.027 60.2281C356.888 60.3923 356.666 60.56 356.074 60.56V64.56ZM360.081 62.8119C361.146 61.5531 361.434 59.736 361.434 57.92H357.434C357.434 59.5173 357.135 60.1002 357.027 60.2281L360.081 62.8119ZM361.434 57.92V21.36H357.434V57.92H361.434ZM359.434 23.36H377.114V19.36H359.434V23.36ZM402.541 35.52V33.52H400.541V35.52H402.541ZM402.541 42.48H400.541V44.48H402.541V42.48ZM420.141 42.48H422.141V40.48H420.141V42.48ZM420.141 55.84V57.84H422.141V55.84H420.141ZM402.541 55.84V53.84H400.541V55.84H402.541ZM402.541 63.84H400.541V65.84H402.541V63.84ZM422.541 63.84H424.541V61.84H422.541V63.84ZM422.541 78V80H424.541V78H422.541ZM384.781 78H382.781V80H384.781V78ZM384.781 21.36V19.36H382.781V21.36H384.781ZM422.541 21.36H424.541V19.36H422.541V21.36ZM422.541 35.52V37.52H424.541V35.52H422.541ZM400.541 35.52V42.48H404.541V35.52H400.541ZM402.541 44.48H420.141V40.48H402.541V44.48ZM418.141 42.48V55.84H422.141V42.48H418.141ZM420.141 53.84H402.541V57.84H420.141V53.84ZM400.541 55.84V63.84H404.541V55.84H400.541ZM402.541 65.84H422.541V61.84H402.541V65.84ZM420.541 63.84V78H424.541V63.84H420.541ZM422.541 76H384.781V80H422.541V76ZM386.781 78V21.36H382.781V78H386.781ZM384.781 23.36H422.541V19.36H384.781V23.36ZM420.541 21.36V35.52H424.541V21.36H420.541ZM422.541 33.52H402.541V37.52H422.541V33.52ZM446.994 64.56H444.994V66.56H446.994V64.56ZM464.114 64.56H466.114V62.56H464.114V64.56ZM464.114 78V80H466.114V78H464.114ZM429.234 78H427.234V80H429.234V78ZM429.234 21.36V19.36H427.234V21.36H429.234ZM446.994 21.36H448.994V19.36H446.994V21.36ZM446.994 66.56H464.114V62.56H446.994V66.56ZM462.114 64.56V78H466.114V64.56H462.114ZM464.114 76H429.234V80H464.114V76ZM431.234 78V21.36H427.234V78H431.234ZM429.234 23.36H446.994V19.36H429.234V23.36ZM444.994 21.36V64.56H448.994V21.36H444.994ZM487.463 35.52V33.52H485.463V35.52H487.463ZM487.463 42.48H485.463V44.48H487.463V42.48ZM505.063 42.48H507.063V40.48H505.063V42.48ZM505.063 55.84V57.84H507.063V55.84H505.063ZM487.463 55.84V53.84H485.463V55.84H487.463ZM487.463 63.84H485.463V65.84H487.463V63.84ZM507.463 63.84H509.463V61.84H507.463V63.84ZM507.463 78V80H509.463V78H507.463ZM469.703 78H467.703V80H469.703V78ZM469.703 21.36V19.36H467.703V21.36H469.703ZM507.463 21.36H509.463V19.36H507.463V21.36ZM507.463 35.52V37.52H509.463V35.52H507.463ZM485.463 35.52V42.48H489.463V35.52H485.463ZM487.463 44.48H505.063V40.48H487.463V44.48ZM503.063 42.48V55.84H507.063V42.48H503.063ZM505.063 53.84H487.463V57.84H505.063V53.84ZM485.463 55.84V63.84H489.463V55.84H485.463ZM487.463 65.84H507.463V61.84H487.463V65.84ZM505.463 63.84V78H509.463V63.84H505.463ZM507.463 76H469.703V80H507.463V76ZM471.703 78V21.36H467.703V78H471.703ZM469.703 23.36H507.463V19.36H469.703V23.36ZM505.463 21.36V35.52H509.463V21.36H505.463ZM507.463 33.52H487.463V37.52H507.463V33.52ZM542.636 78L540.864 78.9277L541.426 80H542.636V78ZM531.996 57.68L533.768 56.7522L533.207 55.68H531.996V57.68ZM531.916 57.68V55.68H529.916V57.68H531.916ZM531.916 78V80H533.916V78H531.916ZM514.156 78H512.156V80H514.156V78ZM514.156 21.36V19.36H512.156V21.36H514.156ZM552.316 23.84L551.41 25.623L551.422 25.6289L551.434 25.6347L552.316 23.84ZM559.596 30.48L557.856 31.4652L557.867 31.4848L557.878 31.5041L559.596 30.48ZM558.876 50L557.259 48.8237L557.252 48.8334L557.245 48.8431L558.876 50ZM549.836 56.32L549.219 54.4176L546.885 55.1746L548.097 57.3081L549.836 56.32ZM562.156 78V80H565.593L563.895 77.0119L562.156 78ZM531.916 45.84H529.916V47.84H531.916V45.84ZM542.796 44.72L544.113 46.2252L544.139 46.2025L544.164 46.1791L542.796 44.72ZM542.716 37.52L541.302 38.9342L541.323 38.9556L541.346 38.9764L542.716 37.52ZM531.916 36.24V34.24H529.916V36.24H531.916ZM544.408 77.0723L533.768 56.7522L530.224 58.6078L540.864 78.9277L544.408 77.0723ZM531.996 55.68H531.916V59.68H531.996V55.68ZM529.916 57.68V78H533.916V57.68H529.916ZM531.916 76H514.156V80H531.916V76ZM516.156 78V21.36H512.156V78H516.156ZM514.156 23.36H540.556V19.36H514.156V23.36ZM540.556 23.36C544.907 23.36 548.5 24.1442 551.41 25.623L553.222 22.057C549.625 20.2291 545.379 19.36 540.556 19.36V23.36ZM551.434 25.6347C554.37 27.0787 556.476 29.0285 557.856 31.4652L561.337 29.4948C559.516 26.2782 556.769 23.8013 553.199 22.0453L551.434 25.6347ZM557.878 31.5041C559.331 33.9401 560.076 36.727 560.076 39.92H564.076C564.076 36.073 563.169 32.5665 561.314 29.4559L557.878 31.5041ZM560.076 39.92C560.076 43.3038 559.132 46.2479 557.259 48.8237L560.494 51.1763C562.887 47.8855 564.076 44.1095 564.076 39.92H560.076ZM557.245 48.8431C555.451 51.3729 552.822 53.2491 549.219 54.4176L550.453 58.2224C554.744 56.8309 558.142 54.4938 560.508 51.1569L557.245 48.8431ZM548.097 57.3081L560.417 78.9881L563.895 77.0119L551.575 55.3319L548.097 57.3081ZM562.156 76H542.636V80H562.156V76ZM531.916 47.84H538.956V43.84H531.916V47.84ZM538.956 47.84C540.91 47.84 542.75 47.4183 544.113 46.2252L541.479 43.2148C541.136 43.515 540.415 43.84 538.956 43.84V47.84ZM544.164 46.1791C545.564 44.8664 546.076 43.0126 546.076 41.04H542.076C542.076 42.374 541.735 42.9736 541.428 43.2609L544.164 46.1791ZM546.076 41.04C546.076 39.1141 545.474 37.3693 544.087 36.0636L541.346 38.9764C541.772 39.3774 542.076 39.9793 542.076 41.04H546.076ZM544.13 36.1058C542.781 34.7559 540.939 34.24 538.956 34.24V38.24C540.28 38.24 540.945 38.5774 541.302 38.9342L544.13 36.1058ZM538.956 34.24H531.916V38.24H538.956V34.24ZM529.916 36.24V45.84H533.916V36.24H529.916Z" fill="white" mask="url(#path-4-inside-2_433_24142)"/>
</g>
<path d="M215.32 53.8C215.32 57.3733 214.493 60.6267 212.84 63.56C211.187 66.44 208.733 68.7333 205.48 70.44C202.28 72.1467 198.387 73 193.8 73H186.76V91H169V34.36H193.8C200.733 34.36 206.04 36.12 209.72 39.64C213.453 43.16 215.32 47.88 215.32 53.8ZM191.8 59C195.48 59 197.32 57.2667 197.32 53.8C197.32 50.3333 195.48 48.6 191.8 48.6H186.76V59H191.8ZM249.433 91L238.793 70.68H238.713V91H220.953V34.36H247.353C251.94 34.36 255.86 35.1867 259.113 36.84C262.366 38.44 264.793 40.6533 266.393 43.48C268.046 46.2533 268.873 49.4 268.873 52.92C268.873 56.7067 267.806 60.0667 265.673 63C263.593 65.9333 260.58 68.04 256.633 69.32L268.953 91H249.433ZM238.713 58.84H245.753C247.46 58.84 248.74 58.4667 249.593 57.72C250.446 56.92 250.873 55.6933 250.873 54.04C250.873 52.5467 250.42 51.3733 249.513 50.52C248.66 49.6667 247.406 49.24 245.753 49.24H238.713V58.84ZM302.147 91.56C296.814 91.56 291.907 90.3067 287.427 87.8C283 85.2933 279.48 81.8267 276.867 77.4C274.254 72.9733 272.947 67.9867 272.947 62.44C272.947 56.8933 274.254 51.9067 276.867 47.48C279.48 43.0533 283 39.6133 287.427 37.16C291.907 34.6533 296.814 33.4 302.147 33.4C307.48 33.4 312.36 34.6533 316.787 37.16C321.214 39.6133 324.707 43.0533 327.267 47.48C329.88 51.9067 331.187 56.8933 331.187 62.44C331.187 67.9867 329.88 72.9733 327.267 77.4C324.707 81.8267 321.187 85.2933 316.707 87.8C312.28 90.3067 307.427 91.56 302.147 91.56ZM302.147 75C305.667 75 308.387 73.88 310.307 71.64C312.227 69.3467 313.187 66.28 313.187 62.44C313.187 58.5467 312.227 55.48 310.307 53.24C308.387 50.9467 305.667 49.8 302.147 49.8C298.574 49.8 295.827 50.9467 293.907 53.24C291.987 55.48 291.027 58.5467 291.027 62.44C291.027 66.28 291.987 69.3467 293.907 71.64C295.827 73.88 298.574 75 302.147 75ZM377.114 34.36V70.92C377.114 77.6933 375.327 82.84 371.754 86.36C368.234 89.8267 363.274 91.56 356.874 91.56C349.994 91.56 344.527 89.6667 340.474 85.88C336.42 82.0933 334.394 76.5733 334.394 69.32H351.914C351.914 71.6133 352.287 73.24 353.034 74.2C353.78 75.1067 354.794 75.56 356.074 75.56C357.14 75.56 357.967 75.2133 358.554 74.52C359.14 73.8267 359.434 72.6267 359.434 70.92V34.36H377.114ZM402.541 48.52V55.48H420.141V68.84H402.541V76.84H422.541V91H384.781V34.36H422.541V48.52H402.541ZM446.994 77.56H464.114V91H429.234V34.36H446.994V77.56ZM487.463 48.52V55.48H505.063V68.84H487.463V76.84H507.463V91H469.703V34.36H507.463V48.52H487.463ZM542.636 91L531.996 70.68H531.916V91H514.156V34.36H540.556C545.143 34.36 549.063 35.1867 552.316 36.84C555.57 38.44 557.996 40.6533 559.596 43.48C561.25 46.2533 562.076 49.4 562.076 52.92C562.076 56.7067 561.01 60.0667 558.876 63C556.796 65.9333 553.783 68.04 549.836 69.32L562.156 91H542.636ZM531.916 58.84H538.956C540.663 58.84 541.943 58.4667 542.796 57.72C543.65 56.92 544.076 55.6933 544.076 54.04C544.076 52.5467 543.623 51.3733 542.716 50.52C541.863 49.6667 540.61 49.24 538.956 49.24H531.916V58.84Z" fill="white"/>
</svg>
