<svg width="300" height="80" viewBox="0 0 300 80" fill="none" xmlns="http://www.w3.org/2000/svg">
<path d="M1.5 1.5H260C281.263 1.5 298.5 18.737 298.5 40C298.5 61.263 281.263 78.5 260 78.5H1.5V1.5Z" stroke="#61AEC9" stroke-width="3"/>
<path d="M80.6555 54V20.25H100.095C108.015 20.25 114 24.615 114 33.615C114 42.615 108.015 46.935 100.095 46.935H91.0955V54H80.6555ZM99.0155 29.25H91.0955V37.935H99.0155C101.4 37.935 103.515 36.945 103.515 33.66C103.515 30.42 101.4 29.25 99.0155 29.25ZM118.14 54V20.25H138.255C145.95 20.25 151.8 23.715 151.8 32.445C151.8 38.205 148.74 41.76 144.51 43.515L152.475 54H140.145L134.43 45.72H128.58V54H118.14ZM137.31 29.25H128.58V36.99H137.31C139.83 36.99 141.36 35.82 141.36 33.21C141.36 30.285 139.425 29.25 137.31 29.25ZM155.522 37.125C155.522 25.335 162.902 19.215 174.332 19.215C185.762 19.215 193.142 25.335 193.142 37.125C193.142 48.915 185.762 55.035 174.332 55.035C162.947 55.035 155.522 48.915 155.522 37.125ZM174.332 46.035C179.732 46.035 182.567 42.66 182.567 37.125C182.567 31.455 179.777 28.215 174.332 28.215C168.932 28.215 166.097 31.545 166.097 37.125C166.097 42.66 168.932 46.035 174.332 46.035ZM196.289 40.185H206.729C206.729 43.785 208.394 45.9 212.219 45.9C215.999 45.9 217.439 44.01 217.439 40.41V20.25H227.924V39.825C227.924 49.5 222.524 54.9 211.994 54.9C202.364 54.9 196.514 49.725 196.289 40.185ZM232.969 54V20.25H261.724V29.25H243.409V33.435H260.194V40.815H243.409V45H261.724V54H232.969Z" fill="#4E4F4E"/>
</svg>
