<svg width="900" height="222" viewBox="0 0 900 222" fill="none" xmlns="http://www.w3.org/2000/svg">
<rect x="1.5" y="143.5" width="897" height="77" rx="38.5" stroke="#D65F32" stroke-width="3"/>
<rect x="496" y="142" width="104" height="80" fill="#EFEFEF"/>
<path d="M56.7221 196V162.25H73.5971C83.5872 162.25 90.2922 168.01 90.2922 179.305C90.2922 190.555 83.5872 196 73.5971 196H56.7221ZM72.7871 170.71H67.1621V187.54H72.7871C77.1071 187.54 79.8071 184.75 79.8071 179.035C79.8071 173.32 77.1071 170.71 72.7871 170.71ZM94.6909 196V162.25H123.446V171.25H105.131V175.435H121.916V182.815H105.131V187H123.446V196H94.6909ZM126.82 162.25H137.935L145.63 185.965H146.935L154.63 162.25H165.79L153.55 196H139.06L126.82 162.25ZM158.9 196L171.14 162.25H186.08L198.32 196H187.16L185.405 190.69H171.77L170.015 196H158.9ZM174.47 182.41H182.705L179.33 172.33H177.845L174.47 182.41ZM201.654 196V162.25H216.909L222.894 181.915L228.924 162.25H244.179V196H233.739V176.02L227.844 196H217.944L212.094 176.02V196H201.654ZM262.518 196V162.25H291.273V171.25H272.958V175.435H289.743V182.815H272.958V187H291.273V196H262.518ZM296.312 196V162.25H313.187C323.177 162.25 329.882 168.01 329.882 179.305C329.882 190.555 323.177 196 313.187 196H296.312ZM312.377 170.71H306.752V187.54H312.377C316.697 187.54 319.397 184.75 319.397 179.035C319.397 173.32 316.697 170.71 312.377 170.71ZM334.281 196V162.25H363.036V171.25H344.721V175.435H361.506V182.815H344.721V187H363.036V196H334.281ZM368.075 196V162.25H378.515L391.835 180.205V162.25H402.275V196H391.835L378.515 178.315V196H368.075Z" fill="#4E4F4E"/>
<path d="M680.989 196V162.25H700.429C708.349 162.25 714.334 166.615 714.334 175.615C714.334 184.615 708.349 188.935 700.429 188.935H691.429V196H680.989ZM699.349 171.25H691.429V179.935H699.349C701.734 179.935 703.849 178.945 703.849 175.66C703.849 172.42 701.734 171.25 699.349 171.25ZM718.473 196V162.25H738.588C746.283 162.25 752.133 165.715 752.133 174.445C752.133 180.205 749.073 183.76 744.843 185.515L752.808 196H740.478L734.763 187.72H728.913V196H718.473ZM737.643 171.25H728.913V178.99H737.643C740.163 178.99 741.693 177.82 741.693 175.21C741.693 172.285 739.758 171.25 737.643 171.25ZM755.856 179.125C755.856 167.335 763.236 161.215 774.666 161.215C786.096 161.215 793.476 167.335 793.476 179.125C793.476 190.915 786.096 197.035 774.666 197.035C763.281 197.035 755.856 190.915 755.856 179.125ZM774.666 188.035C780.066 188.035 782.901 184.66 782.901 179.125C782.901 173.455 780.111 170.215 774.666 170.215C769.266 170.215 766.431 173.545 766.431 179.125C766.431 184.66 769.266 188.035 774.666 188.035ZM796.622 182.185H807.062C807.062 185.785 808.727 187.9 812.552 187.9C816.332 187.9 817.772 186.01 817.772 182.41V162.25H828.257V181.825C828.257 191.5 822.857 196.9 812.327 196.9C802.697 196.9 796.847 191.725 796.622 182.185ZM833.302 196V162.25H862.057V171.25H843.742V175.435H860.527V182.815H843.742V187H862.057V196H833.302Z" fill="#4E4F4E"/>
<rect x="1.5" y="1.5" width="897" height="77" rx="38.5" stroke="#61AEC9" stroke-width="3"/>
<rect x="496" width="116" height="80" fill="#EFEFEF"/>
<path d="M41.5033 54V29.25H30.7483V20.25H62.6983V29.25H51.9433V54H41.5033ZM58.8198 54L71.0598 20.25H85.9998L98.2398 54H87.0798L85.3248 48.69H71.6898L69.9348 54H58.8198ZM74.3898 40.41H82.6248L79.2498 30.33H77.7648L74.3898 40.41ZM101.574 54V20.25H116.829L122.814 39.915L128.844 20.25H144.099V54H133.659V34.02L127.764 54H117.864L112.014 34.02V54H101.574ZM147.458 54L159.698 20.25H174.638L186.878 54H175.718L173.963 48.69H160.328L158.573 54H147.458ZM163.028 40.41H171.263L167.888 30.33H166.403L163.028 40.41ZM190.211 54V20.25H205.466L211.451 39.915L217.481 20.25H232.736V54H222.296V34.02L216.401 54H206.501L200.651 34.02V54H190.211ZM237.76 54V20.25H248.2V45H266.245V54H237.76ZM268.703 54L280.943 20.25H295.883L308.123 54H296.963L295.208 48.69H281.573L279.818 54H268.703ZM284.273 40.41H292.508L289.133 30.33H287.648L284.273 40.41ZM311.457 54V20.25H321.897L335.217 38.205V20.25H345.657V54H335.217L321.897 36.315V54H311.457ZM349.035 54L361.275 20.25H376.215L388.455 54H377.295L375.54 48.69H361.905L360.15 54H349.035ZM364.605 40.41H372.84L369.465 30.33H367.98L364.605 40.41ZM391.789 54V20.25H402.229L415.549 38.205V20.25H425.989V54H415.549L402.229 36.315V54H391.789Z" fill="#4E4F4E"/>
<path d="M680.989 54V20.25H700.429C708.349 20.25 714.334 24.615 714.334 33.615C714.334 42.615 708.349 46.935 700.429 46.935H691.429V54H680.989ZM699.349 29.25H691.429V37.935H699.349C701.734 37.935 703.849 36.945 703.849 33.66C703.849 30.42 701.734 29.25 699.349 29.25ZM718.473 54V20.25H738.588C746.283 20.25 752.133 23.715 752.133 32.445C752.133 38.205 749.073 41.76 744.843 43.515L752.808 54H740.478L734.763 45.72H728.913V54H718.473ZM737.643 29.25H728.913V36.99H737.643C740.163 36.99 741.693 35.82 741.693 33.21C741.693 30.285 739.758 29.25 737.643 29.25ZM755.856 37.125C755.856 25.335 763.236 19.215 774.666 19.215C786.096 19.215 793.476 25.335 793.476 37.125C793.476 48.915 786.096 55.035 774.666 55.035C763.281 55.035 755.856 48.915 755.856 37.125ZM774.666 46.035C780.066 46.035 782.901 42.66 782.901 37.125C782.901 31.455 780.111 28.215 774.666 28.215C769.266 28.215 766.431 31.545 766.431 37.125C766.431 42.66 769.266 46.035 774.666 46.035ZM796.622 40.185H807.062C807.062 43.785 808.727 45.9 812.552 45.9C816.332 45.9 817.772 44.01 817.772 40.41V20.25H828.257V39.825C828.257 49.5 822.857 54.9 812.327 54.9C802.697 54.9 796.847 49.725 796.622 40.185ZM833.302 54V20.25H862.057V29.25H843.742V33.435H860.527V40.815H843.742V45H862.057V54H833.302Z" fill="#4E4F4E"/>
</svg>
