<svg width="500" height="80" viewBox="0 0 500 80" fill="none" xmlns="http://www.w3.org/2000/svg">
<path d="M40 1.5H498.5V78.5H40C18.737 78.5 1.5 61.263 1.5 40C1.5 18.737 18.737 1.5 40 1.5Z" stroke="#61AEC9" stroke-width="3"/>
<path d="M45.6144 54V29.25H34.8594V20.25H66.8094V29.25H56.0544V54H45.6144ZM62.931 54L75.171 20.25H90.111L102.351 54H91.191L89.436 48.69H75.801L74.046 54H62.931ZM78.501 40.41H86.736L83.361 30.33H81.876L78.501 40.41ZM105.685 54V20.25H120.94L126.925 39.915L132.955 20.25H148.21V54H137.77V34.02L131.875 54H121.975L116.125 34.02V54H105.685ZM151.569 54L163.809 20.25H178.749L190.989 54H179.829L178.074 48.69H164.439L162.684 54H151.569ZM167.139 40.41H175.374L171.999 30.33H170.514L167.139 40.41ZM194.323 54V20.25H209.578L215.563 39.915L221.593 20.25H236.848V54H226.408V34.02L220.513 54H210.613L204.763 34.02V54H194.323ZM241.871 54V20.25H252.311V45H270.356V54H241.871ZM272.814 54L285.054 20.25H299.994L312.234 54H301.074L299.319 48.69H285.684L283.929 54H272.814ZM288.384 40.41H296.619L293.244 30.33H291.759L288.384 40.41ZM315.568 54V20.25H326.008L339.328 38.205V20.25H349.768V54H339.328L326.008 36.315V54H315.568ZM353.146 54L365.386 20.25H380.326L392.566 54H381.406L379.651 48.69H366.016L364.261 54H353.146ZM368.716 40.41H376.951L373.576 30.33H372.091L368.716 40.41ZM395.899 54V20.25H406.339L419.659 38.205V20.25H430.099V54H419.659L406.339 36.315V54H395.899Z" fill="#4E4F4E"/>
</svg>
