<svg width="818" height="629" viewBox="0 0 818 629" fill="none" xmlns="http://www.w3.org/2000/svg">
<path fill-rule="evenodd" clip-rule="evenodd" d="M251.327 0L717.999 6.25496e-08C773.227 6.25496e-08 817.999 44.7715 817.999 100V529C817.999 584.228 773.227 629 717.999 629H143.976C121.507 612.851 101.686 595.017 84.5102 575.5C56.6435 543.833 35.7435 508.683 21.8102 470.05C7.87682 430.783 0.910156 388.667 0.910156 343.7C0.910156 293.033 10.4102 244.583 29.4102 198.35C49.0435 152.117 79.4435 110.95 120.61 74.85C155.702 44.5437 199.274 19.5937 251.327 0ZM577.56 413.05C562.36 417.483 543.677 419.7 521.51 419.7C499.344 419.7 480.66 417.483 465.46 413.05C450.26 408.617 438.227 402.917 429.36 395.95C420.493 388.35 414.16 380.117 410.36 371.25C406.56 362.383 404.66 353.2 404.66 343.7C404.66 334.2 406.877 324.7 411.31 315.2C415.744 305.7 422.71 297.467 432.21 290.5C442.344 282.9 455.01 276.883 470.21 272.45C486.044 268.017 505.044 265.8 527.21 265.8C544.31 265.8 559.193 267.383 571.86 270.55C585.16 273.083 596.244 277.2 605.11 282.9C613.977 287.967 620.944 293.983 626.01 300.95C631.71 307.283 635.827 314.25 638.36 321.85C640.894 329.45 642.16 337.05 642.16 344.65C642.16 352.883 639.944 361.433 635.51 370.3C631.077 379.167 624.11 387.4 614.61 395C605.11 402.6 592.76 408.617 577.56 413.05Z" fill="#61AEC9"/>
</svg>
