<svg width="882" height="629" viewBox="0 0 882 629" fill="none" xmlns="http://www.w3.org/2000/svg">
<path fill-rule="evenodd" clip-rule="evenodd" d="M745.868 344.65C722.435 334.517 694.885 325.967 663.218 319V318.05C691.085 311.083 715.785 303.167 737.318 294.3C759.485 285.433 778.485 275.617 794.318 264.85C810.151 254.083 823.135 242.683 833.268 230.65C843.401 217.983 851.001 204.683 856.068 190.75C861.135 176.817 863.668 162.567 863.668 148C863.668 121.4 854.802 96.7 837.068 73.8999C819.968 50.4666 792.735 30.1999 755.368 13.0999C745.571 8.45028 734.968 4.08363 723.559 1.02087e-07L100 0C44.7715 0 7.55608e-08 44.7715 7.55608e-08 100L7.99628e-09 279.013C10.4971 284.739 21.9364 290.152 34.3181 295.25C55.8514 304.117 80.5514 312.033 108.418 319V319.95C77.3848 326.917 49.8347 335.467 25.7681 345.6C16.6515 349.296 8.06214 353.184 0 357.263L7.55608e-08 529C7.55608e-08 584.228 44.7715 629 100 629H821.97C825.974 625.5 829.74 621.916 833.268 618.25C865.568 584.683 881.718 547.317 881.718 506.15C881.718 489.683 879.185 473.85 874.118 458.65C869.051 442.817 860.818 428.25 849.418 414.95C838.651 401.017 824.718 388.35 807.618 376.95C790.518 364.917 769.935 354.15 745.868 344.65ZM299.368 278.15C291.135 269.917 287.018 259.783 287.018 247.75C287.018 229.383 296.201 215.767 314.568 206.9C332.935 197.4 357.635 192.65 388.668 192.65C403.868 192.65 417.485 193.917 429.518 196.45C441.551 198.35 451.685 201.833 459.918 206.9C468.785 211.333 475.435 217.033 479.868 224C484.301 230.333 486.518 238.25 486.518 247.75C486.518 259.783 482.718 269.917 475.118 278.15C467.518 286.383 456.751 292.717 442.818 297.15C429.518 300.95 413.368 302.85 394.368 302.85H392.468H391.518H390.568H389.618H388.668C368.401 302.85 350.351 300.95 334.518 297.15C319.318 292.717 307.601 286.383 299.368 278.15ZM280.368 413.05C275.301 404.817 272.768 395.633 272.768 385.5C272.768 363.967 283.218 348.133 304.118 338C325.651 327.233 353.835 321.85 388.668 321.85H389.618H390.568H392.468H393.418H394.368C427.301 321.85 453.268 327.55 472.268 338.95C491.268 349.717 500.768 365.233 500.768 385.5C500.768 395.633 497.918 404.817 492.218 413.05C487.151 420.65 479.868 427.3 470.368 433C460.868 438.067 449.151 441.867 435.218 444.4C421.285 446.933 405.768 448.2 388.668 448.2C370.935 448.2 354.785 446.933 340.218 444.4C326.285 441.233 314.251 437.117 304.118 432.05C293.985 426.983 286.068 420.65 280.368 413.05Z" fill="#61AEC9"/>
</svg>
