<svg width="67" height="108" viewBox="0 0 67 108" fill="none" xmlns="http://www.w3.org/2000/svg">
<g clip-path="url(#clip0_520_87739)">
<path d="M41.6562 44.8486L20.5971 68.9832L7.77365 80.435L6.96484 83.3912L22.5268 87.8004L46.1735 60.9686L58.8023 52.2141L41.6562 44.8486Z" fill="#62AEC9"/>
<path d="M0 2.86883L13.6155 0L21.086 73.8027L20.596 82.2747L22.5257 87.8004L6.96379 83.3913L7.77259 80.435L0 2.86883Z" fill="#62AEC9"/>
<path d="M53.7251 108L67.0016 103.513L58.8028 52.2141L41.6602 44.8486L44.7611 52.1536L53.7251 108Z" fill="#62AEC9"/>
<path style="mix-blend-mode:multiply" d="M21.0869 73.8027L7.77344 80.435L20.5969 82.2747L21.0869 73.8027Z" fill="url(#paint0_linear_520_87739)"/>
<path style="mix-blend-mode:multiply" d="M20.5971 82.2744L6.96484 83.391L22.5268 87.8002L20.5971 82.2744Z" fill="url(#paint1_linear_520_87739)"/>
<path style="mix-blend-mode:multiply" d="M41.6602 44.8486L58.8028 52.2141L44.7611 52.1536L41.6602 44.8486Z" fill="url(#paint2_linear_520_87739)"/>
<path style="mix-blend-mode:multiply" d="M22.5274 87.8004L46.174 60.9686L41.6602 44.8486L20.5977 68.9832L21.0876 73.8027L20.5977 82.2746L22.5274 87.8004Z" fill="url(#paint3_linear_520_87739)"/>
<path style="mix-blend-mode:darken" d="M22.5274 87.8004L46.174 60.9686L41.6602 44.8486L20.5977 68.9832L21.0876 73.8027L20.5977 82.2746L22.5274 87.8004Z" fill="url(#paint4_linear_520_87739)"/>
<path style="mix-blend-mode:multiply" d="M20.5977 68.9832L41.6602 44.8486L44.7612 52.1536L46.174 60.9686L22.5274 87.8004L20.5977 82.2746L21.0709 74.0583L20.5977 68.9832Z" fill="url(#paint5_linear_520_87739)"/>
</g>
<defs>
<linearGradient id="paint0_linear_520_87739" x1="20.4089" y1="73.5303" x2="13.6927" y2="81.9412" gradientUnits="userSpaceOnUse">
<stop stop-color="white" stop-opacity="0"/>
<stop offset="1" stop-color="#231F20" stop-opacity="0.1"/>
</linearGradient>
<linearGradient id="paint1_linear_520_87739" x1="20.2715" y1="84.8607" x2="8.90715" y2="86.3678" gradientUnits="userSpaceOnUse">
<stop stop-color="white" stop-opacity="0"/>
<stop offset="1" stop-color="#231F20" stop-opacity="0.1"/>
</linearGradient>
<linearGradient id="paint2_linear_520_87739" x1="46.3922" y1="52.8027" x2="53.433" y2="45.0015" gradientUnits="userSpaceOnUse">
<stop stop-color="white" stop-opacity="0"/>
<stop offset="0.17" stop-color="#C5C4C5" stop-opacity="0.05"/>
<stop offset="1" stop-color="#231F20" stop-opacity="0.2"/>
</linearGradient>
<linearGradient id="paint3_linear_520_87739" x1="55.4501" y1="59.9865" x2="14.612" y2="71.0209" gradientUnits="userSpaceOnUse">
<stop stop-color="white" stop-opacity="0"/>
<stop offset="0.72" stop-color="#AAA8A9" stop-opacity="0.08"/>
<stop offset="1" stop-color="#231F20" stop-opacity="0.2"/>
</linearGradient>
<linearGradient id="paint4_linear_520_87739" x1="57.0443" y1="68.5897" x2="21.5193" y2="65.3746" gradientUnits="userSpaceOnUse">
<stop offset="0.68" stop-color="white" stop-opacity="0"/>
<stop offset="0.92" stop-color="#7F7D7D" stop-opacity="0.12"/>
<stop offset="1" stop-color="#231F20" stop-opacity="0.2"/>
</linearGradient>
<linearGradient id="paint5_linear_520_87739" x1="13.7849" y1="79.1838" x2="47.1876" y2="55.8228" gradientUnits="userSpaceOnUse">
<stop stop-color="white" stop-opacity="0"/>
<stop offset="0.73" stop-color="#B4B3B3" stop-opacity="0.07"/>
<stop offset="1" stop-color="#231F20" stop-opacity="0.2"/>
</linearGradient>
<clipPath id="clip0_520_87739">
<rect width="67" height="108" fill="white"/>
</clipPath>
</defs>
</svg>
