<svg width="685" height="55" viewBox="0 0 685 55" fill="none" xmlns="http://www.w3.org/2000/svg">
<path d="M57.9993 39.0117V29.5717H46.2233V39.0117H40.3353V15.0117H46.2233V24.4517H57.9993V15.0117H63.8873V39.0117H57.9993ZM73.7715 11.1077C73.7715 9.79572 74.6995 8.93172 76.1075 8.93172C77.5155 8.93172 78.4435 9.79572 78.4435 11.1077C78.4435 12.3877 77.5155 13.2517 76.1075 13.2517C74.6995 13.2517 73.7715 12.3877 73.7715 11.1077ZM80.4595 11.1077C80.4595 9.79572 81.3875 8.93172 82.7955 8.93172C84.2035 8.93172 85.1315 9.79572 85.1315 11.1077C85.1315 12.3877 84.2035 13.2517 82.7955 13.2517C81.3875 13.2517 80.4595 12.3877 80.4595 11.1077ZM68.4915 29.0917V15.0117H74.3795V29.7317C74.3795 33.1557 76.8115 34.5317 79.4675 34.5317C82.0915 34.5317 84.4915 33.1557 84.4915 29.7317V15.0117H90.4115V29.0917C90.4115 35.9717 86.2835 39.6517 79.3075 39.6517C72.3635 39.6517 68.4915 35.9717 68.4915 29.0917ZM95.0228 39.0117V15.0117H100.911V24.4837H105.199L111.695 15.0117H118.543L110.159 26.4677L119.215 39.0117H112.015L105.327 29.4757H100.911V39.0117H95.0228ZM127.678 11.1077C127.678 9.79572 128.606 8.93172 130.014 8.93172C131.422 8.93172 132.35 9.79572 132.35 11.1077C132.35 12.3877 131.422 13.2517 130.014 13.2517C128.606 13.2517 127.678 12.3877 127.678 11.1077ZM134.366 11.1077C134.366 9.79572 135.294 8.93172 136.702 8.93172C138.11 8.93172 139.038 9.79572 139.038 11.1077C139.038 12.3877 138.11 13.2517 136.702 13.2517C135.294 13.2517 134.366 12.3877 134.366 11.1077ZM122.398 29.0917V15.0117H128.286V29.7317C128.286 33.1557 130.718 34.5317 133.374 34.5317C135.998 34.5317 138.398 33.1557 138.398 29.7317V15.0117H144.318V29.0917C144.318 35.9717 140.19 39.6517 133.214 39.6517C126.27 39.6517 122.398 35.9717 122.398 29.0917ZM148.961 39.0117V15.0117H157.729L163.297 31.0117L168.865 15.0117H177.633V39.0117H171.745V22.6277L166.177 39.0117H160.417L154.849 22.6277V39.0117H148.961ZM182.305 39.0117V15.0117H202.209V20.1317H188.193V24.6437H200.865V29.3797H188.193V33.8917H202.209V39.0117H182.305ZM213.428 39.0117V20.1317H205.652V15.0117H227.092V20.1317H219.316V39.0117H213.428ZM241.179 39.0117V15.0117H247.067V24.4837H251.355L257.851 15.0117H264.699L256.315 26.4677L265.371 39.0117H258.171L251.483 29.4757H247.067V39.0117H241.179ZM267.009 27.0117C267.009 18.6597 272.097 14.3397 280.161 14.3397C288.257 14.3397 293.345 18.6917 293.345 27.0117C293.345 35.3317 288.257 39.6837 280.161 39.6837C272.097 39.6837 267.009 35.3317 267.009 27.0117ZM280.161 34.5637C284.801 34.5637 287.425 31.7797 287.425 27.0117C287.425 22.1477 284.801 19.4277 280.161 19.4277C275.553 19.4277 272.929 22.2437 272.929 27.0117C272.929 31.7797 275.553 34.5637 280.161 34.5637ZM297.367 39.0117V15.0117H303.255L314.551 29.9877V15.0117H320.439V39.0117H314.551L303.255 24.1317V39.0117H297.367ZM323.614 39.0117L332.318 15.0117H341.342L350.046 39.0117H343.774L342.302 34.6277H331.326L329.886 39.0117H323.614ZM332.894 29.9237H340.734L337.534 20.3877H336.094L332.894 29.9237ZM358.792 8.61172H363.272C363.272 8.61172 363.336 10.6597 365.288 10.6597C367.24 10.6597 367.24 8.61172 367.24 8.61172H371.72C371.72 11.9397 370.056 13.6997 365.288 13.6997C360.488 13.6997 358.792 11.9077 358.792 8.61172ZM363.016 30.1797V26.2117H377.832V39.0117H373.48V36.5477C371.688 38.3717 369.128 39.6517 365.096 39.6517C357.128 39.6517 352.072 35.3317 352.072 27.0117C352.072 18.6917 357.128 14.3717 365.192 14.3717C371.112 14.3717 375.4 16.7077 377.288 21.2197L371.688 23.2037C370.632 20.7717 368.488 19.4917 365.192 19.4917C360.52 19.4917 358.024 22.2437 358.024 27.0117C358.024 31.7797 360.52 34.5317 365.192 34.5317C368.68 34.5317 370.984 32.9637 371.88 30.1797H363.016ZM382.749 39.0117V15.0117H388.637V39.0117H382.749ZM405.138 11.1077C405.138 9.79572 406.098 8.93172 407.506 8.93172C408.882 8.93172 409.842 9.79572 409.842 11.1077C409.842 12.3877 408.882 13.2517 407.506 13.2517C406.098 13.2517 405.138 12.3877 405.138 11.1077ZM404.53 39.0117V15.0117H410.418V39.0117H404.53ZM415.367 39.0117V15.0117H421.255L432.551 29.9877V15.0117H438.439V39.0117H432.551L421.255 24.1317V39.0117H415.367ZM442.51 36.8357L444.494 31.6837C447.47 33.4437 451.534 34.6277 455.278 34.6277C458.19 34.6277 459.854 33.8597 459.854 32.8037C459.854 29.6997 443.278 30.0837 443.278 21.4757C443.278 17.2837 447.342 14.3077 454.446 14.3077C461.262 14.3077 464.974 17.3797 464.974 17.3797L462.382 21.8597C460.366 20.4837 456.782 19.4277 454.094 19.4277C451.214 19.4277 449.23 20.2917 449.23 21.6677C449.23 25.0277 465.87 24.3237 465.87 32.8677C465.87 36.1637 462.606 39.8437 455.054 39.8437C454.766 39.8437 454.478 39.8117 454.19 39.8117L453.998 40.3237C453.998 40.3237 458.094 40.4837 458.094 43.4917C458.094 45.3477 456.654 46.6277 453.23 46.6277C452.366 46.6277 451.406 46.5317 450.286 46.3717V43.5877C450.958 43.6517 451.566 43.6837 452.078 43.6837C453.614 43.6837 454.382 43.3637 454.382 42.8197C454.382 42.0197 453.006 41.9237 450.19 42.0197V40.8997L451.534 39.6197C446.094 38.9157 442.51 36.8357 442.51 36.8357ZM468.52 39.0117L477.224 15.0117H486.248L494.952 39.0117H488.68L487.208 34.6277H476.232L474.792 39.0117H468.52ZM477.8 29.9237H485.64L482.44 20.3877H481L477.8 29.9237ZM496.645 39.0117L505.349 15.0117H514.373L523.077 39.0117H516.805L515.333 34.6277H504.357L502.917 39.0117H496.645ZM505.925 29.9237H513.765L510.565 20.3877H509.125L505.925 29.9237ZM525.666 36.8357L527.65 31.6837C530.626 33.4117 534.69 34.6277 538.434 34.6277C541.346 34.6277 543.01 33.8597 543.01 32.8037C543.01 29.6997 526.434 30.0837 526.434 21.4757C526.434 17.2837 530.498 14.3077 537.602 14.3077C544.418 14.3077 548.13 17.3797 548.13 17.3797L545.538 21.8597C543.522 20.4837 539.938 19.4277 537.25 19.4277C534.37 19.4277 532.386 20.2917 532.386 21.6677C532.386 25.0277 549.026 24.3237 549.026 32.8677C549.026 36.1637 545.762 39.8437 538.21 39.8437C530.85 39.8437 525.666 36.8357 525.666 36.8357ZM553.437 39.0117V15.0117H559.325V39.0117H553.437Z" fill="white"/>
<rect x="1" y="1.01172" width="598" height="52" rx="26" stroke="white" stroke-width="2"/>
<path d="M573.498 0.0113954H572C572.506 -0.00395055 573.006 -0.00364562 573.498 0.0113954H687.5V54.0112H573.598C573.009 54.0452 572.473 54.0439 572 54.0112H573.598C579.016 53.6984 588.866 50.3929 595 41.0115C601.8 30.6115 598.5 19.0114 596 14.5114C593.596 10.0238 585.828 0.388406 573.498 0.0113954Z" fill="#F5F5F5"/>
</svg>
